{"glyphs":{"0":{"ha":965,"x_min":68,"x_max":897,"o":"m 482 990 q 816 827 709 990 q 897 498 896 704 l 897 494 q 817 165 897 289 q 485 0 710 1 l 481 0 q 149 165 255 1 q 68 494 68 288 l 68 496 q 172 857 68 730 q 482 990 280 990 m 699 750 q 482 850 633 850 q 280 769 346 850 q 208 496 208 680 l 208 494 q 265 241 208 329 q 481 140 331 140 l 484 140 q 700 241 634 140 q 758 494 757 330 l 758 497 q 699 750 757 661 z "},"1":{"ha":578,"x_min":20,"x_max":394,"o":"m 394 0 l 254 0 l 254 850 l 20 850 l 20 990 l 324 990 q 374 970 353 990 q 394 920 394 949 l 394 0 z "},"2":{"ha":899,"x_min":65,"x_max":829,"o":"m 101 850 l 101 990 l 447 990 q 713 921 612 990 q 829 707 829 842 q 711 486 829 549 q 455 426 642 448 q 283 391 330 411 q 205 283 205 358 l 205 140 l 829 140 l 829 0 l 135 0 q 85 20 106 0 q 65 70 65 41 l 65 283 q 182 504 65 441 q 439 564 252 542 q 610 599 564 579 q 688 707 688 632 q 634 806 688 768 q 447 850 569 850 l 101 850 z "},"3":{"ha":792,"x_min":47,"x_max":743,"o":"m 47 850 l 47 990 l 452 990 q 647 916 572 990 q 721 722 721 842 q 648 530 721 604 q 665 515 657 523 q 743 297 743 437 q 665 79 743 157 q 446 0 587 0 l 47 0 l 47 140 l 446 140 q 566 178 529 140 q 604 297 604 214 q 566 416 604 379 q 446 454 529 454 l 81 454 l 81 593 l 452 593 q 548 627 514 593 q 581 722 581 661 q 548 817 581 783 q 452 850 514 850 l 47 850 z "},"4":{"ha":874,"x_min":22,"x_max":854,"o":"m 531 749 l 212 349 l 473 349 l 473 208 l 92 208 q 49 224 68 208 q 23 271 26 242 q 39 322 22 300 l 543 960 q 601 990 564 990 q 650 970 630 990 q 671 920 671 949 l 671 349 l 854 349 l 854 208 l 671 208 l 671 0 l 531 0 l 531 749 z "},"5":{"ha":840,"x_min":68,"x_max":797,"o":"m 725 990 l 725 850 l 208 850 l 208 611 l 410 611 q 687 535 586 611 q 797 305 797 454 q 680 79 797 167 q 416 0 576 0 l 68 0 l 68 140 l 416 140 q 596 190 530 140 q 657 305 657 236 q 604 423 657 384 q 410 471 540 471 l 138 471 q 88 492 109 471 q 68 541 68 512 l 68 920 q 88 970 68 949 q 138 990 109 990 l 725 990 z "},"6":{"ha":888,"x_min":68,"x_max":820,"o":"m 253 635 l 524 635 q 742 544 659 635 q 820 321 820 458 l 820 290 q 742 79 820 157 q 524 0 663 0 l 365 0 q 146 79 224 0 q 68 272 75 149 l 68 272 l 68 722 q 142 916 71 841 q 336 990 217 990 l 703 990 l 703 850 l 336 850 q 241 817 275 850 q 208 722 208 783 l 208 297 q 245 178 208 214 q 365 140 282 140 l 524 140 q 643 178 606 140 q 680 290 680 214 l 680 321 q 638 450 680 404 q 524 494 597 494 l 253 494 l 253 635 z "},"7":{"ha":767,"x_min":7,"x_max":685,"o":"m 685 0 l 545 0 l 545 850 l 7 850 l 7 990 l 615 990 q 665 970 644 990 q 685 920 685 949 l 685 0 z "},"8":{"ha":847,"x_min":47,"x_max":800,"o":"m 509 990 q 703 916 628 990 q 777 722 777 842 q 677 530 777 590 q 800 297 800 457 q 722 79 800 157 q 503 0 643 0 l 345 0 q 125 79 204 0 q 47 297 47 157 q 163 530 47 450 q 70 722 70 590 q 144 916 70 842 q 338 990 219 990 l 509 990 m 604 817 q 509 850 570 850 l 338 850 q 243 817 277 850 q 210 722 210 783 q 243 621 210 654 q 338 587 277 587 l 509 587 q 604 621 570 587 q 637 722 637 654 q 604 817 637 783 m 345 460 q 224 422 262 460 q 187 297 187 386 q 224 178 187 214 q 345 140 262 140 l 503 140 q 623 178 585 140 q 660 297 660 214 q 623 422 660 386 q 503 460 585 460 l 345 460 z "},"9":{"ha":888,"x_min":68,"x_max":820,"o":"m 635 328 l 364 328 q 146 419 229 328 q 68 648 68 505 l 68 693 q 146 911 68 833 q 364 990 224 990 l 523 990 q 742 911 663 990 q 819 718 813 841 l 820 718 l 820 269 q 746 75 817 149 q 551 0 671 0 l 144 0 l 144 140 l 551 140 q 647 174 613 140 q 680 268 680 207 l 680 693 q 643 812 680 776 q 523 850 606 850 l 364 850 q 245 812 282 850 q 208 693 208 776 l 208 648 q 250 513 208 559 q 364 469 290 469 l 635 469 l 635 328 z "},"\u0000":{"ha":136,"x_min":0,"x_max":0,"o":""}," ":{"ha":342,"x_min":0,"x_max":0,"o":""},"!":{"ha":275,"x_min":68,"x_max":208,"o":"m 68 990 l 208 990 l 208 502 l 180 271 l 95 271 l 68 502 l 68 990 m 68 140 l 208 140 l 208 0 l 68 0 l 68 140 z "},"\"":{"ha":496,"x_min":68,"x_max":428,"o":"m 68 990 l 208 990 l 208 805 l 174 579 l 102 579 l 68 805 l 68 990 m 288 990 l 428 990 l 428 805 l 394 579 l 322 579 l 288 805 l 288 990 z "},"#":{"ha":1026,"x_min":68,"x_max":958,"o":"m 214 14 l 267 275 l 68 275 l 68 416 l 294 416 l 326 572 l 68 572 l 68 711 l 354 711 l 407 977 l 549 977 l 356 14 l 214 14 m 846 977 l 792 711 l 958 711 l 958 572 l 764 572 l 733 416 l 958 416 l 958 275 l 705 275 l 652 14 l 510 14 l 562 275 l 463 275 l 490 416 l 591 416 l 622 572 l 520 572 l 547 711 l 650 711 l 703 977 l 846 977 z "},"$":{"ha":833,"x_min":34,"x_max":804,"o":"m 727 989 l 727 848 l 490 848 l 490 623 l 349 623 l 349 848 l 319 848 q 218 806 260 848 q 175 705 175 764 q 218 603 175 645 q 319 560 260 560 l 519 560 q 721 477 637 560 q 804 275 804 393 q 721 74 804 157 q 519 -10 637 -10 l 490 -10 l 490 -174 l 349 -174 l 349 -10 l 66 -10 l 66 132 l 519 132 q 621 174 578 132 q 663 275 663 216 q 621 377 663 334 q 519 419 578 419 l 490 419 l 490 193 l 349 193 l 349 419 l 319 419 q 117 503 201 419 q 34 705 34 587 q 117 906 34 822 q 319 989 201 989 l 349 989 l 349 1143 l 490 1143 l 490 989 l 727 989 z "},"%":{"ha":1012,"x_min":68,"x_max":944,"o":"m 677 990 l 182 0 l 337 0 q 591 508 399 123 q 833 990 758 839 l 677 990 m 260 722 q 202 746 226 722 q 178 805 178 770 q 202 863 178 839 q 260 888 226 888 q 318 863 294 888 q 342 805 342 839 q 318 746 342 770 q 260 722 294 722 m 260 612 q 396 669 340 612 q 452 805 452 725 q 396 941 452 884 q 260 997 340 997 q 124 941 180 997 q 68 805 68 884 q 124 669 68 725 q 260 612 180 612 m 752 109 q 693 133 718 109 q 669 191 669 157 q 693 250 669 225 q 752 274 718 274 q 810 250 786 274 q 834 191 834 225 q 810 133 834 157 q 752 109 786 109 m 752 -1 q 888 55 831 -1 q 944 191 944 111 q 888 327 944 271 q 752 383 831 383 q 616 327 672 383 q 559 191 559 271 q 616 55 559 111 q 752 -1 672 -1 z "},"&":{"ha":880,"x_min":68,"x_max":877,"o":"m 446 686 q 488 774 489 732 q 463 839 488 816 q 389 863 435 864 q 315 838 342 863 q 292 782 292 817 q 371 624 290 720 l 461 517 l 593 376 q 520 250 564 300 q 342 441 427 344 q 230 304 258 379 q 222 220 213 260 q 257 159 229 184 q 388 120 303 120 q 566 207 484 120 q 659 412 635 302 l 671 481 l 808 456 l 796 388 q 746 227 780 299 l 877 98 l 775 3 l 667 110 q 388 -20 543 -20 q 166 54 252 -20 q 85 191 102 109 q 99 353 68 270 q 252 548 140 463 q 152 785 150 671 q 221 941 154 880 q 387 1003 288 1002 q 558 941 490 1004 q 627 777 626 878 q 549 591 629 678 q 507 552 530 571 l 415 656 q 446 686 433 672 z "},"'":{"ha":275,"x_min":68,"x_max":208,"o":"m 68 990 l 208 990 l 208 805 l 174 579 l 102 579 l 68 805 l 68 990 z "},"(":{"ha":424,"x_min":34,"x_max":390,"o":"m 390 99 l 390 -34 q 132 77 227 -34 q 34 376 34 189 l 34 614 q 132 913 34 800 q 390 1024 228 1024 l 390 891 q 232 814 292 884 q 169 614 169 742 l 169 376 q 231 176 169 248 q 390 99 292 106 z "},")":{"ha":424,"x_min":34,"x_max":390,"o":"m 34 99 q 193 176 132 106 q 255 376 255 248 l 255 614 q 192 814 255 742 q 34 891 132 884 l 34 1024 q 292 913 196 1024 q 390 614 390 800 l 390 376 q 292 77 390 189 q 34 -34 197 -34 l 34 99 z "},"*":{"ha":785,"x_min":68,"x_max":717,"o":"m 111 837 l 323 768 l 323 990 l 462 990 l 462 768 l 673 837 l 717 704 l 505 635 l 636 455 l 523 373 l 392 553 l 262 373 l 149 455 l 279 635 l 68 704 l 111 837 z "},"+":{"ha":742,"x_min":68,"x_max":674,"o":"m 68 362 l 68 488 l 301 488 l 301 728 l 441 728 l 441 488 l 674 488 l 674 362 l 441 362 l 441 122 l 301 122 l 301 362 l 68 362 z "},",":{"ha":275,"x_min":68,"x_max":208,"o":"m 146 -187 l 82 -187 q 130 0 123 -94 l 68 0 l 68 140 l 208 140 l 208 0 q 146 -187 194 -94 z "},"-":{"ha":544,"x_min":68,"x_max":476,"o":"m 68 359 l 68 492 l 476 492 l 476 359 l 68 359 z "},".":{"ha":1049,"x_min":68,"x_max":973,"o":"m 68 -191 l 68 968 l 973 968 l 973 -191 l 68 -191 m 92 -164 l 949 -164 l 949 948 l 92 948 l 92 -164 m 492 319 l 494 319 l 501 319 l 501 307 q 503 221 503 259 l 498 220 l 494 220 q 492 313 492 268 l 492 315 l 492 319 m 830 319 l 831 319 l 840 319 q 840 310 840 313 q 842 221 840 273 l 834 220 l 831 220 q 829 307 830 259 q 830 319 830 315 m 536 316 l 538 316 q 543 308 538 315 q 541 288 541 296 l 541 275 q 551 236 541 245 l 551 236 q 575 315 566 236 l 576 315 q 585 313 585 313 q 581 254 581 273 q 589 233 581 233 q 591 220 591 222 l 585 220 q 572 241 576 220 l 571 241 q 553 222 564 222 l 549 222 q 531 264 536 222 q 530 279 530 267 l 530 286 q 536 316 530 303 m 742 316 l 746 316 q 765 297 754 316 q 773 267 773 282 l 773 261 q 746 222 773 236 q 736 220 741 220 l 732 220 q 708 249 711 220 l 708 255 q 735 315 708 289 q 742 316 741 316 m 169 313 l 175 313 q 194 286 194 310 q 172 253 194 263 q 153 248 163 250 l 153 223 l 153 223 q 143 225 149 223 l 143 248 l 140 248 l 136 249 q 140 262 136 256 l 143 262 l 143 262 q 139 290 143 290 q 135 297 135 294 q 169 313 147 313 m 718 255 l 718 250 q 735 233 718 235 q 760 252 750 233 q 764 264 764 257 l 764 266 q 746 302 764 284 q 744 303 744 302 q 720 269 732 303 q 718 255 718 262 m 152 295 q 153 263 153 271 q 153 262 153 263 q 178 273 173 266 q 184 286 184 280 q 174 300 184 298 l 170 300 q 152 295 152 298 m 274 297 q 293 264 287 297 q 283 261 292 264 q 274 283 279 283 q 260 233 262 277 q 261 222 261 223 q 251 221 254 221 q 242 280 242 268 q 252 281 250 281 l 252 281 q 254 268 252 278 l 255 268 q 274 297 262 297 m 364 293 q 387 271 378 293 q 388 260 388 265 l 388 258 q 364 222 388 233 q 358 221 361 221 q 340 247 340 224 q 357 291 340 281 q 364 293 358 292 m 416 293 q 441 233 429 293 q 441 228 441 233 q 433 223 436 223 q 418 277 423 265 q 406 230 412 269 q 402 223 405 230 l 397 223 q 391 262 393 223 q 390 277 390 271 q 399 279 395 279 q 401 265 401 267 l 402 265 q 416 293 407 293 m 804 293 q 827 228 814 293 q 819 223 821 223 q 802 277 808 268 q 789 227 798 269 q 787 223 787 223 l 783 223 q 776 277 778 223 q 786 279 780 279 q 787 264 787 266 l 787 264 q 804 293 792 293 m 320 292 q 332 280 332 288 l 332 279 q 326 274 332 278 l 325 274 q 316 279 322 279 q 305 271 307 279 q 325 267 305 268 q 338 244 338 260 q 325 221 338 227 l 319 220 l 316 220 q 293 235 300 220 l 293 236 q 299 243 294 238 l 300 243 q 319 233 308 233 q 328 244 328 236 q 314 254 326 254 q 295 269 295 254 l 295 271 q 320 292 295 292 m 618 292 q 632 279 627 292 l 632 279 q 623 274 625 274 q 615 279 623 278 q 604 272 607 279 l 604 271 q 623 267 604 268 q 636 243 636 261 q 620 220 636 225 l 614 220 q 591 235 599 220 l 591 236 q 597 243 596 243 l 598 243 q 616 233 606 233 q 626 244 626 236 q 615 254 626 252 q 595 262 598 254 q 593 271 593 269 q 618 292 593 292 m 847 291 l 847 291 q 857 290 856 290 q 856 272 856 277 l 856 266 q 865 242 857 242 l 865 242 q 878 288 878 251 l 878 288 l 888 288 l 888 286 q 892 226 892 233 q 872 188 892 195 q 869 188 871 188 l 865 188 q 850 201 853 188 q 849 208 849 204 l 849 208 q 851 218 849 218 l 852 218 q 860 214 858 214 l 859 208 q 865 201 859 202 l 867 201 q 882 230 882 201 q 882 244 882 233 l 881 244 q 863 228 876 228 l 863 228 q 846 260 850 228 l 846 271 q 847 291 846 278 m 224 290 q 240 275 240 288 l 240 271 q 214 247 240 258 l 207 247 q 218 236 207 239 q 233 248 226 236 l 235 248 q 241 238 241 240 q 220 223 229 223 l 216 223 q 195 254 198 223 q 217 290 195 281 l 224 290 m 462 290 l 469 290 q 488 260 488 284 q 487 236 487 245 q 488 225 487 236 q 479 220 482 220 l 479 220 l 477 227 q 462 222 469 222 l 457 222 q 442 236 442 224 l 442 241 q 464 265 442 262 q 477 261 471 264 l 477 262 q 466 279 475 279 q 454 272 460 279 l 452 272 q 446 279 450 273 l 446 281 q 462 290 454 290 m 667 290 q 683 275 683 288 q 654 247 683 255 l 650 247 l 650 245 q 661 236 654 236 q 676 248 667 236 l 677 248 q 683 240 677 248 q 669 225 683 234 q 663 223 666 223 l 658 223 q 638 253 642 223 q 659 290 638 280 l 667 290 m 350 248 q 358 235 351 235 l 360 235 q 378 259 376 240 l 378 261 q 364 279 374 279 l 363 279 q 351 257 354 279 q 350 248 350 252 m 207 261 q 229 273 220 261 l 229 275 q 223 276 224 276 q 207 263 212 276 l 207 261 m 650 261 l 652 261 q 673 274 663 261 q 667 276 669 276 l 665 276 q 650 262 654 276 l 650 261 m 452 240 l 452 238 q 459 234 452 236 q 476 245 471 234 q 463 250 471 250 q 452 240 452 248 m 419 172 q 429 149 428 172 l 429 147 l 425 146 l 424 146 q 418 161 422 161 q 413 148 414 161 q 414 145 414 146 q 415 119 414 138 q 421 121 418 121 l 423 121 l 423 111 l 416 109 q 419 62 419 70 l 412 62 q 409 106 409 98 l 408 106 q 401 104 405 104 l 401 116 q 408 117 406 116 q 406 153 406 132 q 418 172 408 172 l 419 172 m 553 172 q 564 147 562 172 l 559 146 l 557 146 l 557 147 q 553 161 557 157 q 547 151 547 157 q 549 119 547 145 q 549 119 549 119 q 556 121 553 121 l 557 121 l 557 115 l 557 111 q 549 109 557 111 l 551 106 q 553 62 551 98 l 546 62 q 543 106 546 66 q 535 104 537 104 l 535 116 l 543 117 q 541 152 541 148 q 553 172 541 172 m 481 161 l 484 161 l 488 161 l 488 155 q 490 65 488 113 l 482 65 q 481 134 481 109 l 481 161 m 498 161 l 499 161 l 505 161 l 505 140 q 507 65 505 119 l 499 65 q 497 157 497 110 l 497 159 q 498 161 497 161 m 359 159 q 366 157 364 157 q 364 129 364 138 l 366 129 l 374 130 l 374 119 q 364 117 373 119 l 367 67 l 366 66 l 360 66 q 357 117 358 85 l 348 117 l 348 127 l 355 128 l 357 128 l 357 140 q 359 159 357 159 m 674 159 q 682 157 676 159 q 680 138 680 149 l 680 129 l 682 129 l 690 130 l 690 119 l 688 119 l 680 117 l 684 67 l 680 66 l 676 66 q 674 117 674 108 l 664 117 l 665 122 l 665 127 l 672 128 l 673 128 l 673 129 q 674 159 673 143 m 773 159 q 781 157 775 159 q 780 134 780 145 l 780 129 l 781 129 l 789 130 l 789 125 l 789 119 q 780 117 789 119 l 780 113 q 783 67 780 103 l 781 66 l 775 66 l 772 117 l 764 117 l 764 127 l 771 128 l 772 128 l 773 159 m 274 157 l 281 157 q 296 141 290 157 q 292 135 292 137 l 290 135 q 276 145 284 145 q 252 127 264 145 q 246 104 246 115 l 246 101 q 262 77 246 81 q 268 77 264 77 q 289 90 289 79 l 289 97 q 281 99 286 99 l 274 99 l 274 111 q 296 104 293 111 q 298 98 298 100 q 296 79 296 81 q 299 61 296 71 q 294 58 298 61 l 293 58 q 289 73 290 58 q 269 64 285 67 l 268 64 q 239 99 242 64 l 239 102 q 269 155 239 141 l 274 157 m 587 135 q 610 109 603 135 l 610 100 q 587 66 610 77 l 583 65 q 566 79 572 65 q 565 90 565 86 l 565 93 q 578 132 565 121 q 587 135 583 135 m 640 135 q 663 71 650 135 l 662 71 q 656 68 659 68 q 640 122 646 114 q 624 68 635 117 l 623 68 l 620 68 q 614 119 616 68 l 619 121 l 621 121 q 623 98 623 110 l 623 98 q 640 135 629 135 m 330 132 q 344 119 344 130 q 345 117 345 119 q 321 93 345 102 q 311 91 317 91 l 311 90 q 322 79 311 83 l 323 79 q 338 90 330 79 l 340 90 q 345 83 340 88 l 345 83 q 325 68 335 68 l 321 68 q 302 90 308 68 l 302 100 q 320 131 302 122 q 330 132 323 132 m 734 132 l 742 132 q 758 113 753 132 q 760 101 760 102 q 758 83 760 97 q 760 68 760 81 l 755 65 l 753 65 l 751 73 q 734 66 745 66 l 732 66 q 718 79 718 68 l 718 85 q 738 106 720 106 q 752 101 746 106 l 752 103 q 740 123 752 120 l 738 123 q 726 117 734 123 l 726 117 q 722 122 725 117 l 722 123 q 734 132 728 132 m 430 131 q 437 129 431 131 q 447 79 437 79 q 466 123 460 87 q 467 131 467 127 l 467 131 q 474 129 469 131 q 472 98 472 113 l 472 90 q 475 77 472 84 q 472 70 472 73 l 471 70 q 465 87 466 73 l 464 87 q 451 68 461 77 l 445 68 q 431 119 431 68 l 431 125 l 430 131 m 572 93 q 582 77 573 77 l 583 77 q 601 94 593 77 q 603 102 603 100 q 588 123 599 123 l 585 123 q 572 93 575 123 m 310 102 q 336 117 326 102 q 329 121 335 121 l 327 121 q 310 102 314 121 m 724 83 q 732 77 726 77 l 736 77 q 751 90 745 77 q 739 95 745 95 l 738 95 q 724 83 724 93 m 344 31 q 355 28 345 31 q 352 -35 353 2 q 359 -81 352 -58 q 351 -88 351 -88 l 350 -88 q 346 -79 348 -88 l 345 -79 q 330 -90 345 -85 q 298 -62 308 -90 q 296 -43 296 -54 q 319 -3 296 -10 l 322 -3 q 342 -14 332 -3 l 342 -14 q 344 31 342 -8 m 214 26 l 224 23 q 223 -1 223 7 l 223 -11 q 233 -9 232 -9 q 235 -25 235 -22 l 233 -25 q 223 -26 227 -26 q 227 -87 225 -68 q 215 -89 218 -89 l 215 -88 q 212 -28 212 -47 l 210 -27 l 201 -27 l 201 -11 l 211 -11 l 211 -5 q 214 26 211 26 m 457 26 l 458 26 l 468 23 q 467 -7 467 4 l 467 -11 q 477 -9 476 -9 l 478 -18 l 478 -25 q 467 -26 467 -26 q 471 -87 467 -42 q 459 -89 462 -89 l 459 -88 q 456 -27 456 -37 l 444 -27 l 444 -11 l 455 -11 q 457 26 455 12 m 370 24 q 378 15 376 24 l 378 14 q 372 3 378 7 l 368 3 q 362 15 362 7 q 370 24 363 24 m 412 -3 q 439 -29 429 -3 q 441 -41 441 -37 l 441 -47 q 414 -87 441 -74 q 406 -89 412 -89 q 384 -61 387 -89 l 384 -52 q 404 -5 384 -17 q 412 -3 411 -3 m 543 -3 l 546 -3 q 553 -5 553 -3 l 553 -7 q 566 -3 559 -3 q 589 -33 583 -3 q 589 -43 589 -41 q 568 -86 587 -78 l 563 -87 l 556 -87 l 557 -92 q 557 -119 557 -96 l 546 -119 q 543 -3 543 -30 m 621 -3 q 647 -27 636 -3 q 650 -43 650 -36 q 624 -87 650 -73 q 614 -89 618 -89 q 593 -71 600 -89 q 592 -55 592 -62 q 612 -5 592 -18 q 621 -3 620 -3 m 758 -3 q 784 -27 774 -3 q 787 -40 787 -33 l 787 -45 q 760 -87 787 -75 q 751 -89 758 -89 q 730 -61 732 -89 l 730 -52 q 750 -5 730 -17 q 758 -3 757 -3 m 821 -3 q 840 -43 833 -3 l 840 -43 q 859 -3 846 -3 l 859 -3 q 886 -83 876 -3 l 885 -83 q 876 -87 878 -87 l 876 -87 q 859 -20 863 -20 q 847 -76 852 -35 q 840 -83 845 -83 q 833 -73 835 -83 q 820 -21 824 -21 q 809 -84 809 -60 q 798 -87 802 -87 l 798 -86 l 789 -16 q 801 -12 798 -12 q 804 -33 802 -17 l 805 -33 q 821 -3 811 -3 m 175 -4 q 191 -18 191 -7 l 191 -19 q 183 -25 191 -20 l 181 -25 q 172 -20 181 -20 l 172 -20 q 158 -26 163 -20 l 158 -29 q 179 -33 158 -33 q 197 -59 197 -41 l 197 -62 q 182 -88 197 -81 q 176 -90 179 -90 l 170 -90 q 143 -73 154 -90 q 151 -62 143 -70 l 153 -62 q 173 -75 158 -75 q 185 -61 185 -75 q 171 -49 185 -51 q 149 -41 153 -49 q 146 -33 146 -35 l 146 -27 q 175 -4 146 -4 m 484 -5 q 494 -7 492 -7 q 493 -31 493 -23 l 493 -35 q 501 -64 493 -57 l 505 -64 q 519 -16 519 -52 l 519 -9 l 531 -9 l 531 -9 q 536 -79 536 -70 l 536 -86 q 517 -127 536 -116 q 507 -130 511 -130 q 487 -116 492 -130 q 486 -110 486 -113 l 486 -104 q 488 -94 486 -94 l 498 -98 l 497 -104 l 497 -106 q 505 -113 497 -112 l 507 -113 q 524 -91 521 -113 q 525 -83 525 -88 l 525 -69 l 524 -60 l 524 -60 q 504 -81 517 -81 l 503 -81 q 482 -47 487 -81 q 481 -33 481 -41 l 481 -27 q 484 -5 481 -5 m 701 -5 l 706 -5 q 716 -12 710 -5 q 724 -24 724 -20 q 715 -33 716 -33 l 715 -33 q 703 -22 708 -22 l 702 -22 q 690 -41 694 -26 l 687 -56 q 696 -72 687 -71 l 699 -72 q 722 -61 706 -72 l 722 -61 q 726 -76 726 -75 q 694 -88 709 -88 q 675 -57 679 -88 q 688 -14 675 -34 q 701 -5 696 -5 m 364 -7 l 372 -7 l 376 -7 q 376 -13 376 -9 q 378 -87 376 -58 l 366 -87 l 366 -81 q 364 -7 364 -35 m 237 -7 q 249 -12 249 -11 l 249 -25 q 257 -71 249 -71 l 260 -71 q 277 -33 272 -58 q 281 -7 280 -26 l 282 -7 q 292 -12 292 -9 q 290 -52 290 -40 l 290 -58 q 294 -72 290 -65 q 287 -84 294 -76 l 287 -84 q 279 -67 279 -76 l 278 -67 q 259 -87 271 -87 l 257 -87 q 237 -24 237 -87 l 237 -7 m 308 -45 q 328 -73 308 -68 l 330 -73 q 340 -55 338 -73 l 340 -53 q 326 -20 340 -28 l 322 -20 l 321 -20 q 308 -43 309 -20 l 308 -45 m 395 -56 q 406 -73 395 -71 l 408 -73 q 428 -53 418 -73 q 429 -47 429 -50 l 429 -41 q 413 -20 425 -20 l 412 -20 q 395 -56 397 -20 m 553 -25 q 555 -71 553 -27 l 560 -71 q 578 -43 575 -71 q 566 -20 576 -20 l 566 -20 q 553 -25 559 -20 m 604 -56 l 604 -59 q 614 -73 604 -71 l 615 -73 q 635 -55 626 -73 q 638 -43 638 -50 q 619 -20 634 -20 q 604 -56 606 -20 m 741 -56 q 752 -73 741 -73 l 754 -73 q 774 -52 764 -73 q 775 -45 775 -48 l 775 -41 q 758 -20 770 -20 l 758 -20 q 741 -56 744 -20 m 663 -65 q 671 -75 669 -65 l 671 -78 q 663 -87 669 -87 q 655 -77 656 -87 q 663 -65 656 -65 m 486 928 l 486 764 l 309 764 q 239 738 273 764 l 239 745 q 486 928 339 928 m 543 928 l 549 928 q 739 827 639 928 q 777 764 777 781 l 543 764 l 543 928 m 290 707 l 486 707 l 486 643 q 435 656 463 656 l 290 656 q 277 669 277 656 l 277 694 q 290 707 279 707 m 543 707 l 802 707 l 808 643 l 808 631 q 720 429 808 505 l 606 429 q 543 492 543 437 l 543 707 m 220 656 l 227 656 q 321 599 227 607 l 441 599 q 486 555 486 599 l 486 485 q 416 429 486 429 l 309 429 q 220 618 220 510 l 220 656 m 511 410 l 517 410 q 644 372 559 372 l 644 365 q 517 340 571 340 l 511 340 q 385 365 457 340 l 385 372 q 511 410 474 372 z "},"/":{"ha":481,"x_min":34,"x_max":448,"o":"m 34 -1 l 323 992 l 448 992 l 158 -1 l 34 -1 z "},":":{"ha":275,"x_min":68,"x_max":208,"o":"m 68 140 l 208 140 l 208 0 l 68 0 l 68 140 m 68 707 l 208 707 l 208 567 l 68 567 l 68 707 z "},";":{"ha":275,"x_min":68,"x_max":208,"o":"m 146 -187 l 82 -187 q 130 0 123 -94 l 68 0 l 68 140 l 208 140 l 208 0 q 146 -187 194 -94 m 68 707 l 208 707 l 208 567 l 68 567 l 68 707 z "},"<":{"ha":753,"x_min":34,"x_max":720,"o":"m 720 710 l 244 492 l 720 272 l 720 121 l 74 428 q 34 490 35 447 q 74 555 34 535 l 720 862 l 720 710 z "},"=":{"ha":785,"x_min":68,"x_max":713,"o":"m 68 197 l 68 330 l 713 330 l 713 197 l 68 197 m 68 549 l 68 682 l 713 682 l 713 549 l 68 549 z "},">":{"ha":753,"x_min":34,"x_max":720,"o":"m 34 862 l 680 555 q 720 490 720 535 q 680 428 719 447 l 34 121 l 34 272 l 509 492 l 34 710 l 34 862 z "},"?":{"ha":707,"x_min":68,"x_max":639,"o":"m 68 705 q 151 907 68 823 q 353 990 235 990 q 555 907 471 990 q 639 705 639 823 q 575 499 639 571 q 443 411 538 456 l 439 410 q 370 339 370 377 l 370 233 l 231 233 l 231 339 q 275 470 231 422 q 380 536 304 500 l 383 538 q 461 589 439 564 q 498 705 498 630 q 456 808 498 765 q 353 850 414 850 q 250 808 293 850 q 208 705 208 765 l 68 705 m 231 140 l 370 140 l 370 0 l 231 0 l 231 140 z "},"@":{"ha":1411,"x_min":75,"x_max":1352,"o":"m 793 253 l 772 65 q 612 41 695 28 q 437 146 505 56 q 372 399 357 253 q 479 641 387 541 q 677 746 564 732 q 882 651 831 751 l 891 709 l 1028 692 q 955 157 962 201 q 962 123 949 131 q 979 121 970 118 q 1117 220 1059 142 q 1169 490 1200 330 q 1040 738 1141 640 q 702 871 901 871 q 356 731 497 872 q 214 387 214 589 q 299 96 214 219 q 542 -84 385 -26 q 918 -110 720 -149 q 1251 62 1120 -70 l 1352 -28 q 948 -239 1192 -190 q 492 -207 709 -287 q 185 20 295 -135 q 75 387 75 177 q 255 822 75 642 q 713 1004 441 1008 q 1139 830 963 1000 q 1308 500 1276 697 q 1230 143 1342 293 q 1016 -7 1143 28 q 889 -5 946 -26 q 812 85 824 18 l 841 355 q 848 393 845 374 q 809 562 861 494 q 696 615 764 622 q 583 554 634 610 q 511 393 524 489 q 550 224 498 292 q 663 171 595 164 q 776 232 724 176 q 793 253 785 242 z "},"A":{"ha":882,"x_min":7,"x_max":875,"o":"m 608 387 l 479 810 q 440 850 465 850 q 402 810 415 850 l 155 0 l 7 0 l 269 853 q 332 949 289 913 q 440 990 380 990 q 549 949 500 990 q 612 853 591 913 l 875 0 l 727 0 l 648 258 l 296 258 l 336 387 l 608 387 z "},"B":{"ha":815,"x_min":68,"x_max":788,"o":"m 652 532 q 788 298 788 463 q 709 79 788 157 q 490 0 631 0 l 276 0 l 276 140 l 490 140 q 610 178 572 140 q 648 298 648 216 q 610 424 648 387 q 490 462 572 462 l 276 462 l 276 589 l 462 589 q 558 623 524 589 q 591 724 591 655 q 558 819 591 785 q 462 852 524 852 l 258 852 q 221 840 234 852 q 208 809 208 827 l 208 0 l 68 0 l 68 809 q 121 939 68 885 q 258 993 176 993 l 462 993 q 657 918 582 993 q 731 724 731 844 q 652 532 731 604 z "},"C":{"ha":724,"x_min":47,"x_max":704,"o":"m 704 990 l 704 851 l 638 851 q 356 808 457 852 q 187 498 187 734 q 356 186 187 262 q 638 140 460 139 l 704 140 l 704 0 l 638 0 q 260 64 390 0 q 47 498 47 169 q 260 930 47 827 q 638 990 387 991 l 704 990 z "},"D":{"ha":916,"x_min":68,"x_max":868,"o":"m 208 0 l 68 0 l 68 809 q 121 939 68 885 q 252 993 176 993 l 445 993 q 696 906 591 993 q 836 693 791 827 q 868 496 868 600 q 836 300 868 394 q 696 87 791 165 q 445 0 591 0 l 276 0 l 276 140 l 445 140 q 610 199 541 140 q 704 345 673 253 q 728 496 728 416 q 704 649 728 578 q 610 793 673 740 q 445 852 541 852 l 252 852 q 221 840 233 852 q 208 809 208 827 l 208 0 z "},"E":{"ha":722,"x_min":68,"x_max":696,"o":"m 669 589 l 669 462 l 208 462 l 208 184 q 221 153 208 166 q 252 140 234 140 l 690 140 l 690 0 l 252 0 q 121 54 176 0 q 68 184 68 108 l 68 809 q 121 939 68 885 q 252 993 176 993 l 696 993 l 696 852 l 252 852 q 221 840 234 852 q 208 809 208 827 l 208 589 l 669 589 z "},"F":{"ha":680,"x_min":68,"x_max":666,"o":"m 646 589 l 646 462 l 208 462 l 208 0 l 68 0 l 68 809 q 121 939 68 885 q 252 993 176 993 l 666 993 l 666 852 l 252 852 q 221 840 234 852 q 208 809 208 827 l 208 589 l 646 589 z "},"G":{"ha":929,"x_min":54,"x_max":875,"o":"m 395 432 l 395 558 l 804 558 q 854 538 833 558 q 875 488 875 517 l 875 410 q 762 111 875 223 q 465 0 651 0 q 167 111 277 0 q 54 410 54 223 l 54 581 q 168 880 54 766 q 465 990 278 990 l 749 990 l 749 850 l 465 850 q 267 781 336 850 q 194 581 194 708 l 194 410 q 266 210 194 281 q 465 140 336 140 q 663 210 593 140 q 734 432 734 281 l 395 432 z "},"H":{"ha":814,"x_min":68,"x_max":747,"o":"m 606 990 l 747 990 l 747 0 l 606 0 l 606 990 m 613 460 l 208 460 l 208 0 l 68 0 l 68 990 l 208 990 l 208 587 l 613 587 l 613 460 z "},"I":{"ha":302,"x_min":81,"x_max":221,"o":"m 221 0 l 81 0 l 81 990 l 221 990 l 221 0 z "},"J":{"ha":555,"x_min":7,"x_max":487,"o":"m 7 0 l 7 140 l 135 140 q 291 195 236 140 q 347 353 347 252 l 347 990 l 487 990 l 487 353 q 390 97 487 195 q 135 0 294 0 l 7 0 z "},"K":{"ha":760,"x_min":68,"x_max":758,"o":"m 208 0 l 68 0 l 68 990 l 208 990 l 208 0 m 362 495 q 365 490 362 492 l 758 0 l 587 0 l 274 383 q 260 397 268 389 l 260 397 q 222 495 222 440 q 260 593 222 550 l 260 593 q 274 607 268 602 l 587 990 l 758 990 l 365 500 q 362 495 362 498 z "},"L":{"ha":652,"x_min":68,"x_max":644,"o":"m 68 990 l 208 990 l 208 183 q 220 153 208 165 q 251 140 233 140 l 644 140 l 644 0 l 252 0 q 121 54 176 0 q 68 184 68 108 l 68 990 z "},"M":{"ha":1110,"x_min":61,"x_max":1049,"o":"m 907 0 l 866 826 q 849 853 865 853 q 825 826 831 853 l 705 205 q 647 122 695 152 q 555 98 606 98 q 463 122 503 98 q 404 205 414 152 l 285 826 q 262 853 279 853 q 243 823 245 853 l 202 0 l 61 0 l 104 842 q 152 951 107 907 q 262 994 197 994 q 368 953 323 994 q 423 852 411 914 l 541 245 q 555 231 544 231 q 570 245 566 231 l 687 852 q 745 954 699 913 q 852 994 791 994 q 961 950 918 994 q 1006 842 1003 907 l 1049 0 l 907 0 z "},"N":{"ha":905,"x_min":68,"x_max":837,"o":"m 208 0 l 68 0 l 68 806 q 113 935 68 883 q 237 990 161 990 q 356 952 311 990 q 429 825 404 913 l 610 204 q 636 147 623 161 q 663 140 643 140 q 692 153 686 140 q 697 184 697 162 l 697 990 l 837 990 l 837 184 q 792 52 837 102 q 663 0 745 0 q 538 48 586 0 q 476 165 498 87 l 295 786 q 279 833 283 827 q 242 850 269 850 q 208 806 208 850 l 208 0 z "},"O":{"ha":956,"x_min":68,"x_max":888,"o":"m 478 990 q 775 880 665 990 q 888 581 888 767 l 888 410 q 775 111 888 223 q 478 0 665 0 q 180 111 291 0 q 68 410 68 223 l 68 581 q 181 880 68 766 q 478 990 292 990 m 676 781 q 478 850 607 850 q 280 781 350 850 q 208 581 208 708 l 208 410 q 279 210 208 281 q 478 140 349 140 q 676 210 607 140 q 748 410 748 281 l 748 581 q 676 781 748 709 z "},"P":{"ha":810,"x_min":68,"x_max":786,"o":"m 208 0 l 68 0 l 68 809 q 121 939 68 885 q 252 993 176 993 l 488 993 q 707 914 629 993 q 786 662 786 836 q 707 409 786 487 q 488 330 629 330 l 275 330 l 275 464 l 488 464 q 608 501 570 464 q 646 662 646 538 q 608 815 646 778 q 488 852 570 852 l 252 852 q 221 840 234 852 q 208 809 208 827 l 208 0 z "},"Q":{"ha":956,"x_min":68,"x_max":888,"o":"m 559 148 l 434 311 l 542 392 l 866 -29 l 758 -111 l 650 30 q 478 0 574 0 q 180 111 291 0 q 68 410 68 223 l 68 581 q 181 880 68 766 q 478 990 292 990 q 775 880 665 990 q 888 581 888 767 l 888 410 q 798 135 888 243 l 709 251 q 748 410 748 315 l 748 581 q 676 781 748 709 q 478 850 607 850 q 280 781 350 850 q 208 581 208 708 l 208 410 q 279 210 208 281 q 478 140 349 140 q 559 148 522 140 z "},"R":{"ha":862,"x_min":68,"x_max":840,"o":"m 640 0 l 315 311 q 270 378 280 336 q 274 449 263 417 q 320 509 288 487 q 393 532 353 532 l 536 532 q 656 569 618 532 q 693 696 693 606 q 656 815 693 778 q 536 852 618 852 l 252 852 q 221 840 234 852 q 208 809 208 827 l 208 0 l 68 0 l 68 809 q 122 939 68 885 q 252 993 176 993 l 536 993 q 755 914 676 993 q 833 696 833 836 q 755 484 833 562 q 536 405 676 405 l 408 405 l 840 0 l 640 0 z "},"S":{"ha":795,"x_min":41,"x_max":750,"o":"m 701 990 l 701 850 l 409 850 q 235 806 300 850 q 180 708 180 769 q 259 600 180 632 q 404 565 306 580 q 633 505 564 543 q 750 283 750 441 q 634 69 750 148 q 395 0 533 0 l 47 0 l 47 140 l 395 140 q 555 184 490 140 q 610 283 610 222 q 532 391 610 358 q 387 426 485 411 q 157 486 227 448 q 41 708 41 549 q 157 922 41 842 q 409 990 258 990 l 701 990 z "},"T":{"ha":775,"x_min":14,"x_max":762,"o":"m 762 990 l 762 850 l 458 850 l 458 0 l 317 0 l 317 850 l 14 850 l 14 990 l 762 990 z "},"U":{"ha":911,"x_min":68,"x_max":843,"o":"m 703 990 l 843 990 l 843 410 q 736 120 843 234 q 455 0 625 0 q 189 105 299 0 q 68 410 68 221 l 68 990 l 208 990 l 208 410 q 286 206 208 280 q 455 140 355 140 q 635 215 564 140 q 703 410 703 289 l 703 990 z "},"V":{"ha":922,"x_min":7,"x_max":916,"o":"m 916 990 l 632 137 q 569 41 612 77 q 460 0 521 0 q 353 41 401 0 q 290 137 309 77 l 7 990 l 155 990 l 422 180 q 460 140 435 140 q 499 180 486 140 l 768 990 l 916 990 z "},"W":{"ha":1187,"x_min":27,"x_max":1160,"o":"m 1160 990 l 1041 145 q 994 43 1032 81 q 889 0 952 0 q 781 41 827 0 q 724 141 736 81 l 609 741 q 593 751 606 751 q 578 739 581 751 l 462 141 q 408 41 450 80 q 302 0 363 0 q 195 42 239 0 q 145 145 154 82 l 27 990 l 168 990 l 283 168 q 302 140 288 140 q 324 168 319 140 l 444 785 q 502 867 454 838 q 593 891 542 891 q 684 867 644 891 q 743 785 732 838 l 861 170 q 871 149 864 158 q 886 139 878 139 q 903 171 899 140 l 1018 990 l 1160 990 z "},"X":{"ha":876,"x_min":7,"x_max":869,"o":"m 7 0 l 218 406 q 310 495 255 475 q 218 585 255 515 l 7 990 l 164 990 l 342 649 q 390 576 371 593 q 438 565 401 565 q 486 574 476 565 q 537 654 505 591 l 712 990 l 869 990 l 661 589 q 566 495 622 515 q 661 401 622 475 l 869 0 l 712 0 l 537 336 q 486 416 505 399 q 438 425 476 425 q 390 414 401 425 q 342 341 371 397 l 164 0 l 7 0 z "},"Y":{"ha":831,"x_min":7,"x_max":825,"o":"m 486 360 l 486 0 l 346 0 l 346 359 q 314 382 330 368 q 244 478 271 418 l 7 990 l 154 990 l 374 522 q 415 481 392 481 q 457 522 437 481 l 677 990 l 825 990 l 587 478 q 517 382 559 418 q 486 360 501 369 z "},"Z":{"ha":819,"x_min":34,"x_max":785,"o":"m 45 850 l 45 990 l 595 990 q 692 962 648 990 q 760 886 736 934 q 779 781 785 835 q 730 683 772 721 l 203 221 q 182 168 173 195 q 224 140 191 140 l 785 140 l 785 0 l 224 0 q 127 28 171 0 q 59 104 82 56 q 40 210 34 155 q 89 307 46 270 l 619 772 q 637 822 646 795 q 595 850 628 850 l 45 850 z "},"[":{"ha":475,"x_min":68,"x_max":441,"o":"m 441 1024 l 441 898 l 208 898 l 208 92 l 441 92 l 441 -34 l 68 -34 l 68 1024 l 441 1024 z "},"\\":{"ha":481,"x_min":34,"x_max":448,"o":"m 323 -1 l 34 992 l 158 992 l 448 -1 l 323 -1 z "},"]":{"ha":475,"x_min":34,"x_max":408,"o":"m 408 1024 l 408 -34 l 34 -34 l 34 92 l 268 92 l 268 898 l 34 898 l 34 1024 l 408 1024 z "},"^":{"ha":766,"x_min":68,"x_max":699,"o":"m 68 403 l 319 950 q 384 990 338 991 q 446 950 428 990 q 699 403 450 943 l 545 403 l 383 753 l 222 403 l 68 403 z "},"_":{"ha":652,"x_min":-7,"x_max":659,"o":"m -7 -133 l -7 0 l 659 0 l 659 -133 l -7 -133 z "},"`":{"ha":377,"x_min":7,"x_max":370,"o":"m 191 985 l 370 762 l 222 762 l 7 985 l 191 985 z "},"a":{"ha":822,"x_min":47,"x_max":754,"o":"m 547 172 l 547 14 q 439 -16 496 -9 q 254 8 341 -27 q 107 125 161 45 q 47 353 47 214 q 145 625 47 526 q 401 720 241 720 q 657 624 560 720 q 754 367 754 527 l 754 0 l 614 0 l 614 367 q 557 526 614 469 q 401 581 503 581 q 244 526 300 581 q 187 353 187 469 q 244 182 187 239 q 401 126 300 126 q 547 172 493 126 z "},"b":{"ha":822,"x_min":68,"x_max":774,"o":"m 275 530 l 275 688 q 383 718 326 710 q 568 694 481 729 q 715 576 661 657 q 774 349 774 488 q 677 77 774 176 q 421 -18 581 -18 q 165 78 262 -18 q 68 335 68 175 l 68 990 l 208 990 l 208 335 q 264 176 208 233 q 421 121 319 121 q 578 176 522 121 q 635 349 635 233 q 578 520 635 463 q 421 576 522 576 q 275 530 329 576 z "},"c":{"ha":617,"x_min":47,"x_max":583,"o":"m 583 581 l 541 581 q 283 553 350 581 q 216 497 238 534 q 187 353 187 450 q 214 212 187 258 q 277 157 235 176 q 541 126 345 125 l 583 126 l 583 -14 l 541 -14 q 220 29 314 -14 q 94 142 136 68 q 47 353 47 222 q 96 570 47 489 q 229 682 142 644 q 541 720 322 721 l 583 720 l 583 581 z "},"d":{"ha":822,"x_min":47,"x_max":754,"o":"m 547 530 q 401 576 493 576 q 244 520 300 576 q 187 349 187 463 q 244 176 187 233 q 401 121 300 121 q 557 176 503 121 q 614 335 614 233 l 614 990 l 754 990 l 754 335 q 657 78 754 175 q 401 -18 560 -18 q 145 77 241 -18 q 47 349 47 176 q 107 576 47 488 q 254 694 161 657 q 439 718 341 729 q 547 688 496 710 l 547 530 z "},"e":{"ha":786,"x_min":41,"x_max":755,"o":"m 591 480 q 543 536 571 514 q 399 577 488 577 q 239 521 296 577 q 181 364 182 464 q 216 225 182 288 q 237 198 225 210 q 393 140 293 141 l 683 140 l 683 0 l 392 0 q 138 100 233 3 q 41 359 41 199 q 140 620 41 520 q 399 717 237 717 q 627 647 535 717 q 748 452 720 576 q 741 399 755 425 q 700 366 727 374 l 284 247 l 245 382 l 591 480 z "},"f":{"ha":562,"x_min":68,"x_max":530,"o":"m 522 639 l 522 499 l 208 499 l 208 0 l 68 0 l 68 637 q 164 892 68 795 q 416 990 259 989 l 530 990 l 530 850 l 418 850 q 264 795 318 850 q 208 639 208 739 l 522 639 z "},"g":{"ha":822,"x_min":47,"x_max":754,"o":"m 551 180 l 551 25 q 401 -1 483 -1 q 145 96 241 -1 q 47 353 47 193 q 145 624 47 526 q 401 720 241 720 q 656 624 560 720 q 754 353 754 526 l 754 69 q 657 -187 754 -90 q 402 -284 561 -283 l 184 -284 l 184 -144 l 402 -144 q 558 -89 503 -144 q 614 60 612 -35 q 612 58 613 59 l 614 60 l 614 317 q 614 323 614 320 l 614 353 q 557 525 614 468 q 401 580 503 580 q 244 525 300 580 q 187 353 187 468 q 244 195 187 252 q 401 139 300 139 q 551 180 495 139 z "},"h":{"ha":815,"x_min":68,"x_max":747,"o":"m 208 660 q 408 720 292 720 q 650 625 553 720 q 747 367 747 526 l 747 0 l 608 0 l 608 367 q 551 526 608 469 q 408 581 496 581 q 264 526 320 581 q 208 367 208 469 l 208 0 l 68 0 l 68 990 l 208 990 l 208 660 z "},"i":{"ha":296,"x_min":78,"x_max":218,"o":"m 218 0 l 78 0 l 78 707 l 218 707 l 218 0 m 218 850 l 78 850 l 78 990 l 218 990 l 218 850 z "},"j":{"ha":354,"x_min":-92,"x_max":273,"o":"m -92 -283 l -92 -144 l -80 -144 q 76 -88 21 -144 q 133 70 133 -32 l 133 707 l 273 707 l 273 70 q 175 -186 273 -89 q -80 -283 79 -283 l -92 -283 m 273 850 l 133 850 l 133 990 l 273 990 l 273 850 z "},"k":{"ha":688,"x_min":68,"x_max":686,"o":"m 208 0 l 68 0 l 68 990 l 208 990 l 208 0 m 494 0 l 267 241 q 254 256 261 247 l 253 256 q 216 353 216 298 q 253 451 216 408 l 254 451 q 267 465 261 460 l 493 707 l 684 707 l 358 359 q 355 353 355 356 q 358 348 355 351 l 686 0 l 494 0 z "},"l":{"ha":302,"x_min":81,"x_max":221,"o":"m 221 0 l 81 0 l 81 990 l 221 990 l 221 0 z "},"m":{"ha":1259,"x_min":68,"x_max":1192,"o":"m 629 603 q 644 621 637 612 q 876 720 731 720 q 1107 621 1021 720 q 1192 367 1192 524 l 1192 0 l 1052 0 l 1052 367 q 1002 529 1052 472 q 876 581 957 581 q 749 529 794 581 q 700 367 700 472 l 700 0 l 559 0 l 559 367 q 510 529 559 472 q 384 581 465 581 q 258 529 302 581 q 208 367 208 472 l 208 0 l 68 0 l 68 367 q 152 621 68 524 q 384 720 239 720 q 615 621 528 720 q 629 603 623 612 z "},"n":{"ha":842,"x_min":68,"x_max":774,"o":"m 774 0 l 635 0 l 635 367 q 578 526 635 469 q 421 581 523 581 q 264 526 320 581 q 208 367 208 469 l 208 0 l 68 0 l 68 367 q 165 625 68 526 q 421 720 262 720 q 677 625 581 720 q 774 367 774 526 l 774 0 z "},"o":{"ha":802,"x_min":47,"x_max":754,"o":"m 401 581 q 244 526 300 581 q 187 353 187 469 q 244 182 187 239 q 401 126 300 126 q 557 182 503 126 q 614 353 614 239 q 557 526 614 469 q 401 581 503 581 m 145 625 q 401 720 241 720 q 656 625 560 720 q 754 353 754 526 q 656 83 754 180 q 401 -14 560 -14 q 145 83 241 -14 q 47 353 47 180 q 145 625 47 526 z "},"p":{"ha":822,"x_min":68,"x_max":774,"o":"m 275 158 q 421 113 329 113 q 578 168 522 113 q 635 340 635 225 q 578 526 635 469 q 421 581 522 581 q 264 526 319 581 q 208 367 208 469 l 208 -302 l 68 -302 l 68 367 q 165 624 68 527 q 421 720 262 720 q 677 625 581 720 q 774 340 774 526 q 715 112 774 200 q 568 -5 661 31 q 383 -29 481 -41 q 275 0 326 -22 l 275 158 z "},"q":{"ha":822,"x_min":47,"x_max":754,"o":"m 547 158 l 547 0 q 439 -29 496 -22 q 254 -5 341 -41 q 107 112 161 31 q 47 340 47 200 q 145 625 47 526 q 401 720 241 720 q 657 624 560 720 q 754 367 754 527 l 754 -302 l 614 -302 l 614 367 q 557 526 614 469 q 401 581 503 581 q 244 526 300 581 q 187 340 187 469 q 244 168 187 225 q 401 113 300 113 q 547 158 493 113 z "},"r":{"ha":505,"x_min":68,"x_max":489,"o":"m 489 707 l 489 567 l 467 567 q 254 505 313 567 q 208 353 208 458 l 208 0 l 68 0 l 68 353 q 153 602 68 513 q 467 707 254 707 l 489 707 z "},"s":{"ha":640,"x_min":34,"x_max":606,"o":"m 581 707 l 581 567 l 320 567 q 201 541 241 567 q 174 495 174 523 q 222 442 174 458 q 328 423 251 432 q 519 378 467 407 q 606 212 606 331 q 515 50 606 109 q 320 0 440 0 l 54 0 l 54 140 l 320 140 q 439 166 399 140 q 467 212 467 184 q 418 265 467 248 q 312 284 389 275 q 121 328 173 300 q 34 495 34 376 q 125 658 34 598 q 320 707 200 707 l 581 707 z "},"t":{"ha":464,"x_min":83,"x_max":448,"o":"m 223 567 l 223 353 q 280 195 223 252 q 436 140 335 140 l 448 140 l 448 0 l 436 0 q 181 97 277 1 q 83 353 83 195 l 83 990 l 223 990 l 223 707 l 444 707 l 444 567 l 223 567 z "},"u":{"ha":842,"x_min":68,"x_max":774,"o":"m 635 707 l 774 707 l 774 340 q 677 83 774 180 q 421 -14 581 -14 q 165 83 262 -14 q 68 340 68 180 l 68 707 l 208 707 l 208 340 q 264 182 208 239 q 421 126 320 126 q 578 182 523 126 q 635 340 635 239 l 635 707 z "},"v":{"ha":770,"x_min":1,"x_max":769,"o":"m 769 707 l 552 100 q 485 21 532 50 q 386 -7 440 -7 q 286 21 331 -7 q 219 100 239 50 l 1 707 l 152 707 l 342 168 q 386 134 358 134 q 427 165 414 134 l 618 707 l 769 707 z "},"w":{"ha":1144,"x_min":1,"x_max":1143,"o":"m 1143 707 l 1023 128 q 966 34 1010 68 q 862 1 923 1 q 760 33 802 1 q 700 123 717 66 l 600 471 q 572 500 592 500 q 545 471 553 500 l 444 123 q 392 38 429 70 q 283 0 348 0 q 179 34 222 0 q 121 128 134 68 l 1 707 l 144 707 l 256 166 q 283 140 262 140 q 311 167 303 140 l 410 510 q 468 602 427 567 q 572 641 514 641 q 665 614 625 641 q 734 510 713 581 l 833 168 q 862 140 841 140 q 888 166 882 140 l 1001 707 l 1143 707 z "},"x":{"ha":825,"x_min":7,"x_max":819,"o":"m 173 0 l 337 252 q 369 288 353 279 q 412 298 385 298 q 454 289 439 298 q 488 252 470 279 l 652 0 l 819 0 l 657 247 q 560 353 610 320 q 657 460 610 387 l 819 707 l 652 707 l 488 454 q 454 418 470 427 q 412 409 439 409 q 369 418 385 409 q 337 454 353 428 l 173 707 l 7 707 l 168 460 q 264 353 215 387 q 168 247 215 320 l 7 0 l 173 0 z "},"y":{"ha":788,"x_min":68,"x_max":720,"o":"m 581 54 q 394 -14 505 -14 q 165 83 255 -14 q 68 340 68 180 l 68 707 l 208 707 l 208 340 q 264 182 208 239 q 394 126 313 126 q 524 182 475 126 q 581 340 581 239 l 581 707 l 720 707 l 720 70 q 623 -186 720 -89 q 368 -283 527 -283 l 150 -283 l 150 -144 l 368 -144 q 524 -88 469 -144 q 581 54 576 -37 z "},"z":{"ha":709,"x_min":27,"x_max":682,"o":"m 55 568 l 55 709 l 550 709 q 620 688 588 709 q 667 631 652 667 q 675 557 682 595 q 639 492 667 519 l 192 140 l 677 140 l 677 0 l 159 0 q 89 22 121 0 q 42 79 57 43 q 35 152 27 115 q 70 218 42 190 l 517 568 l 55 568 z "},"{":{"ha":414,"x_min":34,"x_max":380,"o":"m 380 1024 l 380 898 l 297 898 q 264 895 275 898 l 262 885 q 258 825 258 863 l 256 748 q 250 663 254 689 l 250 663 q 231 589 243 623 q 200 528 219 554 q 170 494 187 510 q 220 425 201 464 q 249 325 239 385 q 258 158 258 267 q 260 113 258 123 q 264 90 261 99 q 297 88 276 88 l 380 88 l 380 -38 l 311 -38 q 243 -31 273 -38 q 181 -2 205 -23 q 147 47 159 17 q 134 100 138 70 q 132 157 133 115 q 124 308 132 262 q 106 374 118 351 l 106 374 q 79 410 95 395 q 34 437 62 426 l 34 548 q 73 572 58 560 q 96 596 87 584 q 112 628 105 608 q 125 681 120 650 q 130 751 128 701 l 132 825 q 138 906 132 873 q 168 975 146 950 q 235 1015 192 1003 q 311 1024 267 1024 l 380 1024 z "},"|":{"ha":343,"x_min":102,"x_max":241,"o":"m 102 990 l 241 990 l 241 0 l 102 0 l 102 990 z "},"}":{"ha":414,"x_min":34,"x_max":380,"o":"m 104 1024 q 180 1015 148 1024 q 247 975 222 1003 q 277 906 269 950 q 283 825 283 873 l 285 751 q 290 681 286 701 q 302 628 294 650 q 318 596 309 608 q 341 572 327 584 q 380 548 357 560 l 380 437 q 336 410 353 426 q 309 374 319 395 l 308 374 q 290 308 296 351 q 282 157 283 262 q 280 100 281 115 q 267 47 277 70 q 233 -2 256 17 q 171 -31 210 -23 q 104 -38 142 -38 l 34 -38 l 34 88 l 117 88 q 150 90 138 88 q 155 113 153 99 q 157 158 156 123 q 165 325 157 267 q 195 425 175 385 q 244 494 214 464 q 214 528 227 510 q 183 589 195 554 q 165 663 171 623 l 165 663 q 159 748 161 689 l 157 825 q 153 885 157 863 l 151 895 q 117 898 139 898 l 34 898 l 34 1024 l 104 1024 z "},"~":{"ha":705,"x_min":60,"x_max":649,"o":"m 649 452 q 505 393 567 399 q 357 429 444 387 q 202 458 278 469 q 60 394 133 448 l 60 524 q 202 581 133 572 q 357 552 278 592 q 505 515 444 509 q 649 581 567 522 l 649 452 z "},"¡":{"ha":275,"x_min":68,"x_max":208,"o":"m 208 -283 l 68 -283 l 68 205 l 95 435 l 180 435 l 208 205 l 208 -283 m 208 567 l 68 567 l 68 707 l 208 707 l 208 567 z "},"¢":{"ha":659,"x_min":47,"x_max":604,"o":"m 366 699 l 366 927 l 490 927 l 490 706 q 541 707 515 707 l 604 707 l 604 567 l 541 567 q 283 539 350 568 q 216 484 238 520 q 187 353 187 437 q 214 226 187 272 q 277 170 235 189 q 541 140 345 139 l 604 140 l 604 0 l 541 0 q 490 1 515 0 l 490 -208 l 366 -208 l 366 8 q 220 43 272 18 q 94 156 136 81 q 47 353 47 235 q 96 556 47 475 q 229 668 142 631 q 366 699 279 689 z "},"£":{"ha":871,"x_min":41,"x_max":846,"o":"m 41 418 l 41 550 l 190 550 q 173 682 173 621 l 172 682 q 214 856 172 779 q 338 975 258 936 q 469 1003 397 1003 q 667 923 583 1003 q 758 730 745 848 l 766 656 l 626 641 l 618 727 q 572 831 611 792 q 469 871 528 871 q 397 857 429 871 q 336 798 358 838 q 313 696 313 755 l 313 696 q 338 550 313 622 l 604 550 l 604 418 l 374 418 q 349 250 377 333 q 297 153 334 208 q 465 129 370 154 q 616 101 561 99 q 715 134 663 103 l 777 169 l 846 56 l 785 20 q 621 -31 703 -27 q 425 3 542 -33 q 309 21 361 23 q 158 -22 239 18 q 112 -31 137 -35 q 70 -8 87 -28 q 52 45 50 15 q 75 96 54 75 q 216 299 178 189 q 234 418 236 359 l 41 418 z "},"¤":{"ha":877,"x_min":68,"x_max":809,"o":"m 439 723 q 604 654 536 723 q 673 488 673 586 q 604 323 673 391 q 439 255 536 255 q 273 323 341 255 q 204 488 204 391 q 273 654 204 586 q 439 723 341 723 m 141 711 q 68 489 68 615 q 142 267 68 363 l 78 204 l 153 129 l 216 192 q 439 118 312 118 q 661 192 565 118 l 724 130 l 799 205 l 736 268 q 809 489 809 363 q 736 711 809 615 l 799 774 l 724 849 l 661 786 q 439 860 565 860 q 216 787 312 860 l 154 849 l 79 774 l 141 711 z "},"¥":{"ha":869,"x_min":68,"x_max":801,"o":"m 214 203 l 214 323 l 364 323 l 364 392 l 214 392 l 214 512 l 342 512 l 105 888 l 68 947 l 186 1021 l 223 962 l 434 628 l 646 962 l 683 1021 l 801 947 l 764 888 l 526 512 l 655 512 l 655 392 l 505 392 l 505 323 l 655 323 l 655 203 l 505 203 l 505 0 l 364 0 l 364 203 l 214 203 z "},"¦":{"ha":343,"x_min":102,"x_max":241,"o":"m 102 1017 l 241 1017 l 241 442 l 102 442 l 102 1017 m 102 210 l 241 210 l 241 -366 l 102 -366 l 102 210 z "},"§":{"ha":625,"x_min":68,"x_max":559,"o":"m 325 312 q 412 348 376 315 q 448 427 448 381 q 406 505 448 476 q 309 543 377 524 q 216 507 254 541 q 179 427 179 473 q 224 349 179 378 q 325 312 253 331 m 144 593 q 68 759 68 647 q 142 924 68 856 q 314 989 214 989 q 485 924 414 989 q 559 759 559 856 l 433 759 q 401 830 433 800 q 314 863 365 863 q 227 830 262 863 q 194 759 194 800 q 237 689 194 714 q 330 656 262 674 q 488 591 445 623 q 559 427 559 537 q 485 262 559 330 l 484 261 q 559 94 559 208 q 485 -69 559 -2 q 314 -135 414 -135 q 142 -69 214 -135 q 68 94 68 -2 l 194 94 q 227 24 194 54 q 314 -8 262 -8 q 401 24 365 -8 q 433 94 433 54 q 390 167 433 140 q 296 201 365 182 q 139 264 182 233 q 68 427 68 318 q 142 591 68 524 l 144 593 z "},"¨":{"ha":550,"x_min":68,"x_max":482,"o":"m 68 943 l 208 943 l 208 803 l 68 803 l 68 943 m 342 943 l 482 943 l 482 803 l 342 803 l 342 943 z "},"©":{"ha":1159,"x_min":68,"x_max":1091,"o":"m 580 1000 q 941 850 791 1000 q 1091 488 1091 700 q 941 126 1091 276 q 580 -24 791 -24 q 218 126 368 -24 q 68 488 68 276 q 218 850 68 700 q 580 1000 368 1000 m 580 930 q 267 801 397 930 q 137 488 137 671 q 267 175 137 304 q 580 45 397 45 q 892 175 763 45 q 1022 488 1022 304 q 892 801 1022 671 q 580 930 763 930 m 642 426 l 726 426 l 726 384 q 689 275 726 312 q 580 237 651 237 q 471 275 508 237 q 433 384 433 312 l 433 593 q 471 701 433 664 q 580 739 508 739 q 689 701 651 739 q 726 593 726 664 l 726 550 l 642 550 l 642 593 q 629 642 642 629 q 580 654 616 654 q 530 642 543 654 q 517 593 517 629 l 517 384 q 530 334 517 347 q 580 321 543 321 q 629 334 616 321 q 642 384 642 347 l 642 426 z "},"«":{"ha":723,"x_min":68,"x_max":656,"o":"m 68 367 l 249 663 l 380 663 l 200 367 l 380 71 l 249 71 l 68 367 m 343 367 l 524 663 l 656 663 l 475 367 l 656 71 l 524 71 l 343 367 z "},"¬":{"ha":871,"x_min":68,"x_max":802,"o":"m 662 427 l 68 427 l 68 560 l 802 560 l 802 149 l 662 149 l 662 427 z "},"®":{"ha":1159,"x_min":68,"x_max":1091,"o":"m 580 1000 q 941 850 791 1000 q 1091 488 1091 700 q 941 126 1091 276 q 580 -24 791 -24 q 218 126 368 -24 q 68 488 68 276 q 218 850 68 700 q 580 1000 368 1000 m 580 930 q 267 801 397 930 q 137 488 137 671 q 267 175 137 304 q 580 45 397 45 q 892 175 763 45 q 1022 488 1022 304 q 892 801 1022 671 q 580 930 763 930 m 596 739 q 705 701 667 739 q 743 593 743 664 l 743 568 q 705 458 743 496 q 661 431 686 440 l 764 237 l 669 237 l 571 421 l 534 421 l 534 237 l 450 237 l 450 739 l 596 739 m 534 505 l 596 505 q 646 518 633 505 q 659 568 659 530 l 659 593 q 646 642 659 629 q 596 654 633 654 l 534 654 l 534 505 z "},"¯":{"ha":598,"x_min":68,"x_max":476,"o":"m 68 844 l 68 977 l 476 977 l 476 844 l 68 844 z "},"°":{"ha":632,"x_min":68,"x_max":564,"o":"m 316 990 q 492 918 419 990 q 564 742 564 845 q 492 567 564 640 q 316 494 419 494 q 140 567 213 494 q 68 742 68 640 q 140 918 68 845 q 316 990 213 990 m 407 833 q 316 870 369 870 q 225 833 263 870 q 188 742 188 795 q 225 652 188 689 q 316 614 263 614 q 407 652 369 614 q 444 742 444 689 q 407 833 444 795 z "},"±":{"ha":742,"x_min":68,"x_max":674,"o":"m 68 484 l 68 610 l 301 610 l 301 850 l 441 850 l 441 610 l 674 610 l 674 484 l 441 484 l 441 244 l 301 244 l 301 484 l 68 484 m 68 0 l 68 133 l 666 133 l 666 0 l 68 0 z "},"´":{"ha":377,"x_min":7,"x_max":370,"o":"m 370 985 l 155 762 l 7 762 l 186 985 l 370 985 z "},"µ":{"ha":842,"x_min":68,"x_max":774,"o":"m 208 102 l 208 -283 l 68 -283 l 68 707 l 208 707 l 208 353 q 264 195 208 252 q 421 140 320 140 q 578 195 523 140 q 635 352 634 252 l 635 707 l 774 707 l 774 0 l 635 0 l 635 102 q 421 0 555 0 q 208 102 288 0 z "},"¶":{"ha":901,"x_min":34,"x_max":862,"o":"m 566 904 l 566 -255 l 460 -255 l 460 360 l 355 360 q 128 454 222 360 q 34 682 34 549 q 128 909 34 815 q 355 1004 222 1004 l 862 1004 l 862 904 l 778 904 l 778 -255 l 671 -255 l 671 904 l 566 904 z "},"·":{"ha":414,"x_min":68,"x_max":186,"o":"m 68 554 l 186 554 l 186 435 l 68 435 l 68 554 z "},"¸":{"ha":377,"x_min":113,"x_max":353,"o":"m 353 -54 l 231 -294 l 113 -294 l 204 -54 l 353 -54 z "},"»":{"ha":723,"x_min":68,"x_max":656,"o":"m 199 71 l 68 71 l 248 367 l 68 663 l 199 663 l 380 367 l 199 71 m 475 71 l 343 71 l 524 367 l 343 663 l 475 663 l 656 367 l 475 71 z "},"¼":{"ha":1398,"x_min":68,"x_max":1351,"o":"m 369 262 l 239 262 l 239 882 l 68 882 l 68 1012 l 304 1012 q 350 993 331 1012 q 369 947 369 974 l 369 262 m 867 1067 l 463 -130 l 366 -97 l 770 1100 l 867 1067 m 1217 0 l 1088 0 l 1088 152 l 772 152 l 772 152 q 732 167 749 152 q 708 210 711 183 q 722 258 705 237 l 1099 722 q 1153 749 1119 749 q 1198 730 1179 749 q 1217 684 1217 711 l 1217 281 l 1351 281 l 1351 152 l 1217 152 l 1217 0 m 895 281 l 1088 281 l 1088 511 l 895 281 z "},"½":{"ha":1421,"x_min":54,"x_max":1357,"o":"m 355 262 l 226 262 l 226 882 l 54 882 l 54 1012 l 291 1012 q 336 993 317 1012 q 355 947 355 974 l 355 262 m 826 1067 l 422 -130 l 326 -97 l 730 1100 l 826 1067 m 800 620 l 800 749 l 1065 749 q 1267 696 1190 749 q 1357 530 1357 635 q 1268 357 1357 406 q 1073 311 1215 328 q 956 288 987 300 q 903 220 903 267 l 903 130 l 1357 130 l 1357 0 l 838 0 q 792 19 811 0 q 773 65 773 38 l 773 220 q 862 393 773 343 q 1057 439 916 422 q 1175 462 1143 449 q 1227 530 1227 483 q 1194 590 1227 567 q 1065 620 1150 620 l 800 620 z "},"¾":{"ha":1609,"x_min":68,"x_max":1566,"o":"m 68 882 l 68 1012 l 426 1012 q 577 954 519 1012 q 635 802 635 895 q 589 664 635 720 q 652 492 652 602 q 422 262 652 262 l 68 262 l 68 392 l 422 392 q 522 492 522 392 q 499 570 522 547 q 422 593 476 593 l 68 593 l 68 723 l 426 723 q 486 743 465 723 q 506 802 506 763 q 488 859 506 840 q 426 882 464 882 l 68 882 m 1082 1067 l 677 -130 l 581 -97 l 985 1100 l 1082 1067 m 1432 0 l 1303 0 l 1303 152 l 987 152 l 987 152 q 947 167 964 152 q 923 210 926 183 q 937 258 920 237 l 1314 722 q 1368 749 1334 749 q 1413 730 1394 749 q 1432 684 1432 711 l 1432 281 l 1566 281 l 1566 152 l 1432 152 l 1432 0 m 1110 281 l 1303 281 l 1303 511 l 1110 281 z "},"¿":{"ha":707,"x_min":68,"x_max":639,"o":"m 639 1 q 555 -200 639 -117 q 353 -283 471 -283 q 152 -200 235 -283 q 68 1 68 -117 q 132 208 68 136 q 264 296 169 251 l 268 297 q 336 368 336 330 l 336 474 l 476 474 l 476 368 q 431 237 476 284 q 327 171 403 207 l 323 169 q 245 118 267 142 q 208 1 208 77 q 251 -101 208 -58 q 353 -144 293 -144 q 456 -101 414 -144 q 499 1 499 -58 l 639 1 m 476 567 l 336 567 l 336 707 l 476 707 l 476 567 z "},"À":{"ha":882,"x_min":7,"x_max":875,"o":"m 608 387 l 479 810 q 440 850 465 850 q 402 810 415 850 l 155 0 l 7 0 l 269 853 q 332 949 289 913 q 440 990 380 990 q 549 949 500 990 q 612 853 591 913 l 875 0 l 727 0 l 648 258 l 296 258 l 336 387 l 608 387 m 383 1269 l 562 1046 l 414 1046 l 199 1269 l 383 1269 z "},"Á":{"ha":882,"x_min":7,"x_max":875,"o":"m 608 387 l 479 810 q 440 850 465 850 q 402 810 415 850 l 155 0 l 7 0 l 269 853 q 332 949 289 913 q 440 990 380 990 q 549 949 500 990 q 612 853 591 913 l 875 0 l 727 0 l 648 258 l 296 258 l 336 387 l 608 387 m 683 1269 l 467 1046 l 319 1046 l 498 1269 l 683 1269 z "},"Â":{"ha":882,"x_min":7,"x_max":875,"o":"m 608 387 l 479 810 q 440 850 465 850 q 402 810 415 850 l 155 0 l 7 0 l 269 853 q 332 949 289 913 q 440 990 380 990 q 549 949 500 990 q 612 853 591 913 l 875 0 l 727 0 l 648 258 l 296 258 l 336 387 l 608 387 m 205 1013 l 384 1257 q 441 1287 405 1287 q 498 1259 477 1287 l 677 1013 l 530 1013 l 441 1145 l 353 1013 l 205 1013 z "},"Ã":{"ha":882,"x_min":7,"x_max":875,"o":"m 608 387 l 479 810 q 440 850 465 850 q 402 810 415 850 l 155 0 l 7 0 l 269 853 q 332 949 289 913 q 440 990 380 990 q 549 949 500 990 q 612 853 591 913 l 875 0 l 727 0 l 648 258 l 296 258 l 336 387 l 608 387 m 302 1038 l 191 1061 l 203 1116 q 250 1198 212 1164 q 338 1234 288 1234 q 465 1189 385 1234 q 542 1156 523 1156 q 559 1163 552 1156 q 570 1182 567 1168 l 581 1238 l 691 1215 l 680 1160 q 633 1076 669 1108 q 541 1044 594 1043 q 410 1090 492 1044 q 338 1121 355 1121 q 326 1115 333 1121 q 313 1094 315 1106 l 302 1038 z "},"Ä":{"ha":882,"x_min":7,"x_max":875,"o":"m 608 387 l 479 810 q 440 850 465 850 q 402 810 415 850 l 155 0 l 7 0 l 269 853 q 332 949 289 913 q 440 990 380 990 q 549 949 500 990 q 612 853 591 913 l 875 0 l 727 0 l 648 258 l 296 258 l 336 387 l 608 387 m 216 1226 l 356 1226 l 356 1086 l 216 1086 l 216 1226 m 491 1226 l 631 1226 l 631 1086 l 491 1086 l 491 1226 z "},"Å":{"ha":882,"x_min":7,"x_max":875,"o":"m 608 387 l 479 810 q 440 850 465 850 q 402 810 415 850 l 155 0 l 7 0 l 269 853 q 332 949 289 913 q 440 990 380 990 q 549 949 500 990 q 612 853 591 913 l 875 0 l 727 0 l 648 258 l 296 258 l 336 387 l 608 387 m 441 1279 q 543 1237 500 1279 q 585 1135 585 1194 q 543 1032 585 1075 q 441 990 500 990 q 338 1032 381 990 q 296 1135 296 1075 q 338 1237 296 1194 q 441 1279 381 1279 m 441 1198 q 395 1180 414 1198 q 377 1135 377 1162 q 396 1089 377 1108 q 441 1071 414 1071 q 486 1089 467 1071 q 505 1135 505 1108 q 486 1180 505 1161 q 441 1198 467 1198 z "},"Æ":{"ha":1284,"x_min":7,"x_max":1253,"o":"m 848 989 l 1253 989 l 1253 849 l 836 849 q 806 836 819 849 q 793 806 793 823 l 793 585 l 1233 585 l 1233 458 l 793 458 l 793 180 q 806 150 793 163 q 836 137 819 137 l 1248 137 l 1248 -3 l 836 -3 q 706 51 760 -3 q 652 180 652 104 l 652 369 l 267 369 l 155 0 l 7 0 l 269 853 q 332 949 289 913 q 440 990 380 990 l 848 990 l 848 989 m 652 498 l 652 806 q 657 850 652 829 l 440 850 q 402 810 415 850 l 307 498 l 652 498 z "},"Ç":{"ha":724,"x_min":47,"x_max":704,"o":"m 704 990 l 704 851 l 638 851 q 356 808 457 852 q 187 498 187 734 q 356 186 187 262 q 638 140 460 139 l 704 140 l 704 0 l 638 0 q 260 64 390 0 q 47 498 47 169 q 260 930 47 827 q 638 990 387 991 l 704 990 m 621 -54 l 499 -294 l 381 -294 l 473 -54 l 621 -54 z "},"È":{"ha":779,"x_min":68,"x_max":696,"o":"m 669 589 l 669 462 l 208 462 l 208 184 q 221 153 208 166 q 252 140 234 140 l 690 140 l 690 0 l 252 0 q 121 54 176 0 q 68 184 68 108 l 68 809 q 121 939 68 885 q 252 993 176 993 l 696 993 l 696 852 l 252 852 q 221 840 234 852 q 208 809 208 827 l 208 589 l 669 589 m 345 1269 l 524 1046 l 376 1046 l 160 1269 l 345 1269 z "},"É":{"ha":779,"x_min":68,"x_max":696,"o":"m 669 589 l 669 462 l 208 462 l 208 184 q 221 153 208 166 q 252 140 234 140 l 690 140 l 690 0 l 252 0 q 121 54 176 0 q 68 184 68 108 l 68 809 q 121 939 68 885 q 252 993 176 993 l 696 993 l 696 852 l 252 852 q 221 840 234 852 q 208 809 208 827 l 208 589 l 669 589 m 644 1269 l 429 1046 l 281 1046 l 460 1269 l 644 1269 z "},"Ê":{"ha":779,"x_min":68,"x_max":696,"o":"m 669 589 l 669 462 l 208 462 l 208 184 q 221 153 208 166 q 252 140 234 140 l 690 140 l 690 0 l 252 0 q 121 54 176 0 q 68 184 68 108 l 68 809 q 121 939 68 885 q 252 993 176 993 l 696 993 l 696 852 l 252 852 q 221 840 234 852 q 208 809 208 827 l 208 589 l 669 589 m 167 1047 l 345 1291 q 403 1321 366 1321 q 459 1293 438 1321 l 638 1047 l 491 1047 l 403 1179 l 315 1047 l 167 1047 z "},"Ë":{"ha":779,"x_min":68,"x_max":696,"o":"m 669 589 l 669 462 l 208 462 l 208 184 q 221 153 208 166 q 252 140 234 140 l 690 140 l 690 0 l 252 0 q 121 54 176 0 q 68 184 68 108 l 68 809 q 121 939 68 885 q 252 993 176 993 l 696 993 l 696 852 l 252 852 q 221 840 234 852 q 208 809 208 827 l 208 589 l 669 589 m 195 1226 l 334 1226 l 334 1086 l 195 1086 l 195 1226 m 469 1226 l 609 1226 l 609 1086 l 469 1086 l 469 1226 z "},"Ì":{"ha":302,"x_min":-91,"x_max":273,"o":"m 221 0 l 81 0 l 81 990 l 221 990 l 221 0 m 94 1269 l 273 1046 l 125 1046 l -91 1269 l 94 1269 z "},"Í":{"ha":302,"x_min":30,"x_max":393,"o":"m 221 0 l 81 0 l 81 990 l 221 990 l 221 0 m 393 1269 l 178 1046 l 30 1046 l 209 1269 l 393 1269 z "},"Î":{"ha":302,"x_min":-84,"x_max":387,"o":"m 221 0 l 81 0 l 81 990 l 221 990 l 221 0 m -84 1047 l 94 1291 q 152 1321 115 1321 q 208 1293 187 1321 l 387 1047 l 240 1047 l 152 1179 l 64 1047 l -84 1047 z "},"Ï":{"ha":302,"x_min":-56,"x_max":359,"o":"m 221 0 l 81 0 l 81 990 l 221 990 l 221 0 m -56 1226 l 83 1226 l 83 1086 l -56 1086 l -56 1226 m 218 1226 l 358 1226 l 358 1086 l 218 1086 l 218 1226 z "},"Ð":{"ha":977,"x_min":7,"x_max":929,"o":"m 129 563 l 129 809 q 182 939 129 885 q 313 993 237 993 l 506 993 q 758 906 652 993 q 897 693 852 827 q 929 496 929 600 q 897 300 929 394 q 758 87 852 165 q 506 0 652 0 l 313 0 q 182 54 237 0 q 129 184 129 108 l 129 430 l 7 430 l 7 563 l 129 563 m 269 563 l 551 563 l 551 430 l 269 430 l 269 184 q 282 153 269 166 q 313 140 295 140 l 506 140 q 671 199 602 140 q 765 345 734 253 q 789 496 789 416 q 765 649 789 578 q 671 793 734 740 q 506 852 602 852 l 313 852 q 282 840 294 852 q 269 809 269 827 l 269 563 z "},"Ñ":{"ha":905,"x_min":68,"x_max":837,"o":"m 208 0 l 68 0 l 68 806 q 113 935 68 883 q 237 990 161 990 q 356 952 311 990 q 429 825 404 913 l 610 204 q 636 147 623 161 q 663 140 643 140 q 692 153 686 140 q 697 184 697 162 l 697 990 l 837 990 l 837 184 q 792 52 837 102 q 663 0 745 0 q 538 48 586 0 q 476 165 498 87 l 295 786 q 279 833 283 827 q 242 850 269 850 q 208 806 208 850 l 208 0 m 313 1038 l 203 1061 l 214 1116 q 261 1198 224 1164 q 349 1234 300 1234 q 477 1189 397 1234 q 553 1156 534 1156 q 571 1163 564 1156 q 581 1182 578 1168 l 592 1238 l 703 1215 l 692 1160 q 644 1076 681 1108 q 553 1044 606 1043 q 422 1090 504 1044 q 349 1121 367 1121 q 337 1115 345 1121 q 324 1094 327 1106 l 313 1038 z "},"Ò":{"ha":956,"x_min":68,"x_max":888,"o":"m 478 990 q 775 880 665 990 q 888 581 888 767 l 888 410 q 775 111 888 223 q 478 0 665 0 q 180 111 291 0 q 68 410 68 223 l 68 581 q 181 880 68 766 q 478 990 292 990 m 676 781 q 478 850 607 850 q 280 781 350 850 q 208 581 208 708 l 208 410 q 279 210 208 281 q 478 140 349 140 q 676 210 607 140 q 748 410 748 281 l 748 581 q 676 781 748 709 m 420 1269 l 600 1046 l 452 1046 l 236 1269 l 420 1269 z "},"Ó":{"ha":956,"x_min":68,"x_max":888,"o":"m 478 990 q 775 880 665 990 q 888 581 888 767 l 888 410 q 775 111 888 223 q 478 0 665 0 q 180 111 291 0 q 68 410 68 223 l 68 581 q 181 880 68 766 q 478 990 292 990 m 676 781 q 478 850 607 850 q 280 781 350 850 q 208 581 208 708 l 208 410 q 279 210 208 281 q 478 140 349 140 q 676 210 607 140 q 748 410 748 281 l 748 581 q 676 781 748 709 m 720 1269 l 505 1046 l 357 1046 l 536 1269 l 720 1269 z "},"Ô":{"ha":956,"x_min":68,"x_max":888,"o":"m 478 990 q 775 880 665 990 q 888 581 888 767 l 888 410 q 775 111 888 223 q 478 0 665 0 q 180 111 291 0 q 68 410 68 223 l 68 581 q 181 880 68 766 q 478 990 292 990 m 676 781 q 478 850 607 850 q 280 781 350 850 q 208 581 208 708 l 208 410 q 279 210 208 281 q 478 140 349 140 q 676 210 607 140 q 748 410 748 281 l 748 581 q 676 781 748 709 m 243 1047 l 421 1291 q 479 1321 442 1321 q 535 1293 514 1321 l 714 1047 l 567 1047 l 479 1179 l 391 1047 l 243 1047 z "},"Õ":{"ha":956,"x_min":68,"x_max":888,"o":"m 478 990 q 775 880 665 990 q 888 581 888 767 l 888 410 q 775 111 888 223 q 478 0 665 0 q 180 111 291 0 q 68 410 68 223 l 68 581 q 181 880 68 766 q 478 990 292 990 m 676 781 q 478 850 607 850 q 280 781 350 850 q 208 581 208 708 l 208 410 q 279 210 208 281 q 478 140 349 140 q 676 210 607 140 q 748 410 748 281 l 748 581 q 676 781 748 709 m 324 1038 l 214 1061 l 225 1116 q 272 1198 235 1164 q 360 1234 311 1234 q 488 1189 408 1234 q 564 1156 545 1156 q 582 1163 574 1156 q 592 1182 589 1168 l 603 1238 l 713 1215 l 703 1160 q 655 1076 692 1108 q 564 1044 616 1043 q 433 1090 515 1044 q 360 1121 378 1121 q 348 1115 355 1121 q 335 1094 338 1106 l 324 1038 z "},"Ö":{"ha":956,"x_min":68,"x_max":888,"o":"m 478 990 q 775 880 665 990 q 888 581 888 767 l 888 410 q 775 111 888 223 q 478 0 665 0 q 180 111 291 0 q 68 410 68 223 l 68 581 q 181 880 68 766 q 478 990 292 990 m 676 781 q 478 850 607 850 q 280 781 350 850 q 208 581 208 708 l 208 410 q 279 210 208 281 q 478 140 349 140 q 676 210 607 140 q 748 410 748 281 l 748 581 q 676 781 748 709 m 271 1226 l 410 1226 l 410 1086 l 271 1086 l 271 1226 m 545 1226 l 685 1226 l 685 1086 l 545 1086 l 545 1226 z "},"×":{"ha":742,"x_min":107,"x_max":635,"o":"m 201 166 l 112 256 l 277 420 l 107 590 l 206 689 l 376 519 l 541 684 l 630 595 l 465 430 l 635 260 l 536 161 l 366 331 l 201 166 z "},"Ø":{"ha":956,"x_min":68,"x_max":888,"o":"m 543 846 q 478 850 513 850 q 280 781 350 850 q 208 581 208 708 l 208 410 q 279 210 208 281 q 318 179 297 192 l 543 846 m 414 144 q 478 140 444 140 q 676 210 607 140 q 748 410 748 281 l 748 581 q 676 781 748 709 q 638 810 659 798 l 414 144 m 684 945 q 775 880 734 920 q 888 581 888 767 l 888 410 q 775 111 888 223 q 478 0 665 0 q 368 11 420 0 l 324 -120 l 228 -87 l 273 44 q 180 111 221 70 q 68 410 68 223 l 68 581 q 181 880 68 766 q 478 990 292 990 q 588 979 537 990 l 632 1109 l 728 1077 l 684 945 z "},"Ù":{"ha":911,"x_min":68,"x_max":843,"o":"m 703 990 l 843 990 l 843 410 q 736 120 843 234 q 455 0 625 0 q 189 105 299 0 q 68 410 68 221 l 68 990 l 208 990 l 208 410 q 286 206 208 280 q 455 140 355 140 q 635 215 564 140 q 703 410 703 289 l 703 990 m 397 1269 l 576 1046 l 429 1046 l 213 1269 l 397 1269 z "},"Ú":{"ha":911,"x_min":68,"x_max":843,"o":"m 703 990 l 843 990 l 843 410 q 736 120 843 234 q 455 0 625 0 q 189 105 299 0 q 68 410 68 221 l 68 990 l 208 990 l 208 410 q 286 206 208 280 q 455 140 355 140 q 635 215 564 140 q 703 410 703 289 l 703 990 m 698 1269 l 482 1046 l 334 1046 l 513 1269 l 698 1269 z "},"Û":{"ha":911,"x_min":68,"x_max":843,"o":"m 703 990 l 843 990 l 843 410 q 736 120 843 234 q 455 0 625 0 q 189 105 299 0 q 68 410 68 221 l 68 990 l 208 990 l 208 410 q 286 206 208 280 q 455 140 355 140 q 635 215 564 140 q 703 410 703 289 l 703 990 m 220 1047 l 398 1291 q 456 1321 419 1321 q 512 1293 491 1321 l 691 1047 l 544 1047 l 456 1179 l 368 1047 l 220 1047 z "},"Ü":{"ha":911,"x_min":68,"x_max":843,"o":"m 703 990 l 843 990 l 843 410 q 736 120 843 234 q 455 0 625 0 q 189 105 299 0 q 68 410 68 221 l 68 990 l 208 990 l 208 410 q 286 206 208 280 q 455 140 355 140 q 635 215 564 140 q 703 410 703 289 l 703 990 m 248 1226 l 388 1226 l 388 1086 l 248 1086 l 248 1226 m 523 1226 l 663 1226 l 663 1086 l 523 1086 l 523 1226 z "},"Ý":{"ha":831,"x_min":7,"x_max":825,"o":"m 486 360 l 486 0 l 346 0 l 346 359 q 314 382 330 368 q 244 478 271 418 l 7 990 l 154 990 l 374 522 q 415 481 392 481 q 457 522 437 481 l 677 990 l 825 990 l 587 478 q 517 382 559 418 q 486 360 501 369 m 658 1269 l 442 1046 l 294 1046 l 473 1269 l 658 1269 z "},"Þ":{"ha":857,"x_min":68,"x_max":833,"o":"m 208 656 l 208 335 l 536 335 q 656 372 618 335 q 693 499 693 410 q 656 618 693 581 q 536 656 618 656 l 208 656 m 208 796 l 536 796 q 755 718 676 796 q 833 499 833 640 q 755 280 833 358 q 536 201 676 201 l 208 201 l 208 0 l 68 0 l 68 990 l 208 990 l 208 796 z "},"ß":{"ha":753,"x_min":71,"x_max":725,"o":"m 71 0 l 71 682 q 102 850 71 772 q 336 990 167 990 q 516 944 448 990 q 576 880 555 918 q 597 795 597 841 q 545 643 597 722 q 501 576 511 592 q 493 541 492 559 q 562 477 498 519 q 673 379 642 420 q 725 212 725 310 q 650 56 725 119 q 480 -3 580 -3 q 311 55 378 -5 q 239 215 244 115 l 378 222 q 404 159 380 181 q 479 136 431 136 q 561 163 529 136 q 585 212 585 184 q 551 303 585 262 q 480 363 532 327 q 355 525 366 446 q 372 625 349 571 q 429 721 389 660 q 458 795 458 764 q 454 813 458 806 q 439 828 449 821 q 336 850 406 850 q 222 768 251 850 q 211 686 211 729 l 211 0 l 71 0 z "},"à":{"ha":822,"x_min":47,"x_max":754,"o":"m 547 172 l 547 14 q 439 -16 496 -9 q 254 8 341 -27 q 107 125 161 45 q 47 353 47 214 q 145 625 47 526 q 401 720 241 720 q 657 624 560 720 q 754 367 754 527 l 754 0 l 614 0 l 614 367 q 557 526 614 469 q 401 581 503 581 q 244 526 300 581 q 187 353 187 469 q 244 182 187 239 q 401 126 300 126 q 547 172 493 126 m 343 985 l 522 762 l 374 762 l 159 985 l 343 985 z "},"á":{"ha":822,"x_min":47,"x_max":754,"o":"m 547 172 l 547 14 q 439 -16 496 -9 q 254 8 341 -27 q 107 125 161 45 q 47 353 47 214 q 145 625 47 526 q 401 720 241 720 q 657 624 560 720 q 754 367 754 527 l 754 0 l 614 0 l 614 367 q 557 526 614 469 q 401 581 503 581 q 244 526 300 581 q 187 353 187 469 q 244 182 187 239 q 401 126 300 126 q 547 172 493 126 m 643 985 l 427 762 l 279 762 l 458 985 l 643 985 z "},"â":{"ha":822,"x_min":47,"x_max":754,"o":"m 547 172 l 547 14 q 439 -16 496 -9 q 254 8 341 -27 q 107 125 161 45 q 47 353 47 214 q 145 625 47 526 q 401 720 241 720 q 657 624 560 720 q 754 367 754 527 l 754 0 l 614 0 l 614 367 q 557 526 614 469 q 401 581 503 581 q 244 526 300 581 q 187 353 187 469 q 244 182 187 239 q 401 126 300 126 q 547 172 493 126 m 165 764 l 344 1008 q 401 1038 365 1038 q 458 1009 437 1038 l 637 764 l 490 764 l 401 895 l 313 764 l 165 764 z "},"ã":{"ha":822,"x_min":47,"x_max":754,"o":"m 547 172 l 547 14 q 439 -16 496 -9 q 254 8 341 -27 q 107 125 161 45 q 47 353 47 214 q 145 625 47 526 q 401 720 241 720 q 657 624 560 720 q 754 367 754 527 l 754 0 l 614 0 l 614 367 q 557 526 614 469 q 401 581 503 581 q 244 526 300 581 q 187 353 187 469 q 244 182 187 239 q 401 126 300 126 q 547 172 493 126 m 262 755 l 151 778 l 163 833 q 210 915 172 881 q 298 950 248 950 q 425 905 345 950 q 502 873 483 873 q 519 880 512 873 q 530 899 527 885 l 541 954 l 651 932 l 640 877 q 593 793 629 825 q 501 760 554 760 q 370 806 452 760 q 298 838 315 838 q 286 831 293 838 q 273 810 275 823 l 262 755 z "},"ä":{"ha":822,"x_min":47,"x_max":754,"o":"m 547 172 l 547 14 q 439 -16 496 -9 q 254 8 341 -27 q 107 125 161 45 q 47 353 47 214 q 145 625 47 526 q 401 720 241 720 q 657 624 560 720 q 754 367 754 527 l 754 0 l 614 0 l 614 367 q 557 526 614 469 q 401 581 503 581 q 244 526 300 581 q 187 353 187 469 q 244 182 187 239 q 401 126 300 126 q 547 172 493 126 m 193 943 l 333 943 l 333 803 l 193 803 l 193 943 m 468 943 l 608 943 l 608 803 l 468 803 l 468 943 z "},"å":{"ha":822,"x_min":47,"x_max":754,"o":"m 547 172 l 547 14 q 439 -16 496 -9 q 254 8 341 -27 q 107 125 161 45 q 47 353 47 214 q 145 625 47 526 q 401 720 241 720 q 657 624 560 720 q 754 367 754 527 l 754 0 l 614 0 l 614 367 q 557 526 614 469 q 401 581 503 581 q 244 526 300 581 q 187 353 187 469 q 244 182 187 239 q 401 126 300 126 q 547 172 493 126 m 401 996 q 503 954 460 996 q 545 851 545 911 q 503 749 545 791 q 401 707 460 707 q 298 749 341 707 q 256 851 256 791 q 298 954 256 911 q 401 996 341 996 m 401 915 q 355 897 374 915 q 337 851 337 878 q 356 806 337 825 q 401 787 374 787 q 446 806 427 787 q 465 851 465 825 q 446 897 465 878 q 401 915 427 915 z "},"æ":{"ha":1360,"x_min":47,"x_max":1326,"o":"m 401 567 q 244 512 300 567 q 187 353 187 455 q 244 195 187 252 q 401 140 300 140 q 557 195 503 140 q 614 353 614 252 q 557 512 614 455 q 401 567 503 567 m 1161 473 q 1115 526 1143 505 q 975 567 1062 567 q 819 512 874 567 q 762 359 764 456 l 1161 473 m 754 66 l 754 0 l 614 0 l 614 66 q 439 -2 538 10 q 254 22 341 -14 q 107 139 161 58 q 47 353 47 227 q 145 611 47 513 q 401 707 241 707 q 657 610 560 707 q 688 574 674 593 q 720 611 703 593 q 975 707 816 707 q 1200 637 1109 707 q 1319 446 1292 568 q 1312 393 1326 418 q 1271 359 1298 368 l 796 223 q 817 197 806 208 q 970 140 871 141 l 1255 140 l 1255 0 l 968 0 q 754 66 840 2 z "},"ç":{"ha":654,"x_min":47,"x_max":583,"o":"m 583 581 l 541 581 q 283 553 350 581 q 216 497 238 534 q 187 353 187 450 q 214 212 187 258 q 277 157 235 176 q 541 126 345 125 l 583 126 l 583 -14 l 541 -14 q 220 29 314 -14 q 94 142 136 68 q 47 353 47 222 q 96 570 47 489 q 229 682 142 644 q 541 720 322 721 l 583 720 l 583 581 m 509 -54 l 387 -294 l 269 -294 l 360 -54 l 509 -54 z "},"è":{"ha":791,"x_min":36,"x_max":751,"o":"m 586 480 q 538 536 566 514 q 395 577 484 577 q 234 521 291 577 q 176 364 178 464 q 211 225 177 288 q 233 198 220 210 q 389 140 288 141 l 678 140 l 678 0 l 387 0 q 133 100 229 3 q 36 359 36 199 q 135 620 36 520 q 395 717 233 717 q 622 647 530 717 q 743 452 715 576 q 736 399 751 425 q 695 366 722 374 l 279 247 l 241 382 l 586 480 m 340 985 l 519 762 l 371 762 l 155 985 l 340 985 z "},"é":{"ha":791,"x_min":36,"x_max":751,"o":"m 586 480 q 538 536 566 514 q 395 577 484 577 q 234 521 291 577 q 176 364 178 464 q 211 225 177 288 q 233 198 220 210 q 389 140 288 141 l 678 140 l 678 0 l 387 0 q 133 100 229 3 q 36 359 36 199 q 135 620 36 520 q 395 717 233 717 q 622 647 530 717 q 743 452 715 576 q 736 399 751 425 q 695 366 722 374 l 279 247 l 241 382 l 586 480 m 640 985 l 424 762 l 276 762 l 455 985 l 640 985 z "},"ê":{"ha":791,"x_min":36,"x_max":751,"o":"m 586 480 q 538 536 566 514 q 395 577 484 577 q 234 521 291 577 q 176 364 178 464 q 211 225 177 288 q 233 198 220 210 q 389 140 288 141 l 678 140 l 678 0 l 387 0 q 133 100 229 3 q 36 359 36 199 q 135 620 36 520 q 395 717 233 717 q 622 647 530 717 q 743 452 715 576 q 736 399 751 425 q 695 366 722 374 l 279 247 l 241 382 l 586 480 m 161 764 l 340 1008 q 397 1038 361 1038 q 454 1009 433 1038 l 633 764 l 486 764 l 397 895 l 309 764 l 161 764 z "},"ë":{"ha":791,"x_min":36,"x_max":751,"o":"m 586 480 q 538 536 566 514 q 395 577 484 577 q 234 521 291 577 q 176 364 178 464 q 211 225 177 288 q 233 198 220 210 q 389 140 288 141 l 678 140 l 678 0 l 387 0 q 133 100 229 3 q 36 359 36 199 q 135 620 36 520 q 395 717 233 717 q 622 647 530 717 q 743 452 715 576 q 736 399 751 425 q 695 366 722 374 l 279 247 l 241 382 l 586 480 m 190 943 l 330 943 l 330 803 l 190 803 l 190 943 m 465 943 l 604 943 l 604 803 l 465 803 l 465 943 z "},"ì":{"ha":275,"x_min":-104,"x_max":259,"o":"m 208 0 l 68 0 l 68 707 l 208 707 l 208 0 m 80 985 l 259 762 l 111 762 l -104 985 l 80 985 z "},"í":{"ha":275,"x_min":16,"x_max":380,"o":"m 208 0 l 68 0 l 68 707 l 208 707 l 208 0 m 380 985 l 164 762 l 16 762 l 195 985 l 380 985 z "},"î":{"ha":275,"x_min":-98,"x_max":373,"o":"m 208 0 l 68 0 l 68 707 l 208 707 l 208 0 m -98 764 l 81 1008 q 138 1038 102 1038 q 195 1009 174 1038 l 374 764 l 227 764 l 138 895 l 50 764 l -98 764 z "},"ï":{"ha":275,"x_min":-70,"x_max":345,"o":"m 208 0 l 68 0 l 68 707 l 208 707 l 208 0 m -70 943 l 70 943 l 70 803 l -70 803 l -70 943 m 205 943 l 345 943 l 345 803 l 205 803 l 205 943 z "},"ð":{"ha":765,"x_min":47,"x_max":718,"o":"m 510 645 q 488 677 500 662 q 355 797 435 750 l 260 694 l 169 777 l 234 848 q 198 857 216 852 l 130 871 l 159 1008 l 227 994 q 336 961 284 981 l 418 1050 l 510 967 l 451 902 q 602 760 540 844 q 709 334 718 576 q 612 99 708 197 q 378 0 515 0 q 144 99 241 0 q 47 336 47 198 q 144 574 47 475 q 378 673 241 673 q 510 645 447 673 m 513 475 q 378 532 457 532 q 243 475 300 532 q 187 336 187 418 q 243 197 187 254 q 378 140 300 140 q 513 197 457 140 q 569 336 569 254 q 513 475 569 418 z "},"ñ":{"ha":842,"x_min":68,"x_max":774,"o":"m 774 0 l 635 0 l 635 367 q 578 526 635 469 q 421 581 523 581 q 264 526 320 581 q 208 367 208 469 l 208 0 l 68 0 l 68 367 q 165 625 68 526 q 421 720 262 720 q 677 625 581 720 q 774 367 774 526 l 774 0 m 282 755 l 172 778 l 183 833 q 230 915 193 881 q 318 950 269 950 q 446 905 366 950 q 522 873 503 873 q 540 880 532 873 q 550 899 547 885 l 561 954 l 671 932 l 661 877 q 613 793 650 825 q 522 760 574 760 q 391 806 473 760 q 318 838 336 838 q 306 831 313 838 q 293 810 296 823 l 282 755 z "},"ò":{"ha":802,"x_min":47,"x_max":754,"o":"m 401 581 q 244 526 300 581 q 187 353 187 469 q 244 182 187 239 q 401 126 300 126 q 557 182 503 126 q 614 353 614 239 q 557 526 614 469 q 401 581 503 581 m 145 625 q 401 720 241 720 q 656 625 560 720 q 754 353 754 526 q 656 83 754 180 q 401 -14 560 -14 q 145 83 241 -14 q 47 353 47 180 q 145 625 47 526 m 343 985 l 522 762 l 374 762 l 159 985 l 343 985 z "},"ó":{"ha":802,"x_min":47,"x_max":754,"o":"m 401 581 q 244 526 300 581 q 187 353 187 469 q 244 182 187 239 q 401 126 300 126 q 557 182 503 126 q 614 353 614 239 q 557 526 614 469 q 401 581 503 581 m 145 625 q 401 720 241 720 q 656 625 560 720 q 754 353 754 526 q 656 83 754 180 q 401 -14 560 -14 q 145 83 241 -14 q 47 353 47 180 q 145 625 47 526 m 643 985 l 427 762 l 279 762 l 458 985 l 643 985 z "},"ô":{"ha":802,"x_min":47,"x_max":754,"o":"m 401 581 q 244 526 300 581 q 187 353 187 469 q 244 182 187 239 q 401 126 300 126 q 557 182 503 126 q 614 353 614 239 q 557 526 614 469 q 401 581 503 581 m 145 625 q 401 720 241 720 q 656 625 560 720 q 754 353 754 526 q 656 83 754 180 q 401 -14 560 -14 q 145 83 241 -14 q 47 353 47 180 q 145 625 47 526 m 165 764 l 344 1008 q 401 1038 365 1038 q 458 1009 437 1038 l 637 764 l 490 764 l 401 895 l 313 764 l 165 764 z "},"õ":{"ha":802,"x_min":47,"x_max":754,"o":"m 401 581 q 244 526 300 581 q 187 353 187 469 q 244 182 187 239 q 401 126 300 126 q 557 182 503 126 q 614 353 614 239 q 557 526 614 469 q 401 581 503 581 m 145 625 q 401 720 241 720 q 656 625 560 720 q 754 353 754 526 q 656 83 754 180 q 401 -14 560 -14 q 145 83 241 -14 q 47 353 47 180 q 145 625 47 526 m 247 755 l 136 778 l 148 833 q 195 915 157 881 q 283 950 233 950 q 410 905 330 950 q 487 873 468 873 q 505 880 497 873 q 515 899 512 885 l 526 954 l 636 932 l 625 877 q 578 793 614 825 q 486 760 539 760 q 355 806 437 760 q 283 838 300 838 q 271 831 278 838 q 258 810 260 823 l 247 755 z "},"ö":{"ha":802,"x_min":47,"x_max":754,"o":"m 401 581 q 244 526 300 581 q 187 353 187 469 q 244 182 187 239 q 401 126 300 126 q 557 182 503 126 q 614 353 614 239 q 557 526 614 469 q 401 581 503 581 m 145 625 q 401 720 241 720 q 656 625 560 720 q 754 353 754 526 q 656 83 754 180 q 401 -14 560 -14 q 145 83 241 -14 q 47 353 47 180 q 145 625 47 526 m 193 943 l 333 943 l 333 803 l 193 803 l 193 943 m 468 943 l 608 943 l 608 803 l 468 803 l 468 943 z "},"÷":{"ha":598,"x_min":68,"x_max":530,"o":"m 68 359 l 68 492 l 530 492 l 530 359 l 68 359 m 229 212 l 369 212 l 369 73 l 229 73 l 229 212 m 229 779 l 369 779 l 369 640 l 229 640 l 229 779 z "},"ø":{"ha":802,"x_min":47,"x_max":754,"o":"m 239 32 q 145 96 186 56 q 47 353 47 194 q 145 611 47 513 q 401 707 241 707 q 465 703 434 707 l 519 863 l 615 831 l 563 675 q 656 611 616 652 q 754 353 754 513 q 656 96 754 194 q 401 0 560 0 q 336 4 368 0 l 287 -145 l 191 -113 l 239 32 m 518 541 l 382 140 q 401 140 391 140 q 557 195 503 140 q 614 353 614 252 q 557 512 614 455 q 518 541 540 530 m 284 165 l 419 566 q 401 567 410 567 q 244 512 300 567 q 187 353 187 455 q 244 195 187 252 q 284 165 262 178 z "},"ù":{"ha":842,"x_min":68,"x_max":774,"o":"m 635 707 l 774 707 l 774 340 q 677 83 774 180 q 421 -14 581 -14 q 165 83 262 -14 q 68 340 68 180 l 68 707 l 208 707 l 208 340 q 264 182 208 239 q 421 126 320 126 q 578 182 523 126 q 635 340 635 239 l 635 707 m 363 985 l 543 762 l 395 762 l 179 985 l 363 985 z "},"ú":{"ha":842,"x_min":68,"x_max":774,"o":"m 635 707 l 774 707 l 774 340 q 677 83 774 180 q 421 -14 581 -14 q 165 83 262 -14 q 68 340 68 180 l 68 707 l 208 707 l 208 340 q 264 182 208 239 q 421 126 320 126 q 578 182 523 126 q 635 340 635 239 l 635 707 m 663 985 l 448 762 l 300 762 l 479 985 l 663 985 z "},"û":{"ha":842,"x_min":68,"x_max":774,"o":"m 635 707 l 774 707 l 774 340 q 677 83 774 180 q 421 -14 581 -14 q 165 83 262 -14 q 68 340 68 180 l 68 707 l 208 707 l 208 340 q 264 182 208 239 q 421 126 320 126 q 578 182 523 126 q 635 340 635 239 l 635 707 m 186 764 l 364 1008 q 422 1038 385 1038 q 478 1009 457 1038 l 657 764 l 510 764 l 422 895 l 334 764 l 186 764 z "},"ü":{"ha":842,"x_min":68,"x_max":774,"o":"m 635 707 l 774 707 l 774 340 q 677 83 774 180 q 421 -14 581 -14 q 165 83 262 -14 q 68 340 68 180 l 68 707 l 208 707 l 208 340 q 264 182 208 239 q 421 126 320 126 q 578 182 523 126 q 635 340 635 239 l 635 707 m 214 943 l 353 943 l 353 803 l 214 803 l 214 943 m 488 943 l 628 943 l 628 803 l 488 803 l 488 943 z "},"ý":{"ha":842,"x_min":117,"x_max":770,"o":"m 630 54 q 444 -14 554 -14 q 215 83 304 -14 q 117 340 117 180 l 117 707 l 257 707 l 257 340 q 314 182 257 239 q 444 126 363 126 q 573 182 525 126 q 630 340 630 239 l 630 707 l 770 707 l 770 70 q 673 -186 770 -89 q 418 -283 576 -283 l 199 -283 l 199 -144 l 418 -144 q 574 -88 519 -144 q 630 54 625 -37 m 663 985 l 448 762 l 300 762 l 479 985 l 663 985 z "},"þ":{"ha":822,"x_min":68,"x_max":774,"o":"m 208 646 q 421 707 294 707 q 677 610 581 707 q 774 353 774 513 q 677 96 774 194 q 421 0 581 0 q 208 60 296 0 l 208 -283 l 68 -283 l 68 990 l 208 990 l 208 646 m 208 355 l 208 350 q 264 195 209 251 q 421 140 320 140 q 578 195 523 140 q 635 353 635 252 q 578 511 635 454 q 421 567 523 567 q 264 511 320 567 q 208 355 208 455 z "},"ÿ":{"ha":842,"x_min":117,"x_max":770,"o":"m 630 54 q 444 -14 554 -14 q 215 83 304 -14 q 117 340 117 180 l 117 707 l 257 707 l 257 340 q 314 182 257 239 q 444 126 363 126 q 573 182 525 126 q 630 340 630 239 l 630 707 l 770 707 l 770 70 q 673 -186 770 -89 q 418 -283 576 -283 l 199 -283 l 199 -144 l 418 -144 q 574 -88 519 -144 q 630 54 625 -37 m 214 943 l 353 943 l 353 803 l 214 803 l 214 943 m 488 943 l 628 943 l 628 803 l 488 803 l 488 943 z "},"ı":{"ha":275,"x_min":68,"x_max":208,"o":"m 208 0 l 68 0 l 68 707 l 208 707 l 208 0 z "},"ˆ":{"ha":485,"x_min":7,"x_max":478,"o":"m 7 764 l 185 1008 q 243 1038 206 1038 q 299 1009 278 1038 l 478 764 l 331 764 l 243 895 l 155 764 l 7 764 z "},"ˇ":{"ha":485,"x_min":7,"x_max":478,"o":"m 155 1010 l 243 879 l 331 1010 l 478 1010 l 299 765 q 243 736 278 736 q 185 766 206 736 l 7 1010 l 155 1010 z "},"ˉ":{"ha":524,"x_min":68,"x_max":456,"o":"m 68 803 l 68 922 l 456 922 l 456 803 l 68 803 z "},"˘":{"ha":456,"x_min":7,"x_max":449,"o":"m 107 934 q 146 880 116 901 q 228 857 180 857 q 309 880 275 857 q 349 934 340 901 l 449 906 q 367 793 429 836 q 228 753 307 753 q 89 793 149 753 q 7 906 26 836 l 107 934 z "},"˙":{"ha":275,"x_min":68,"x_max":208,"o":"m 68 949 l 208 949 l 208 810 l 68 810 l 68 949 z "},"˚":{"ha":302,"x_min":7,"x_max":296,"o":"m 151 996 q 254 954 211 996 q 296 851 296 911 q 254 749 296 791 q 151 707 211 707 q 49 749 92 707 q 7 851 7 791 q 49 954 7 911 q 151 996 92 996 m 151 915 q 106 897 125 915 q 87 851 87 878 q 106 806 87 825 q 151 787 125 787 q 197 806 178 787 q 215 851 215 825 q 197 897 215 878 q 151 915 178 915 z "},"˛":{"ha":254,"x_min":7,"x_max":248,"o":"m 169 6 q 113 -73 124 -28 q 121 -142 102 -113 q 200 -153 150 -184 l 248 -229 q 146 -265 202 -267 q 52 -220 90 -264 q 16 -104 7 -168 q 74 6 24 -47 l 169 6 z "},"˜":{"ha":517,"x_min":7,"x_max":507,"o":"m 117 755 l 7 778 l 18 833 q 65 915 28 881 q 153 950 104 950 q 281 905 201 950 q 357 873 338 873 q 375 880 368 873 q 385 899 382 885 l 396 954 l 507 932 l 496 877 q 448 793 485 825 q 357 760 410 760 q 226 806 308 760 q 153 838 171 838 q 141 831 149 838 q 128 810 131 823 l 117 755 z "},"˝":{"ha":684,"x_min":8,"x_max":667,"o":"m 372 985 l 156 762 l 8 762 l 187 985 l 372 985 m 667 985 l 452 762 l 304 762 l 483 985 l 667 985 z "},"–":{"ha":871,"x_min":68,"x_max":802,"o":"m 68 292 l 68 425 l 802 425 l 802 292 l 68 292 z "},"—":{"ha":1331,"x_min":68,"x_max":1276,"o":"m 68 292 l 68 425 l 1276 425 l 1276 292 l 68 292 z "},"‘":{"ha":275,"x_min":68,"x_max":208,"o":"m 129 990 l 193 990 q 146 803 153 897 l 208 803 l 208 663 l 68 663 l 68 803 q 129 990 81 897 z "},"’":{"ha":275,"x_min":68,"x_max":208,"o":"m 146 663 l 82 663 q 130 850 123 757 l 68 850 l 68 990 l 208 990 l 208 850 q 146 663 194 757 z "},"‚":{"ha":275,"x_min":68,"x_max":208,"o":"m 146 -163 l 82 -163 q 130 24 123 -70 l 68 24 l 68 163 l 208 163 l 208 24 q 146 -163 194 -70 z "},"“":{"ha":471,"x_min":68,"x_max":403,"o":"m 129 990 l 193 990 q 146 803 153 897 l 208 803 l 208 663 l 68 663 l 68 803 q 129 990 81 897 m 324 990 l 389 990 q 341 803 348 897 l 403 803 l 403 663 l 263 663 l 263 803 q 324 990 277 897 z "},"”":{"ha":471,"x_min":68,"x_max":403,"o":"m 146 663 l 82 663 q 130 850 123 757 l 68 850 l 68 990 l 208 990 l 208 850 q 146 663 194 757 m 342 663 l 277 663 q 325 850 318 757 l 263 850 l 263 990 l 403 990 l 403 850 q 342 663 389 757 z "},"„":{"ha":471,"x_min":68,"x_max":403,"o":"m 146 -163 l 82 -163 q 130 24 123 -70 l 68 24 l 68 163 l 208 163 l 208 24 q 146 -163 194 -70 m 342 -163 l 277 -163 q 325 24 318 -70 l 263 24 l 263 163 l 403 163 l 403 24 q 342 -163 389 -70 z "},"†":{"ha":753,"x_min":68,"x_max":686,"o":"m 324 735 l 324 1004 l 430 1004 l 430 735 l 686 735 l 686 629 l 430 629 l 430 -237 l 324 -237 l 324 629 l 68 629 l 68 735 l 324 735 z "},"‡":{"ha":753,"x_min":68,"x_max":686,"o":"m 324 735 l 324 1004 l 430 1004 l 430 735 l 686 735 l 686 629 l 430 629 l 430 193 l 686 193 l 686 87 l 430 87 l 430 -237 l 324 -237 l 324 87 l 68 87 l 68 193 l 324 193 l 324 629 l 68 629 l 68 735 l 324 735 z "},"•":{"ha":635,"x_min":57,"x_max":569,"o":"m 313 763 q 494 688 419 763 q 569 507 569 613 q 494 326 569 401 q 313 251 419 251 q 132 326 207 251 q 57 507 57 401 q 132 688 57 613 q 313 763 207 763 z "},"…":{"ha":1389,"x_min":68,"x_max":1134,"o":"m 68 140 l 208 140 l 208 0 l 68 0 l 68 140 m 531 140 l 671 140 l 671 0 l 531 0 l 531 140 m 994 140 l 1134 140 l 1134 0 l 994 0 l 994 140 z "},"‹":{"ha":448,"x_min":68,"x_max":380,"o":"m 68 367 l 249 663 l 380 663 l 200 367 l 380 71 l 249 71 l 68 367 z "},"›":{"ha":448,"x_min":68,"x_max":380,"o":"m 199 71 l 68 71 l 248 367 l 68 663 l 199 663 l 380 367 l 199 71 z "},"⁄":{"ha":241,"x_min":-138,"x_max":362,"o":"m 362 1067 l -42 -130 l -138 -97 l 266 1100 l 362 1067 z "},"₣":{"ha":551,"x_min":7,"x_max":533,"o":"m 102 298 l 102 1004 l 533 1004 l 533 891 l 214 891 l 214 558 l 495 558 l 495 446 l 214 446 l 214 298 l 414 298 l 414 195 l 214 195 l 214 0 l 102 0 l 102 195 l 7 195 l 7 298 l 102 298 z "},"₤":{"ha":871,"x_min":41,"x_max":846,"o":"m 41 418 l 41 550 l 190 550 q 173 682 173 621 l 172 682 q 214 856 172 779 q 338 975 258 936 q 469 1003 397 1003 q 667 923 583 1003 q 758 730 745 848 l 766 656 l 626 641 l 618 727 q 572 831 611 792 q 469 871 528 871 q 397 857 429 871 q 336 798 358 838 q 313 696 313 755 l 313 696 q 338 550 313 622 l 604 550 l 604 418 l 374 418 q 349 250 377 333 q 297 153 334 208 q 465 129 370 154 q 616 101 561 99 q 715 134 663 103 l 777 169 l 846 56 l 785 20 q 621 -31 703 -27 q 425 3 542 -33 q 309 21 361 23 q 158 -22 239 18 q 112 -31 137 -35 q 70 -8 87 -28 q 52 45 50 15 q 75 96 54 75 q 216 299 178 189 q 234 418 236 359 l 41 418 z "},"₧":{"ha":1568,"x_min":68,"x_max":1514,"o":"m 169 891 l 169 441 l 319 441 q 436 478 402 441 q 469 608 469 515 l 469 725 q 435 854 469 817 q 319 891 402 891 l 169 891 m 169 329 l 169 0 l 68 0 l 68 1004 l 319 1004 q 507 934 444 1004 q 570 725 570 864 l 570 608 q 507 399 570 469 q 319 329 444 329 l 169 329 m 1042 637 l 787 637 l 787 214 q 808 127 787 145 q 890 112 825 112 l 1299 112 q 1377 136 1353 112 q 1402 215 1402 161 q 1377 294 1402 270 q 1299 318 1353 318 l 1238 318 q 1080 376 1137 318 q 1022 534 1022 433 q 1042 637 1022 593 m 890 0 q 735 42 785 0 q 675 214 675 93 l 675 1004 l 787 1004 l 787 749 l 1299 749 q 1457 692 1399 749 q 1514 534 1514 634 l 1402 534 q 1377 612 1402 588 q 1299 637 1353 637 l 1238 637 q 1159 612 1183 637 q 1135 534 1135 588 q 1159 455 1135 479 q 1238 431 1183 431 l 1299 431 q 1457 373 1399 431 q 1514 215 1514 316 q 1457 57 1514 115 q 1299 0 1400 0 l 890 0 z "},"€":{"ha":909,"x_min":68,"x_max":841,"o":"m 68 497 l 176 497 q 176 517 176 507 l 175 517 q 176 550 175 534 l 68 550 l 68 690 l 198 690 q 220 758 208 725 q 366 949 271 881 q 581 1015 460 1015 q 738 994 665 1015 q 841 950 794 978 l 769 830 q 699 860 738 849 q 581 876 646 876 q 447 835 504 876 q 350 705 385 791 q 344 690 347 697 l 696 690 l 696 550 l 316 550 q 315 517 315 534 l 315 517 q 315 497 315 507 l 661 497 l 661 357 l 340 357 q 385 269 357 307 q 548 167 444 186 q 756 203 656 146 l 826 82 q 522 29 682 0 q 271 188 363 58 q 195 357 220 260 l 68 357 l 68 497 z "},"№":{"ha":1305,"x_min":68,"x_max":1236,"o":"m 180 0 l 68 0 l 68 1004 l 159 1004 l 504 275 l 504 1004 l 616 1004 l 616 0 l 525 0 l 180 728 l 180 0 m 783 1 l 783 113 l 1196 113 l 1196 1 l 783 1 m 1021 789 q 1179 732 1122 789 q 1236 574 1236 675 l 1236 459 q 1179 300 1236 358 q 1021 243 1122 243 l 960 243 q 802 301 859 243 q 745 459 745 358 l 745 574 q 802 732 745 675 q 960 789 859 789 l 1021 789 m 960 677 q 881 652 905 677 q 857 574 857 628 l 857 459 q 881 380 857 404 q 960 356 905 356 l 1021 356 q 1099 380 1075 356 q 1124 459 1124 405 l 1124 574 q 1100 653 1124 629 q 1021 677 1076 677 l 960 677 z "},"™":{"ha":640,"x_min":21,"x_max":593,"o":"m 278 998 l 278 953 l 174 953 l 174 596 l 124 596 l 124 953 l 21 953 l 21 998 l 278 998 m 335 596 l 284 596 l 284 998 l 328 998 l 438 677 l 549 998 l 593 998 l 593 596 l 542 596 l 542 812 l 549 863 l 456 599 l 420 599 l 328 863 l 335 812 l 335 596 z "},"∂":{"ha":751,"x_min":68,"x_max":683,"o":"m 307 673 l 180 732 l 210 795 q 275 893 233 844 q 460 991 361 991 q 631 895 570 991 q 683 680 683 812 l 683 656 l 682 663 l 682 652 q 631 283 682 424 q 377 13 557 80 q 275 -7 324 -7 q 249 -5 262 -7 q 131 52 178 3 q 68 229 68 116 q 71 281 68 254 q 233 555 90 459 q 543 645 352 635 l 543 671 q 543 664 543 671 l 543 680 q 513 821 543 773 q 460 850 494 850 q 336 736 391 850 l 307 673 m 500 331 q 537 504 527 405 q 311 439 394 495 q 210 265 222 380 q 208 228 208 245 q 231 149 208 173 q 265 134 243 136 q 277 133 271 133 q 328 143 300 133 q 500 331 448 189 z "},"∆":{"ha":1052,"x_min":68,"x_max":984,"o":"m 806 140 l 528 760 l 251 140 l 806 140 m 143 0 q 115 6 128 0 q 78 45 88 18 q 79 98 68 72 l 465 959 q 500 994 475 983 q 553 996 526 1006 q 592 959 581 985 l 975 104 q 984 70 984 88 q 963 20 984 41 q 913 0 943 0 l 143 0 z "},"∏":{"ha":1014,"x_min":68,"x_max":946,"o":"m 208 -284 l 68 -284 l 68 919 q 88 968 68 948 q 138 989 109 989 l 876 989 q 926 968 905 989 q 946 919 946 948 l 946 -284 l 806 -284 l 806 849 l 208 849 l 208 -284 z "},"∑":{"ha":1026,"x_min":68,"x_max":958,"o":"m 958 990 l 958 850 l 284 850 l 626 418 q 641 374 641 398 q 625 330 640 349 l 284 -101 l 958 -101 l 958 -241 l 140 -241 l 140 -241 q 97 -226 116 -241 q 71 -180 75 -208 q 85 -128 68 -151 l 482 374 l 90 871 q 71 920 71 892 q 91 969 71 949 q 140 990 111 990 l 958 990 z "},"−":{"ha":598,"x_min":68,"x_max":530,"o":"m 68 359 l 68 492 l 530 492 l 530 359 l 68 359 z "},"√":{"ha":905,"x_min":68,"x_max":838,"o":"m 121 378 l 68 507 l 132 534 l 281 595 q 333 596 307 606 q 370 562 359 587 l 371 562 l 549 196 l 689 1063 l 700 1132 l 838 1110 l 827 1042 l 652 -39 q 614 -95 649 -78 q 560 -98 587 -108 q 520 -63 533 -89 l 274 441 l 185 405 l 121 378 z "},"∞":{"ha":920,"x_min":68,"x_max":852,"o":"m 250 559 q 431 474 353 559 q 644 592 522 592 q 808 528 756 592 q 852 363 852 473 q 799 197 852 255 q 640 136 743 136 q 430 249 520 136 q 248 171 354 171 q 90 261 134 171 q 68 368 68 304 q 93 473 68 429 q 243 559 138 554 l 250 559 m 349 361 q 250 433 295 433 q 218 417 226 433 q 208 368 208 400 q 217 313 208 331 q 248 297 225 297 q 349 361 298 297 m 515 360 q 640 262 585 262 q 691 277 677 262 q 712 363 712 300 q 696 454 712 433 q 644 466 686 466 q 515 360 589 466 z "},"∫":{"ha":656,"x_min":68,"x_max":589,"o":"m 589 1095 l 537 965 l 473 991 q 414 1011 436 1008 q 398 469 395 973 q 366 -104 401 -35 q 227 -170 328 -176 q 133 -149 178 -166 l 68 -123 l 119 7 l 184 -19 q 242 -39 224 -38 q 258 503 262 -1 q 291 1076 255 1006 q 430 1141 328 1147 q 524 1120 479 1138 l 589 1095 z "},"≈":{"ha":897,"x_min":60,"x_max":649,"o":"m 649 455 q 505 396 567 402 q 357 433 444 390 q 202 462 278 473 q 60 397 133 452 l 60 527 q 202 585 133 575 q 357 555 278 595 q 505 519 444 513 q 649 585 567 525 l 649 455 m 649 222 q 505 163 567 169 q 357 199 444 157 q 202 229 278 239 q 60 164 133 218 l 60 294 q 202 351 133 342 q 357 322 278 362 q 505 286 444 279 q 649 351 567 292 l 649 222 z "},"≤":{"ha":788,"x_min":68,"x_max":720,"o":"m 720 815 l 720 663 l 319 494 l 720 326 l 720 174 l 111 430 q 74 467 85 441 q 68 495 68 481 q 73 521 68 508 q 111 559 84 548 l 669 793 l 720 815 m 88 0 l 88 127 l 720 127 l 720 0 l 88 0 z "},"≥":{"ha":777,"x_min":68,"x_max":720,"o":"m 119 793 l 677 559 q 715 521 704 548 q 720 495 720 508 q 714 467 720 481 q 677 430 703 441 l 68 174 l 68 326 l 469 494 l 68 663 l 68 815 l 119 793 m 68 0 l 68 127 l 700 127 l 700 0 l 68 0 z "},"○":{"ha":1159,"x_min":3,"x_max":1156,"o":"m 580 1078 q 987 909 818 1078 q 1156 501 1156 740 q 987 94 1156 263 q 580 -75 818 -75 q 172 94 341 -75 q 3 501 3 263 q 172 909 3 740 q 580 1078 341 1078 m 580 1015 q 217 864 368 1015 q 66 501 66 714 q 217 139 66 289 q 580 -12 368 -12 q 942 139 792 -12 q 1093 501 1093 289 q 942 864 1093 714 q 580 1015 792 1015 z "},"●":{"ha":1159,"x_min":68,"x_max":1091,"o":"m 580 1013 q 941 863 791 1013 q 1091 501 1091 713 q 941 140 1091 290 q 580 -10 791 -10 q 218 140 368 -10 q 68 501 68 290 q 218 863 68 713 q 580 1013 368 1013 z "},"⁰":{"ha":767,"x_min":68,"x_max":699,"o":"m 384 1012 q 638 886 556 1012 q 699 636 699 793 q 639 389 699 482 q 385 262 557 262 q 129 389 211 262 q 68 637 68 482 q 146 909 68 813 q 384 1012 230 1012 m 530 815 q 384 882 486 882 q 247 828 291 882 q 197 637 198 768 q 237 459 197 520 q 384 391 281 391 q 530 459 486 391 q 570 636 570 521 q 530 815 570 753 z "},"¹":{"ha":437,"x_min":68,"x_max":369,"o":"m 369 262 l 239 262 l 239 882 l 68 882 l 68 1012 l 304 1012 q 350 993 331 1012 q 369 947 369 974 l 369 262 z "},"²":{"ha":720,"x_min":68,"x_max":652,"o":"m 94 882 l 94 1012 l 360 1012 q 562 959 484 1012 q 652 792 652 897 q 563 619 652 669 q 368 573 510 590 q 250 550 282 563 q 197 482 197 529 l 197 392 l 652 392 l 652 262 l 133 262 q 87 281 106 262 q 68 328 68 300 l 68 482 q 157 655 68 606 q 352 701 210 684 q 469 724 437 711 q 522 792 522 745 q 489 852 522 829 q 360 882 445 882 l 94 882 z "},"³":{"ha":720,"x_min":68,"x_max":652,"o":"m 68 882 l 68 1012 l 426 1012 q 577 954 519 1012 q 635 802 635 895 q 589 664 635 720 q 652 492 652 602 q 422 262 652 262 l 68 262 l 68 392 l 422 392 q 522 492 522 392 q 499 570 522 547 q 422 593 476 593 l 68 593 l 68 723 l 426 723 q 486 743 465 723 q 506 802 506 763 q 488 859 506 840 q 426 882 464 882 l 68 882 z "},"⁴":{"ha":720,"x_min":27,"x_max":673,"o":"m 539 262 l 410 262 l 410 414 l 94 414 l 94 414 q 54 429 71 414 q 30 473 33 446 q 44 520 27 499 l 421 984 q 475 1012 441 1012 q 520 993 501 1012 q 539 947 539 974 l 539 544 l 673 544 l 673 414 l 539 414 l 539 262 m 217 544 l 410 544 l 410 773 l 217 544 z "},"⁵":{"ha":720,"x_min":68,"x_max":652,"o":"m 609 1012 l 609 882 l 197 882 l 197 735 l 356 735 q 566 677 488 735 q 652 498 652 614 q 561 322 652 391 q 360 262 481 262 l 68 262 l 68 392 l 360 392 q 484 426 439 392 q 522 498 522 455 q 489 574 522 549 q 356 606 446 606 l 133 606 q 87 625 106 606 q 68 671 68 644 l 68 947 q 87 993 68 974 q 133 1012 106 1012 l 609 1012 z "},"⁶":{"ha":711,"x_min":68,"x_max":644,"o":"m 197 751 q 298 772 243 772 l 414 772 q 583 702 519 772 q 644 526 644 635 l 644 492 q 583 323 644 385 q 414 262 522 262 l 298 262 q 134 314 197 262 q 68 460 68 368 l 68 802 q 125 953 68 895 q 277 1012 184 1012 l 598 1012 l 598 882 l 277 882 q 217 861 238 882 q 197 802 197 842 l 197 751 m 197 492 q 298 392 197 392 l 414 392 q 491 416 468 392 q 514 492 514 438 l 514 526 q 487 614 514 585 q 414 642 462 642 l 298 642 q 224 614 250 642 q 197 528 198 585 l 197 492 z "},"⁷":{"ha":599,"x_min":14,"x_max":518,"o":"m 518 262 l 389 262 l 389 882 l 14 882 l 14 1012 l 454 1012 q 499 993 480 1012 q 518 947 518 974 l 518 262 z "},"⁸":{"ha":711,"x_min":68,"x_max":644,"o":"m 418 1012 q 569 954 511 1012 q 627 802 627 895 q 575 663 627 716 q 644 492 644 606 q 414 262 644 262 l 298 262 q 129 323 190 262 q 68 492 68 385 q 136 663 68 606 q 84 802 84 716 q 142 954 84 895 q 294 1012 201 1012 l 418 1012 m 294 882 q 214 802 214 882 q 235 738 214 762 q 294 712 256 712 l 418 712 q 477 738 456 712 q 498 802 498 762 q 418 882 498 882 l 294 882 m 298 604 q 197 492 197 604 q 220 416 197 439 q 298 392 244 392 l 414 392 q 514 492 514 392 q 414 604 514 604 l 298 604 z "},"⁹":{"ha":711,"x_min":68,"x_max":644,"o":"m 514 523 q 414 502 469 502 l 298 502 q 129 572 193 502 q 68 749 68 640 l 68 782 q 129 951 68 890 q 298 1012 190 1012 l 414 1012 q 578 960 515 1012 q 644 814 644 905 l 644 472 q 586 321 644 379 q 434 262 527 262 l 113 262 l 113 392 l 434 392 q 494 413 473 392 q 514 472 514 433 l 514 523 m 514 782 q 414 882 514 882 l 298 882 q 220 859 243 882 q 197 782 197 836 l 197 749 q 224 660 197 690 q 298 632 250 632 l 414 632 q 487 660 462 632 q 514 747 513 689 l 514 782 z "},"⁺":{"ha":742,"x_min":68,"x_max":674,"o":"m 68 498 l 68 624 l 301 624 l 301 864 l 441 864 l 441 624 l 674 624 l 674 498 l 441 498 l 441 258 l 301 258 l 301 498 l 68 498 z "},"⁻":{"ha":532,"x_min":68,"x_max":463,"o":"m 68 563 l 68 696 l 463 696 l 463 563 l 68 563 z "},"⁼":{"ha":654,"x_min":68,"x_max":578,"o":"m 68 400 l 68 533 l 578 533 l 578 400 l 68 400 m 68 685 l 68 818 l 578 818 l 578 685 l 68 685 z "},"ⁱ":{"ha":275,"x_min":68,"x_max":208,"o":"m 208 271 l 68 271 l 68 707 l 208 707 l 208 271 m 208 850 l 68 850 l 68 990 l 208 990 l 208 850 z "},"⁽":{"ha":393,"x_min":54,"x_max":366,"o":"m 270 1045 l 366 956 l 321 908 q 252 811 286 870 q 184 557 184 687 q 321 207 184 354 l 366 159 l 270 70 l 226 117 q 140 240 182 164 q 54 557 54 395 q 140 875 54 720 q 226 997 182 951 l 270 1045 z "},"⁾":{"ha":425,"x_min":54,"x_max":366,"o":"m 194 997 q 280 875 238 951 q 366 557 366 720 q 280 240 366 395 q 194 117 238 164 l 150 70 l 54 159 l 99 207 q 235 557 235 354 q 168 811 235 687 q 99 908 134 870 l 54 956 l 150 1045 l 194 997 z "},"ⁿ":{"ha":745,"x_min":61,"x_max":673,"o":"m 673 419 l 533 419 l 533 637 q 476 795 533 739 q 367 850 435 850 q 244 795 300 850 q 201 637 201 739 l 201 419 l 61 419 l 61 637 q 145 895 61 796 q 367 990 241 990 q 575 895 492 990 q 673 637 673 796 l 673 419 z "},"₀":{"ha":767,"x_min":68,"x_max":699,"o":"m 384 375 q 638 250 556 375 q 699 -1 699 156 q 639 -248 699 -155 q 385 -374 557 -374 q 129 -248 211 -375 q 68 1 68 -155 q 146 273 68 176 q 384 375 230 375 m 530 178 q 384 245 486 245 q 247 191 291 245 q 197 1 198 131 q 237 -178 197 -117 q 384 -245 281 -245 q 530 -178 486 -245 q 570 -1 570 -116 q 530 178 570 117 z "},"₁":{"ha":437,"x_min":68,"x_max":369,"o":"m 369 -374 l 239 -374 l 239 245 l 68 245 l 68 375 l 304 375 q 350 356 331 375 q 369 310 369 337 l 369 -374 z "},"₂":{"ha":720,"x_min":68,"x_max":652,"o":"m 94 245 l 94 375 l 360 375 q 562 322 484 375 q 652 155 652 260 q 563 -18 652 32 q 368 -64 510 -47 q 250 -87 282 -74 q 197 -155 197 -108 l 197 -245 l 652 -245 l 652 -374 l 133 -374 q 87 -355 106 -374 q 68 -309 68 -336 l 68 -155 q 157 18 68 -31 q 352 64 210 47 q 469 87 437 75 q 522 155 522 109 q 489 216 522 193 q 360 245 445 245 l 94 245 z "},"₃":{"ha":720,"x_min":68,"x_max":652,"o":"m 68 245 l 68 375 l 426 375 q 577 317 519 375 q 635 165 635 258 q 589 27 635 83 q 652 -144 652 -35 q 422 -374 652 -374 l 68 -374 l 68 -245 l 422 -245 q 522 -144 522 -245 q 499 -67 522 -90 q 422 -44 476 -44 l 68 -44 l 68 86 l 426 86 q 486 106 465 86 q 506 165 506 126 q 488 222 506 203 q 426 245 464 245 l 68 245 z "},"₄":{"ha":720,"x_min":27,"x_max":673,"o":"m 539 -374 l 410 -374 l 410 -222 l 94 -222 l 94 -222 q 54 -208 71 -222 q 30 -164 33 -191 q 44 -117 27 -138 l 421 347 q 475 375 441 375 q 520 356 501 375 q 539 310 539 337 l 539 -93 l 673 -93 l 673 -222 l 539 -222 l 539 -374 m 217 -93 l 410 -93 l 410 136 l 217 -93 z "},"₅":{"ha":720,"x_min":68,"x_max":652,"o":"m 609 375 l 609 245 l 197 245 l 197 98 l 356 98 q 566 41 488 98 q 652 -138 652 -23 q 561 -315 652 -246 q 360 -374 481 -374 l 68 -374 l 68 -245 l 360 -245 q 484 -211 439 -245 q 522 -138 522 -182 q 489 -63 522 -87 q 356 -31 446 -31 l 133 -31 q 87 -12 106 -31 q 68 34 68 7 l 68 310 q 87 356 68 337 q 133 375 106 375 l 609 375 z "},"₆":{"ha":711,"x_min":68,"x_max":644,"o":"m 197 115 q 298 136 243 136 l 414 136 q 583 65 519 136 q 644 -111 644 -2 l 644 -144 q 583 -313 644 -252 q 414 -374 522 -374 l 298 -374 q 134 -323 197 -374 q 68 -176 68 -269 l 68 165 q 125 316 68 258 q 277 375 184 375 l 598 375 l 598 245 l 277 245 q 217 224 238 245 q 197 165 197 205 l 197 115 m 197 -144 q 298 -245 197 -245 l 414 -245 q 491 -221 468 -245 q 514 -144 514 -199 l 514 -111 q 487 -22 514 -52 q 414 5 462 5 l 298 5 q 224 -22 250 5 q 197 -109 198 -52 l 197 -144 z "},"₇":{"ha":599,"x_min":14,"x_max":518,"o":"m 518 -374 l 389 -374 l 389 245 l 14 245 l 14 375 l 454 375 q 499 356 480 375 q 518 310 518 337 l 518 -374 z "},"₈":{"ha":711,"x_min":68,"x_max":644,"o":"m 418 375 q 569 317 511 375 q 627 165 627 258 q 575 26 627 79 q 644 -144 644 -31 q 414 -374 644 -374 l 298 -374 q 129 -313 190 -374 q 68 -144 68 -252 q 136 26 68 -31 q 84 165 84 79 q 142 317 84 258 q 294 375 201 375 l 418 375 m 294 245 q 214 165 214 245 q 235 101 214 125 q 294 75 256 75 l 418 75 q 477 101 456 75 q 498 165 498 125 q 418 245 498 245 l 294 245 m 298 -33 q 197 -144 197 -33 q 220 -221 197 -198 q 298 -245 244 -245 l 414 -245 q 514 -144 514 -245 q 414 -33 514 -33 l 298 -33 z "},"₉":{"ha":711,"x_min":68,"x_max":644,"o":"m 514 -114 q 414 -135 469 -135 l 298 -135 q 129 -64 193 -135 q 68 112 68 3 l 68 145 q 129 314 68 253 q 298 375 190 375 l 414 375 q 578 323 515 375 q 644 177 644 269 l 644 -165 q 586 -315 644 -258 q 434 -374 527 -374 l 113 -374 l 113 -245 l 434 -245 q 494 -224 473 -245 q 514 -165 514 -204 l 514 -114 m 514 145 q 414 245 514 245 l 298 245 q 220 222 243 245 q 197 145 197 199 l 197 112 q 224 23 197 53 q 298 -5 250 -5 l 414 -5 q 487 23 462 -5 q 514 110 513 52 l 514 145 z "},"₊":{"ha":742,"x_min":68,"x_max":674,"o":"m 68 -63 l 68 63 l 301 63 l 301 303 l 441 303 l 441 63 l 674 63 l 674 -63 l 441 -63 l 441 -303 l 301 -303 l 301 -63 l 68 -63 z "},"₋":{"ha":532,"x_min":68,"x_max":463,"o":"m 68 -66 l 68 66 l 463 66 l 463 -66 l 68 -66 z "},"₌":{"ha":654,"x_min":68,"x_max":578,"o":"m 68 -209 l 68 -76 l 578 -76 l 578 -209 l 68 -209 m 68 76 l 68 209 l 578 209 l 578 76 l 68 76 z "},"₍":{"ha":393,"x_min":54,"x_max":366,"o":"m 270 526 l 366 436 l 321 389 q 252 292 286 351 q 184 38 184 168 q 321 -313 184 -165 l 366 -361 l 270 -450 l 226 -402 q 140 -279 182 -355 q 54 38 54 -125 q 140 355 54 200 q 226 477 182 431 l 270 526 z "},"₎":{"ha":425,"x_min":54,"x_max":366,"o":"m 194 477 q 280 355 238 431 q 366 38 366 200 q 280 -279 366 -125 q 194 -402 238 -355 l 150 -450 l 54 -361 l 99 -313 q 235 38 235 -165 q 168 292 235 168 q 99 389 134 351 l 54 436 l 150 526 l 194 477 z "},"①":{"ha":1159,"x_min":3,"x_max":1156,"o":"m 580 1078 q 987 909 818 1078 q 1156 501 1156 740 q 987 94 1156 263 q 580 -75 818 -75 q 172 94 341 -75 q 3 501 3 263 q 172 909 3 740 q 580 1078 341 1078 m 580 1015 q 217 864 368 1015 q 66 501 66 714 q 217 139 66 289 q 580 -12 368 -12 q 942 139 792 -12 q 1093 501 1093 289 q 942 864 1093 714 q 580 1015 792 1015 m 675 127 l 546 127 l 546 747 l 374 747 l 374 876 l 611 876 q 656 857 637 876 q 675 811 675 838 l 675 127 z "},"②":{"ha":1159,"x_min":3,"x_max":1156,"o":"m 580 1078 q 987 909 818 1078 q 1156 501 1156 740 q 987 94 1156 263 q 580 -75 818 -75 q 172 94 341 -75 q 3 501 3 263 q 172 909 3 740 q 580 1078 341 1078 m 580 1015 q 217 864 368 1015 q 66 501 66 714 q 217 139 66 289 q 580 -12 368 -12 q 942 139 792 -12 q 1093 501 1093 289 q 942 864 1093 714 q 580 1015 792 1015 m 314 753 l 314 883 l 580 883 q 781 830 704 883 q 871 663 871 768 q 783 490 871 540 q 587 444 730 461 q 470 421 502 434 q 417 353 417 400 l 417 263 l 871 263 l 871 134 l 353 134 q 307 153 326 134 q 288 199 288 172 l 288 353 q 376 526 288 477 q 572 572 430 555 q 689 595 657 583 q 742 663 742 616 q 709 724 742 701 q 580 753 665 753 l 314 753 z "},"③":{"ha":1159,"x_min":3,"x_max":1156,"o":"m 580 1078 q 987 909 818 1078 q 1156 501 1156 740 q 987 94 1156 263 q 580 -75 818 -75 q 172 94 341 -75 q 3 501 3 263 q 172 909 3 740 q 580 1078 341 1078 m 580 1015 q 217 864 368 1015 q 66 501 66 714 q 217 139 66 289 q 580 -12 368 -12 q 942 139 792 -12 q 1093 501 1093 289 q 942 864 1093 714 q 580 1015 792 1015 m 315 747 l 315 876 l 673 876 q 824 818 766 876 q 882 667 882 760 q 836 528 882 584 q 899 357 899 466 q 669 127 899 127 l 315 127 l 315 256 l 669 256 q 769 357 769 256 q 746 434 769 411 q 669 457 723 457 l 315 457 l 315 587 l 673 587 q 733 608 712 587 q 753 667 753 627 q 735 724 753 704 q 673 747 711 747 l 315 747 z "},"④":{"ha":1159,"x_min":3,"x_max":1156,"o":"m 580 1078 q 987 909 818 1078 q 1156 501 1156 740 q 987 94 1156 263 q 580 -75 818 -75 q 172 94 341 -75 q 3 501 3 263 q 172 909 3 740 q 580 1078 341 1078 m 580 1015 q 217 864 368 1015 q 66 501 66 714 q 217 139 66 289 q 580 -12 368 -12 q 942 139 792 -12 q 1093 501 1093 289 q 942 864 1093 714 q 580 1015 792 1015 m 747 127 l 618 127 l 618 279 l 302 279 l 302 279 q 262 294 279 279 q 238 337 241 310 q 252 385 235 363 l 629 848 q 683 876 649 876 q 728 857 709 876 q 747 811 747 838 l 747 408 l 881 408 l 881 279 l 747 279 l 747 127 m 425 408 l 618 408 l 618 637 l 425 408 z "},"⑤":{"ha":1159,"x_min":3,"x_max":1156,"o":"m 580 1078 q 987 909 818 1078 q 1156 501 1156 740 q 987 94 1156 263 q 580 -75 818 -75 q 172 94 341 -75 q 3 501 3 263 q 172 909 3 740 q 580 1078 341 1078 m 580 1015 q 217 864 368 1015 q 66 501 66 714 q 217 139 66 289 q 580 -12 368 -12 q 942 139 792 -12 q 1093 501 1093 289 q 942 864 1093 714 q 580 1015 792 1015 m 842 876 l 842 747 l 431 747 l 431 600 l 589 600 q 800 542 722 600 q 885 363 885 478 q 794 186 885 255 q 593 127 715 127 l 301 127 l 301 256 l 593 256 q 717 290 672 256 q 755 363 755 319 q 722 438 755 414 q 589 470 680 470 l 366 470 q 320 489 339 470 q 301 535 301 508 l 301 811 q 320 857 301 838 q 366 876 339 876 l 842 876 z "},"⑥":{"ha":1159,"x_min":3,"x_max":1156,"o":"m 580 1078 q 987 909 818 1078 q 1156 501 1156 740 q 987 94 1156 263 q 580 -75 818 -75 q 172 94 341 -75 q 3 501 3 263 q 172 909 3 740 q 580 1078 341 1078 m 580 1015 q 217 864 368 1015 q 66 501 66 714 q 217 139 66 289 q 580 -12 368 -12 q 942 139 792 -12 q 1093 501 1093 289 q 942 864 1093 714 q 580 1015 792 1015 m 421 616 q 522 637 467 637 l 637 637 q 806 566 743 637 q 867 390 867 499 l 867 357 q 806 188 867 249 q 637 127 745 127 l 522 127 q 357 178 420 127 q 292 325 292 233 l 292 667 q 349 817 292 760 q 501 876 408 876 l 822 876 l 822 747 l 501 747 q 441 726 462 747 q 421 667 421 706 l 421 616 m 421 357 q 522 256 421 256 l 637 256 q 715 280 692 256 q 738 357 738 302 l 738 390 q 711 479 738 449 q 637 507 686 507 l 522 507 q 448 479 473 507 q 421 392 422 450 l 421 357 z "},"⑦":{"ha":1159,"x_min":3,"x_max":1156,"o":"m 580 1078 q 987 909 818 1078 q 1156 501 1156 740 q 987 94 1156 263 q 580 -75 818 -75 q 172 94 341 -75 q 3 501 3 263 q 172 909 3 740 q 580 1078 341 1078 m 580 1015 q 217 864 368 1015 q 66 501 66 714 q 217 139 66 289 q 580 -12 368 -12 q 942 139 792 -12 q 1093 501 1093 289 q 942 864 1093 714 q 580 1015 792 1015 m 784 127 l 654 127 l 654 747 l 279 747 l 279 876 l 720 876 q 765 857 746 876 q 784 811 784 838 l 784 127 z "},"⑧":{"ha":1159,"x_min":3,"x_max":1156,"o":"m 580 1078 q 987 909 818 1078 q 1156 501 1156 740 q 987 94 1156 263 q 580 -75 818 -75 q 172 94 341 -75 q 3 501 3 263 q 172 909 3 740 q 580 1078 341 1078 m 580 1015 q 217 864 368 1015 q 66 501 66 714 q 217 139 66 289 q 580 -12 368 -12 q 942 139 792 -12 q 1093 501 1093 289 q 942 864 1093 714 q 580 1015 792 1015 m 642 876 q 793 818 734 876 q 851 667 851 760 q 799 528 851 581 q 867 357 867 471 q 637 127 867 127 l 522 127 q 353 188 414 127 q 292 357 292 249 q 360 527 292 470 q 308 667 308 581 q 366 818 308 760 q 517 876 425 876 l 642 876 m 517 747 q 438 667 438 747 q 458 602 438 627 q 517 576 479 576 l 642 576 q 701 602 680 576 q 722 667 722 627 q 642 747 722 747 l 517 747 m 522 468 q 421 357 421 468 q 444 280 421 303 q 522 256 468 256 l 637 256 q 738 357 738 256 q 637 468 738 468 l 522 468 z "},"⑨":{"ha":1159,"x_min":3,"x_max":1156,"o":"m 580 1078 q 987 909 818 1078 q 1156 501 1156 740 q 987 94 1156 263 q 580 -75 818 -75 q 172 94 341 -75 q 3 501 3 263 q 172 909 3 740 q 580 1078 341 1078 m 580 1015 q 217 864 368 1015 q 66 501 66 714 q 217 139 66 289 q 580 -12 368 -12 q 942 139 792 -12 q 1093 501 1093 289 q 942 864 1093 714 q 580 1015 792 1015 m 738 387 q 637 366 692 366 l 522 366 q 353 437 416 366 q 292 613 292 504 l 292 646 q 353 815 292 754 q 522 876 414 876 l 637 876 q 802 824 739 876 q 867 678 867 770 l 867 336 q 810 186 867 243 q 658 127 751 127 l 337 127 l 337 256 l 658 256 q 718 277 697 256 q 738 336 738 297 l 738 387 m 738 646 q 637 747 738 747 l 522 747 q 444 723 467 747 q 421 646 421 701 l 421 613 q 448 524 421 554 q 522 496 473 496 l 637 496 q 711 524 686 496 q 738 611 737 553 l 738 646 z "},"⊕":{"ha":1159,"x_min":3,"x_max":1156,"o":"m 580 1078 q 987 909 818 1078 q 1156 501 1156 740 q 987 94 1156 263 q 580 -75 818 -75 q 172 94 341 -75 q 3 501 3 263 q 172 909 3 740 q 580 1078 341 1078 m 580 1015 q 217 864 368 1015 q 66 501 66 714 q 217 139 66 289 q 580 -12 368 -12 q 942 139 792 -12 q 1093 501 1093 289 q 942 864 1093 714 q 580 1015 792 1015 m 277 439 l 277 565 l 510 565 l 510 805 l 650 805 l 650 565 l 883 565 l 883 439 l 650 439 l 650 199 l 510 199 l 510 439 l 277 439 z "},"⊖":{"ha":1159,"x_min":3,"x_max":1156,"o":"m 580 1078 q 987 909 818 1078 q 1156 501 1156 740 q 987 94 1156 263 q 580 -75 818 -75 q 172 94 341 -75 q 3 501 3 263 q 172 909 3 740 q 580 1078 341 1078 m 580 1015 q 217 864 368 1015 q 66 501 66 714 q 217 139 66 289 q 580 -12 368 -12 q 942 139 792 -12 q 1093 501 1093 289 q 942 864 1093 714 q 580 1015 792 1015 m 349 435 l 349 568 l 811 568 l 811 435 l 349 435 z "},"⊗":{"ha":1159,"x_min":3,"x_max":1156,"o":"m 580 1078 q 987 909 818 1078 q 1156 501 1156 740 q 987 94 1156 263 q 580 -75 818 -75 q 172 94 341 -75 q 3 501 3 263 q 172 909 3 740 q 580 1078 341 1078 m 580 1015 q 217 864 368 1015 q 66 501 66 714 q 217 139 66 289 q 580 -12 368 -12 q 942 139 792 -12 q 1093 501 1093 289 q 942 864 1093 714 q 580 1015 792 1015 m 410 243 l 321 332 l 486 497 l 316 667 l 415 766 l 585 596 l 749 761 l 839 671 l 674 507 l 844 337 l 745 238 l 575 408 l 410 243 z "},"⊘":{"ha":1159,"x_min":3,"x_max":1156,"o":"m 580 1078 q 987 909 818 1078 q 1156 501 1156 740 q 987 94 1156 263 q 580 -75 818 -75 q 172 94 341 -75 q 3 501 3 263 q 172 909 3 740 q 580 1078 341 1078 m 580 1015 q 217 864 368 1015 q 66 501 66 714 q 217 139 66 289 q 580 -12 368 -12 q 942 139 792 -12 q 1093 501 1093 289 q 942 864 1093 714 q 580 1015 792 1015 m 830 1084 l 426 -113 l 330 -81 l 734 1116 l 830 1084 z "},"⊙":{"ha":1159,"x_min":3,"x_max":1156,"o":"m 580 1078 q 987 909 818 1078 q 1156 501 1156 740 q 987 94 1156 263 q 580 -75 818 -75 q 172 94 341 -75 q 3 501 3 263 q 172 909 3 740 q 580 1078 341 1078 m 580 1015 q 217 864 368 1015 q 66 501 66 714 q 217 139 66 289 q 580 -12 368 -12 q 942 139 792 -12 q 1093 501 1093 289 q 942 864 1093 714 q 580 1015 792 1015 m 520 561 l 639 561 l 639 442 l 520 442 l 520 561 z "},"⊚":{"ha":1159,"x_min":3,"x_max":1156,"o":"m 580 1078 q 987 909 818 1078 q 1156 501 1156 740 q 987 94 1156 263 q 580 -75 818 -75 q 172 94 341 -75 q 3 501 3 263 q 172 909 3 740 q 580 1078 341 1078 m 580 1015 q 217 864 368 1015 q 66 501 66 714 q 217 139 66 289 q 580 -12 368 -12 q 942 139 792 -12 q 1093 501 1093 289 q 942 864 1093 714 q 580 1015 792 1015 m 580 646 q 682 604 640 646 q 724 502 724 562 q 682 399 724 442 q 580 357 640 357 q 477 399 520 357 q 435 502 435 442 q 477 604 435 562 q 580 646 520 646 m 580 566 q 534 547 553 566 q 516 502 516 529 q 535 456 516 475 q 580 438 553 438 q 625 456 606 438 q 644 502 644 475 q 625 547 644 528 q 580 566 606 566 z "},"⊛":{"ha":1159,"x_min":3,"x_max":1156,"o":"m 580 1078 q 987 909 818 1078 q 1156 501 1156 740 q 987 94 1156 263 q 580 -75 818 -75 q 172 94 341 -75 q 3 501 3 263 q 172 909 3 740 q 580 1078 341 1078 m 580 1015 q 217 864 368 1015 q 66 501 66 714 q 217 139 66 289 q 580 -12 368 -12 q 942 139 792 -12 q 1093 501 1093 289 q 942 864 1093 714 q 580 1015 792 1015 m 298 657 l 510 588 l 510 810 l 649 810 l 649 588 l 861 657 l 904 524 l 692 455 l 823 275 l 710 193 l 579 373 l 449 193 l 336 275 l 467 455 l 255 524 l 298 657 z "},"⊜":{"ha":1159,"x_min":3,"x_max":1156,"o":"m 580 1078 q 987 909 818 1078 q 1156 501 1156 740 q 987 94 1156 263 q 580 -75 818 -75 q 172 94 341 -75 q 3 501 3 263 q 172 909 3 740 q 580 1078 341 1078 m 580 1015 q 217 864 368 1015 q 66 501 66 714 q 217 139 66 289 q 580 -12 368 -12 q 942 139 792 -12 q 1093 501 1093 289 q 942 864 1093 714 q 580 1015 792 1015 m 257 259 l 257 392 l 903 392 l 903 259 l 257 259 m 257 612 l 257 745 l 903 745 l 903 612 l 257 612 z "},"⊝":{"ha":1159,"x_min":3,"x_max":1156,"o":"m 580 1078 q 987 909 818 1078 q 1156 501 1156 740 q 987 94 1156 263 q 580 -75 818 -75 q 172 94 341 -75 q 3 501 3 263 q 172 909 3 740 q 580 1078 341 1078 m 580 1015 q 217 864 368 1015 q 66 501 66 714 q 217 139 66 289 q 580 -12 368 -12 q 942 139 792 -12 q 1093 501 1093 289 q 942 864 1093 714 q 580 1015 792 1015 m 349 435 l 349 568 l 757 568 l 757 435 l 349 435 z "},"⓪":{"ha":1159,"x_min":3,"x_max":1156,"o":"m 580 1078 q 987 909 818 1078 q 1156 501 1156 740 q 987 94 1156 263 q 580 -75 818 -75 q 172 94 341 -75 q 3 501 3 263 q 172 909 3 740 q 580 1078 341 1078 m 580 1015 q 217 864 368 1015 q 66 501 66 714 q 217 139 66 289 q 580 -12 368 -12 q 942 139 792 -12 q 1093 501 1093 289 q 942 864 1093 714 q 580 1015 792 1015 m 580 876 q 834 751 752 876 q 895 500 895 657 q 835 254 895 347 q 581 127 753 127 q 325 253 407 126 q 264 502 264 347 q 342 774 264 677 q 580 876 426 876 m 726 680 q 580 747 682 747 q 443 692 487 747 q 393 502 394 632 q 433 323 393 385 q 580 256 477 256 q 726 323 682 256 q 766 500 766 385 q 726 680 766 618 z "},"":{"ha":811,"x_min":68,"x_max":743,"o":"m 208 425 l 603 425 l 603 471 q 551 618 603 567 q 406 669 500 669 q 260 618 311 669 q 208 471 208 566 l 208 425 m 603 284 l 208 284 l 208 0 l 68 0 l 68 471 q 161 718 68 624 q 406 809 253 809 q 650 718 559 809 q 743 471 743 625 l 743 0 l 603 0 l 603 284 z "},"":{"ha":731,"x_min":68,"x_max":699,"o":"m 633 431 q 699 248 699 365 q 450 0 699 0 l 138 0 q 88 20 109 0 q 68 70 68 41 l 68 739 q 88 789 68 768 q 138 809 109 809 l 454 809 q 618 746 555 809 q 623 741 621 743 q 681 583 681 679 q 630 433 681 494 l 633 431 m 208 357 l 208 140 l 450 140 q 559 248 559 140 q 534 332 559 307 q 450 357 509 357 l 208 357 m 208 669 l 208 497 l 454 497 q 519 519 497 497 q 541 583 541 541 q 522 644 541 623 l 519 647 q 454 669 497 669 l 208 669 z "},"":{"ha":668,"x_min":34,"x_max":633,"o":"m 633 804 l 633 665 l 538 665 q 281 633 348 665 q 174 402 174 579 q 281 172 174 226 q 538 140 348 140 l 633 140 l 633 0 l 538 0 q 183 50 275 0 q 34 402 34 132 q 183 755 34 673 q 538 804 275 805 l 633 804 z "},"":{"ha":797,"x_min":68,"x_max":753,"o":"m 208 140 l 406 140 q 595 290 545 140 q 612 405 612 343 q 595 519 612 466 q 406 669 545 669 l 208 669 l 208 140 m 138 0 q 88 20 109 0 q 68 70 68 41 l 68 739 q 88 789 68 768 q 138 809 109 809 l 406 809 q 612 738 526 809 q 727 564 690 674 q 753 405 753 488 q 727 245 753 322 q 612 71 690 136 q 406 0 526 0 l 138 0 z "},"":{"ha":668,"x_min":68,"x_max":631,"o":"m 618 497 l 618 357 l 208 357 l 208 140 l 627 140 l 627 0 l 138 0 q 88 20 109 0 q 68 70 68 41 l 68 739 q 88 789 68 768 q 138 809 109 809 l 631 809 l 631 669 l 208 669 l 208 497 l 618 497 z "},"":{"ha":609,"x_min":68,"x_max":596,"o":"m 576 497 l 576 357 l 208 357 l 208 0 l 68 0 l 68 739 q 88 789 68 768 q 138 809 109 809 l 596 809 l 596 669 l 208 669 l 208 497 l 576 497 z "},"":{"ha":811,"x_min":68,"x_max":743,"o":"m 336 334 l 336 475 l 743 475 l 743 334 q 650 92 742 184 q 406 0 559 0 q 161 92 252 0 q 68 338 68 184 l 68 471 q 161 718 68 624 q 406 809 253 809 l 645 809 l 645 669 l 406 669 q 260 618 311 669 q 208 471 208 566 l 208 338 q 260 191 208 243 q 406 140 311 140 q 551 191 500 140 q 603 334 602 241 l 336 334 z "},"":{"ha":699,"x_min":68,"x_max":631,"o":"m 631 0 l 492 0 l 492 357 l 208 357 l 208 0 l 68 0 l 68 809 l 208 809 l 208 497 l 492 497 l 492 809 l 631 809 l 631 0 z "},"":{"ha":275,"x_min":68,"x_max":208,"o":"m 208 0 l 68 0 l 68 809 l 208 809 l 208 0 z "},"":{"ha":566,"x_min":9,"x_max":471,"o":"m 9 0 l 9 140 l 178 140 q 291 179 252 140 q 331 293 331 219 l 331 809 l 471 809 l 471 293 q 390 81 471 162 q 178 0 310 0 l 9 0 z "},"":{"ha":758,"x_min":68,"x_max":690,"o":"m 550 809 l 690 809 l 690 739 q 576 457 690 564 q 535 424 557 439 q 576 390 557 408 q 690 108 690 283 l 690 0 l 550 0 l 550 108 q 481 288 550 223 q 286 353 412 353 l 208 353 l 208 0 l 68 0 l 68 809 l 208 809 l 208 494 l 286 494 q 481 559 412 494 q 550 739 550 624 l 550 809 z "},"":{"ha":605,"x_min":68,"x_max":587,"o":"m 587 140 l 587 0 l 138 0 q 88 20 109 0 q 68 70 68 41 l 68 809 l 208 809 l 208 140 l 587 140 z "},"":{"ha":880,"x_min":47,"x_max":832,"o":"m 187 -7 l 47 1 l 51 70 l 87 739 q 110 787 88 768 q 160 806 131 807 q 218 768 200 804 l 439 339 l 661 768 q 702 802 674 793 q 755 798 729 811 q 793 738 791 779 l 829 70 l 832 1 l 692 -7 l 689 63 l 667 475 l 502 155 q 472 125 492 136 q 418 121 446 112 q 378 155 391 130 l 212 475 l 191 63 l 187 -7 z "},"":{"ha":771,"x_min":68,"x_max":703,"o":"m 208 0 l 68 0 l 68 739 q 88 789 68 768 q 138 809 109 809 q 197 777 176 809 l 563 282 l 563 809 l 703 809 l 703 70 l 703 70 q 675 14 703 35 q 623 1 652 -3 q 577 28 594 5 l 208 528 l 208 0 z "},"":{"ha":811,"x_min":68,"x_max":743,"o":"m 406 809 q 650 718 559 809 q 743 471 743 625 l 743 338 q 650 92 743 184 q 406 0 559 0 q 161 92 252 0 q 68 338 68 184 l 68 471 q 161 718 68 624 q 406 809 253 809 m 551 618 q 406 669 500 669 q 260 618 311 669 q 208 471 208 566 l 208 338 q 260 191 208 243 q 406 140 311 140 q 551 191 500 140 q 603 338 603 243 l 603 471 q 551 618 603 567 z "},"":{"ha":715,"x_min":68,"x_max":699,"o":"m 208 313 l 208 0 l 68 0 l 68 739 q 88 789 68 768 q 138 809 109 809 l 450 809 q 633 743 567 809 q 699 561 699 677 q 633 378 699 444 q 450 313 567 313 l 208 313 m 208 669 l 208 452 l 450 452 q 534 477 509 452 q 559 561 559 503 q 534 644 559 619 q 450 669 509 669 l 208 669 z "},"":{"ha":811,"x_min":68,"x_max":743,"o":"m 475 149 q 551 191 522 161 q 603 338 603 243 l 603 472 q 551 619 603 568 q 406 670 500 670 q 260 619 311 670 q 208 472 208 567 l 208 338 q 260 191 208 243 q 336 149 290 161 l 475 149 m 475 -157 l 336 -157 l 336 6 q 161 92 230 23 q 68 338 68 185 l 68 472 q 161 718 68 625 q 406 810 253 810 q 650 718 559 810 q 743 472 743 625 l 743 338 q 650 92 743 185 q 475 6 581 23 l 475 -157 z "},"":{"ha":758,"x_min":68,"x_max":690,"o":"m 690 0 l 550 0 l 550 108 q 481 288 550 223 q 285 353 412 353 l 208 353 l 208 0 l 68 0 l 68 739 q 88 789 68 768 q 138 809 109 809 l 454 809 q 618 745 555 809 q 681 581 681 682 q 618 418 681 481 q 580 387 601 400 q 690 108 690 280 l 690 0 m 208 669 l 208 494 l 454 494 q 519 516 497 494 q 541 581 541 538 q 519 647 541 625 q 454 669 497 669 l 208 669 z "},"":{"ha":766,"x_min":68,"x_max":699,"o":"m 670 809 l 670 669 l 383 669 q 244 637 292 669 q 208 572 208 612 q 265 498 208 522 q 391 474 300 485 q 603 424 545 456 q 699 237 699 371 q 601 57 699 123 q 383 0 517 0 l 68 0 l 68 140 l 383 140 q 522 172 475 140 q 559 237 559 197 q 501 311 559 288 q 375 335 467 324 q 164 385 221 353 q 68 572 68 439 q 165 752 68 686 q 383 809 249 809 l 670 809 z "},"":{"ha":675,"x_min":7,"x_max":668,"o":"m 408 0 l 267 0 l 267 669 l 7 669 l 7 809 l 668 809 l 668 669 l 408 669 l 408 0 z "},"":{"ha":811,"x_min":68,"x_max":743,"o":"m 603 809 l 743 809 l 743 338 q 650 92 743 184 q 406 0 559 0 q 161 92 252 0 q 68 338 68 184 l 68 809 l 208 809 l 208 338 q 260 191 208 243 q 406 140 311 140 q 551 191 500 140 q 603 338 603 243 l 603 809 z "},"":{"ha":787,"x_min":7,"x_max":780,"o":"m 159 808 l 393 250 l 628 808 l 780 808 l 457 41 q 420 4 446 15 q 366 4 393 -7 q 328 41 339 15 l 7 808 l 159 808 z "},"":{"ha":1215,"x_min":68,"x_max":1147,"o":"m 677 340 q 724 188 677 242 q 842 140 766 140 q 960 188 919 140 q 1007 340 1007 242 l 1007 809 l 1147 809 l 1147 340 q 1066 96 1147 191 q 842 0 982 0 q 618 96 703 0 q 608 111 613 103 q 596 96 602 103 q 372 0 513 0 q 149 96 233 0 q 68 340 68 191 l 68 809 l 208 809 l 208 340 q 254 188 208 242 q 372 140 296 140 q 490 188 449 140 q 537 340 537 242 l 537 809 l 677 809 l 677 340 z "},"":{"ha":867,"x_min":68,"x_max":800,"o":"m 800 809 l 800 669 l 729 669 q 565 602 625 669 q 504 405 504 532 q 565 208 504 277 q 729 140 625 140 l 800 140 l 800 0 l 729 0 q 460 115 562 0 q 433 149 446 132 q 407 115 421 132 q 138 0 305 0 l 68 0 l 68 140 l 138 140 q 302 208 243 140 q 363 405 363 277 q 302 602 363 532 q 138 669 243 669 l 68 669 l 68 809 l 138 809 q 407 694 305 809 q 433 660 421 678 q 460 694 446 678 q 729 809 562 809 l 800 809 z "},"":{"ha":722,"x_min":68,"x_max":654,"o":"m 367 363 q 473 402 436 365 q 514 516 514 442 l 514 809 l 654 809 l 654 516 q 572 303 654 385 q 431 230 515 246 l 431 0 l 291 0 l 291 230 q 149 303 206 246 q 68 516 68 385 l 68 809 l 208 809 l 208 516 q 248 402 208 442 q 355 363 286 365 l 367 363 z "},"":{"ha":803,"x_min":68,"x_max":735,"o":"m 71 667 l 71 807 l 665 807 q 715 787 694 807 q 735 737 735 766 q 718 691 735 711 l 285 140 l 735 140 l 735 0 l 140 0 l 140 0 q 98 15 117 0 q 71 62 75 33 q 85 113 68 90 l 521 667 l 71 667 z "},"₺":{"ha":905,"x_min":68,"x_max":838,"o":"m 299 606 l 299 663 l 102 614 l 68 749 l 299 808 l 299 995 l 439 995 l 439 843 l 642 895 l 676 759 l 439 699 l 439 642 l 642 692 l 676 557 l 439 497 l 439 147 q 599 223 535 164 q 699 465 690 308 l 838 458 q 618 62 823 176 q 373 1 504 0 l 370 1 q 320 22 340 1 q 299 72 299 43 l 299 462 l 102 412 l 68 547 l 299 606 z "},"Ā":{"ha":882,"x_min":7,"x_max":875,"o":"m 608 387 l 479 810 q 440 850 465 850 q 402 810 415 850 l 155 0 l 7 0 l 269 853 q 332 949 289 913 q 440 990 380 990 q 549 949 500 990 q 612 853 591 913 l 875 0 l 727 0 l 648 258 l 296 258 l 336 387 l 608 387 m 247 1086 l 247 1206 l 635 1206 l 635 1086 l 247 1086 z "},"ā":{"ha":822,"x_min":47,"x_max":754,"o":"m 547 172 l 547 14 q 439 -16 496 -9 q 254 8 341 -27 q 107 125 161 45 q 47 353 47 214 q 145 625 47 526 q 401 720 241 720 q 657 624 560 720 q 754 367 754 527 l 754 0 l 614 0 l 614 367 q 557 526 614 469 q 401 581 503 581 q 244 526 300 581 q 187 353 187 469 q 244 182 187 239 q 401 126 300 126 q 547 172 493 126 m 207 803 l 207 922 l 595 922 l 595 803 l 207 803 z "},"Ă":{"ha":882,"x_min":7,"x_max":875,"o":"m 608 387 l 479 810 q 440 850 465 850 q 402 810 415 850 l 155 0 l 7 0 l 269 853 q 332 949 289 913 q 440 990 380 990 q 549 949 500 990 q 612 853 591 913 l 875 0 l 727 0 l 648 258 l 296 258 l 336 387 l 608 387 m 320 1217 q 359 1164 329 1184 q 441 1141 393 1141 q 522 1164 488 1141 q 562 1217 553 1184 l 662 1190 q 580 1077 642 1119 q 441 1037 519 1037 q 302 1077 361 1037 q 220 1190 239 1119 l 320 1217 z "},"ă":{"ha":822,"x_min":47,"x_max":754,"o":"m 547 172 l 547 14 q 439 -16 496 -9 q 254 8 341 -27 q 107 125 161 45 q 47 353 47 214 q 145 625 47 526 q 401 720 241 720 q 657 624 560 720 q 754 367 754 527 l 754 0 l 614 0 l 614 367 q 557 526 614 469 q 401 581 503 581 q 244 526 300 581 q 187 353 187 469 q 244 182 187 239 q 401 126 300 126 q 547 172 493 126 m 280 934 q 319 880 289 901 q 401 857 353 857 q 482 880 448 857 q 522 934 513 901 l 622 906 q 540 793 602 836 q 401 753 479 753 q 262 793 321 753 q 180 906 199 836 l 280 934 z "},"Ą":{"ha":882,"x_min":7,"x_max":929,"o":"m 608 387 l 479 810 q 440 850 465 850 q 402 810 415 850 l 155 0 l 7 0 l 269 853 q 332 949 289 913 q 440 990 380 990 q 549 949 500 990 q 612 853 591 913 l 875 0 l 727 0 l 648 258 l 296 258 l 336 387 l 608 387 m 850 6 q 794 -73 806 -28 q 803 -142 784 -113 q 882 -153 831 -184 l 929 -229 q 828 -265 884 -267 q 734 -220 771 -264 q 698 -104 688 -168 q 755 6 706 -47 l 850 6 z "},"ą":{"ha":822,"x_min":47,"x_max":813,"o":"m 547 172 l 547 14 q 439 -16 496 -9 q 254 8 341 -27 q 107 125 161 45 q 47 353 47 214 q 145 625 47 526 q 401 720 241 720 q 657 624 560 720 q 754 367 754 527 l 754 0 l 614 0 l 614 367 q 557 526 614 469 q 401 581 503 581 q 244 526 300 581 q 187 353 187 469 q 244 182 187 239 q 401 126 300 126 q 547 172 493 126 m 734 6 q 678 -73 690 -28 q 687 -142 668 -113 q 766 -153 715 -184 l 813 -229 q 712 -265 768 -267 q 618 -220 655 -264 q 582 -104 572 -168 q 640 6 590 -47 l 734 6 z "},"Ć":{"ha":724,"x_min":47,"x_max":724,"o":"m 704 990 l 704 851 l 638 851 q 356 808 457 852 q 187 498 187 734 q 356 186 187 262 q 638 140 460 139 l 704 140 l 704 0 l 638 0 q 260 64 390 0 q 47 498 47 169 q 260 930 47 827 q 638 990 387 991 l 704 990 m 724 1269 l 508 1046 l 360 1046 l 539 1269 l 724 1269 z "},"ć":{"ha":654,"x_min":47,"x_max":638,"o":"m 583 581 l 541 581 q 283 553 350 581 q 216 497 238 534 q 187 353 187 450 q 214 212 187 258 q 277 157 235 176 q 541 126 345 125 l 583 126 l 583 -14 l 541 -14 q 220 29 314 -14 q 94 142 136 68 q 47 353 47 222 q 96 570 47 489 q 229 682 142 644 q 541 720 322 721 l 583 720 l 583 581 m 638 985 l 422 762 l 275 762 l 454 985 l 638 985 z "},"Ĉ":{"ha":724,"x_min":47,"x_max":715,"o":"m 704 990 l 704 851 l 638 851 q 356 808 457 852 q 187 498 187 734 q 356 186 187 262 q 638 140 460 139 l 704 140 l 704 0 l 638 0 q 260 64 390 0 q 47 498 47 169 q 260 930 47 827 q 638 990 387 991 l 704 990 m 243 1047 l 422 1291 q 479 1321 443 1321 q 536 1293 515 1321 l 715 1047 l 568 1047 l 479 1179 l 391 1047 l 243 1047 z "},"ĉ":{"ha":654,"x_min":47,"x_max":637,"o":"m 583 581 l 541 581 q 283 553 350 581 q 216 497 238 534 q 187 353 187 450 q 214 212 187 258 q 277 157 235 176 q 541 126 345 125 l 583 126 l 583 -14 l 541 -14 q 220 29 314 -14 q 94 142 136 68 q 47 353 47 222 q 96 570 47 489 q 229 682 142 644 q 541 720 322 721 l 583 720 l 583 581 m 166 764 l 345 1008 q 402 1038 366 1038 q 458 1009 437 1038 l 637 764 l 490 764 l 402 895 l 314 764 l 166 764 z "},"Ċ":{"ha":724,"x_min":47,"x_max":704,"o":"m 704 990 l 704 851 l 638 851 q 356 808 457 852 q 187 498 187 734 q 356 186 187 262 q 638 140 460 139 l 704 140 l 704 0 l 638 0 q 260 64 390 0 q 47 498 47 169 q 260 930 47 827 q 638 990 387 991 l 704 990 m 489 1233 l 629 1233 l 629 1093 l 489 1093 l 489 1233 z "},"ċ":{"ha":654,"x_min":47,"x_max":583,"o":"m 583 581 l 541 581 q 283 553 350 581 q 216 497 238 534 q 187 353 187 450 q 214 212 187 258 q 277 157 235 176 q 541 126 345 125 l 583 126 l 583 -14 l 541 -14 q 220 29 314 -14 q 94 142 136 68 q 47 353 47 222 q 96 570 47 489 q 229 682 142 644 q 541 720 322 721 l 583 720 l 583 581 m 400 949 l 540 949 l 540 810 l 400 810 l 400 949 z "},"Č":{"ha":724,"x_min":47,"x_max":715,"o":"m 704 990 l 704 851 l 638 851 q 356 808 457 852 q 187 498 187 734 q 356 186 187 262 q 638 140 460 139 l 704 140 l 704 0 l 638 0 q 260 64 390 0 q 47 498 47 169 q 260 930 47 827 q 638 990 387 991 l 704 990 m 391 1308 l 479 1176 l 568 1308 l 715 1308 l 536 1062 q 479 1034 515 1034 q 422 1063 443 1034 l 243 1308 l 391 1308 z "},"č":{"ha":654,"x_min":47,"x_max":633,"o":"m 583 581 l 541 581 q 283 553 350 581 q 216 497 238 534 q 187 353 187 450 q 214 212 187 258 q 277 157 235 176 q 541 126 345 125 l 583 126 l 583 -14 l 541 -14 q 220 29 314 -14 q 94 142 136 68 q 47 353 47 222 q 96 570 47 489 q 229 682 142 644 q 541 720 322 721 l 583 720 l 583 581 m 310 1024 l 398 892 l 486 1024 l 633 1024 l 454 779 q 398 750 433 750 q 340 780 361 750 l 162 1024 l 310 1024 z "},"Ď":{"ha":916,"x_min":68,"x_max":868,"o":"m 208 0 l 68 0 l 68 809 q 121 939 68 885 q 252 993 176 993 l 445 993 q 696 906 591 993 q 836 693 791 827 q 868 496 868 600 q 836 300 868 394 q 696 87 791 165 q 445 0 591 0 l 276 0 l 276 140 l 445 140 q 610 199 541 140 q 704 345 673 253 q 728 496 728 416 q 704 649 728 578 q 610 793 673 740 q 445 852 541 852 l 252 852 q 221 840 233 852 q 208 809 208 827 l 208 0 m 380 1294 l 469 1162 l 557 1294 l 704 1294 l 525 1048 q 469 1020 504 1020 q 411 1050 432 1020 l 233 1294 l 380 1294 z "},"ď":{"ha":1029,"x_min":68,"x_max":996,"o":"m 567 530 q 421 576 513 576 q 264 520 320 576 q 208 349 208 463 q 264 176 208 233 q 421 121 320 121 q 578 176 523 121 q 635 335 635 233 l 635 990 l 774 990 l 774 335 q 677 78 774 175 q 421 -18 581 -18 q 165 77 262 -18 q 68 349 68 176 q 127 576 68 488 q 274 694 181 657 q 459 718 361 729 q 567 688 517 710 l 567 530 m 935 663 l 870 663 q 918 850 911 756 l 856 850 l 856 989 l 996 989 l 996 850 q 935 663 982 756 z "},"Đ":{"ha":977,"x_min":7,"x_max":929,"o":"m 129 563 l 129 809 q 182 939 129 885 q 313 993 237 993 l 506 993 q 758 906 652 993 q 897 693 852 827 q 929 496 929 600 q 897 300 929 394 q 758 87 852 165 q 506 0 652 0 l 313 0 q 182 54 237 0 q 129 184 129 108 l 129 430 l 7 430 l 7 563 l 129 563 m 269 563 l 551 563 l 551 430 l 269 430 l 269 184 q 282 153 269 166 q 313 140 295 140 l 506 140 q 671 199 602 140 q 765 345 734 253 q 789 496 789 416 q 765 649 789 578 q 671 793 734 740 q 506 852 602 852 l 313 852 q 282 840 294 852 q 269 809 269 827 l 269 563 z "},"đ":{"ha":842,"x_min":34,"x_max":836,"o":"m 741 779 l 741 335 q 644 78 741 175 q 387 -18 547 -18 q 132 77 228 -18 q 34 349 34 176 q 94 576 34 488 q 240 694 147 657 q 425 718 328 729 q 533 688 483 710 l 533 530 q 387 576 479 576 q 231 520 286 576 q 174 349 174 463 q 231 176 174 233 q 387 121 286 121 q 544 176 489 121 q 601 335 601 233 l 601 779 l 345 779 l 345 902 l 601 902 l 601 990 l 741 990 l 741 902 l 836 902 l 836 779 l 741 779 z "},"Ē":{"ha":722,"x_min":68,"x_max":696,"o":"m 669 589 l 669 462 l 208 462 l 208 184 q 221 153 208 166 q 252 140 234 140 l 690 140 l 690 0 l 252 0 q 121 54 176 0 q 68 184 68 108 l 68 809 q 121 939 68 885 q 252 993 176 993 l 696 993 l 696 852 l 252 852 q 221 840 234 852 q 208 809 208 827 l 208 589 l 669 589 m 188 1086 l 188 1206 l 576 1206 l 576 1086 l 188 1086 z "},"ē":{"ha":786,"x_min":41,"x_max":755,"o":"m 591 480 q 543 536 571 514 q 399 577 488 577 q 239 521 296 577 q 181 364 182 464 q 216 225 182 288 q 237 198 225 210 q 393 140 293 141 l 683 140 l 683 0 l 392 0 q 138 100 233 3 q 41 359 41 199 q 140 620 41 520 q 399 717 237 717 q 627 647 535 717 q 748 452 720 576 q 741 399 755 425 q 700 366 727 374 l 284 247 l 245 382 l 591 480 m 201 803 l 201 922 l 589 922 l 589 803 l 201 803 z "},"Ĕ":{"ha":779,"x_min":68,"x_max":696,"o":"m 669 589 l 669 462 l 208 462 l 208 184 q 221 153 208 166 q 252 140 234 140 l 690 140 l 690 0 l 252 0 q 121 54 176 0 q 68 184 68 108 l 68 809 q 121 939 68 885 q 252 993 176 993 l 696 993 l 696 852 l 252 852 q 221 840 234 852 q 208 809 208 827 l 208 589 l 669 589 m 281 1217 q 321 1164 290 1184 q 402 1141 355 1141 q 484 1164 450 1141 q 523 1217 514 1184 l 623 1190 q 541 1077 604 1119 q 402 1037 481 1037 q 263 1077 323 1037 q 181 1190 201 1119 l 281 1217 z "},"ĕ":{"ha":791,"x_min":36,"x_max":751,"o":"m 586 480 q 538 536 566 514 q 395 577 484 577 q 234 521 291 577 q 176 364 178 464 q 211 225 177 288 q 233 198 220 210 q 389 140 288 141 l 678 140 l 678 0 l 387 0 q 133 100 229 3 q 36 359 36 199 q 135 620 36 520 q 395 717 233 717 q 622 647 530 717 q 743 452 715 576 q 736 399 751 425 q 695 366 722 374 l 279 247 l 241 382 l 586 480 m 277 934 q 316 880 286 901 q 397 857 350 857 q 479 880 445 857 q 518 934 509 901 l 618 906 q 536 793 599 836 q 397 753 476 753 q 258 793 318 753 q 176 906 196 836 l 277 934 z "},"Ė":{"ha":779,"x_min":68,"x_max":696,"o":"m 669 589 l 669 462 l 208 462 l 208 184 q 221 153 208 166 q 252 140 234 140 l 690 140 l 690 0 l 252 0 q 121 54 176 0 q 68 184 68 108 l 68 809 q 121 939 68 885 q 252 993 176 993 l 696 993 l 696 852 l 252 852 q 221 840 234 852 q 208 809 208 827 l 208 589 l 669 589 m 332 1233 l 472 1233 l 472 1093 l 332 1093 l 332 1233 z "},"ė":{"ha":791,"x_min":36,"x_max":751,"o":"m 586 480 q 538 536 566 514 q 395 577 484 577 q 234 521 291 577 q 176 364 178 464 q 211 225 177 288 q 233 198 220 210 q 389 140 288 141 l 678 140 l 678 0 l 387 0 q 133 100 229 3 q 36 359 36 199 q 135 620 36 520 q 395 717 233 717 q 622 647 530 717 q 743 452 715 576 q 736 399 751 425 q 695 366 722 374 l 279 247 l 241 382 l 586 480 m 328 949 l 467 949 l 467 810 l 328 810 l 328 949 z "},"Ę":{"ha":779,"x_min":68,"x_max":736,"o":"m 557 0 l 252 0 q 121 54 176 0 q 68 184 68 108 l 68 809 q 121 939 68 885 q 252 993 176 993 l 736 993 l 736 852 l 252 852 q 221 840 234 852 q 208 809 208 827 l 208 589 l 716 589 l 716 462 l 208 462 l 208 184 q 221 153 208 166 q 252 140 234 140 l 731 140 l 731 0 l 650 0 q 602 -73 612 -33 q 610 -142 591 -113 q 689 -153 639 -184 l 736 -229 q 635 -265 691 -267 q 541 -220 578 -264 q 505 -104 496 -168 q 557 0 513 -50 z "},"ę":{"ha":791,"x_min":47,"x_max":752,"o":"m 587 473 q 541 526 568 505 q 401 567 488 567 q 244 512 300 567 q 188 359 189 456 l 587 473 m 532 0 l 394 0 q 143 98 237 3 q 47 353 47 197 q 145 611 47 513 q 401 707 241 707 q 625 637 534 707 q 745 446 718 568 q 738 393 752 418 q 696 359 724 368 l 222 223 q 243 197 231 208 q 395 140 297 141 l 681 140 l 681 0 l 619 0 q 612 -19 615 -9 q 621 -87 602 -59 q 700 -99 650 -130 l 747 -174 q 646 -211 702 -212 q 552 -166 589 -210 q 516 -50 507 -114 q 532 0 519 -24 z "},"Ě":{"ha":779,"x_min":68,"x_max":696,"o":"m 669 589 l 669 462 l 208 462 l 208 184 q 221 153 208 166 q 252 140 234 140 l 690 140 l 690 0 l 252 0 q 121 54 176 0 q 68 184 68 108 l 68 809 q 121 939 68 885 q 252 993 176 993 l 696 993 l 696 852 l 252 852 q 221 840 234 852 q 208 809 208 827 l 208 589 l 669 589 m 315 1294 l 403 1162 l 491 1294 l 638 1294 l 459 1048 q 403 1020 438 1020 q 345 1050 366 1020 l 167 1294 l 315 1294 z "},"ě":{"ha":791,"x_min":36,"x_max":751,"o":"m 586 480 q 538 536 566 514 q 395 577 484 577 q 234 521 291 577 q 176 364 178 464 q 211 225 177 288 q 233 198 220 210 q 389 140 288 141 l 678 140 l 678 0 l 387 0 q 133 100 229 3 q 36 359 36 199 q 135 620 36 520 q 395 717 233 717 q 622 647 530 717 q 743 452 715 576 q 736 399 751 425 q 695 366 722 374 l 279 247 l 241 382 l 586 480 m 309 1010 l 397 879 l 486 1010 l 633 1010 l 454 765 q 397 736 433 736 q 340 766 361 736 l 161 1010 l 309 1010 z "},"Ĝ":{"ha":929,"x_min":54,"x_max":875,"o":"m 395 432 l 395 558 l 804 558 q 854 538 833 558 q 875 488 875 517 l 875 410 q 762 111 875 223 q 465 0 651 0 q 167 111 277 0 q 54 410 54 223 l 54 581 q 168 880 54 766 q 465 990 278 990 l 749 990 l 749 850 l 465 850 q 267 781 336 850 q 194 581 194 708 l 194 410 q 266 210 194 281 q 465 140 336 140 q 663 210 593 140 q 734 432 734 281 l 395 432 m 229 1047 l 408 1291 q 465 1321 429 1321 q 522 1293 500 1321 l 701 1047 l 553 1047 l 465 1179 l 377 1047 l 229 1047 z "},"ĝ":{"ha":822,"x_min":47,"x_max":754,"o":"m 551 180 l 551 25 q 401 -1 483 -1 q 145 96 241 -1 q 47 353 47 193 q 145 624 47 526 q 401 720 241 720 q 656 624 560 720 q 754 353 754 526 l 754 69 q 657 -187 754 -90 q 402 -284 561 -283 l 184 -284 l 184 -144 l 402 -144 q 558 -89 503 -144 q 614 60 612 -35 q 612 58 613 59 l 614 60 l 614 317 q 614 323 614 320 l 614 353 q 557 525 614 468 q 401 580 503 580 q 244 525 300 580 q 187 353 187 468 q 244 195 187 252 q 401 139 300 139 q 551 180 495 139 m 165 764 l 344 1008 q 401 1038 365 1038 q 458 1009 437 1038 l 637 764 l 490 764 l 401 895 l 313 764 l 165 764 z "},"Ğ":{"ha":929,"x_min":54,"x_max":875,"o":"m 395 432 l 395 558 l 804 558 q 854 538 833 558 q 875 488 875 517 l 875 410 q 762 111 875 223 q 465 0 651 0 q 167 111 277 0 q 54 410 54 223 l 54 581 q 168 880 54 766 q 465 990 278 990 l 749 990 l 749 850 l 465 850 q 267 781 336 850 q 194 581 194 708 l 194 410 q 266 210 194 281 q 465 140 336 140 q 663 210 593 140 q 734 432 734 281 l 395 432 m 344 1217 q 383 1164 353 1184 q 465 1141 417 1141 q 546 1164 512 1141 q 585 1217 576 1184 l 686 1190 q 604 1077 666 1119 q 465 1037 543 1037 q 326 1077 385 1037 q 243 1190 263 1119 l 344 1217 z "},"ğ":{"ha":822,"x_min":47,"x_max":754,"o":"m 551 180 l 551 25 q 401 -1 483 -1 q 145 96 241 -1 q 47 353 47 193 q 145 624 47 526 q 401 720 241 720 q 656 624 560 720 q 754 353 754 526 l 754 69 q 657 -187 754 -90 q 402 -284 561 -283 l 184 -284 l 184 -144 l 402 -144 q 558 -89 503 -144 q 614 60 612 -35 q 612 58 613 59 l 614 60 l 614 317 q 614 323 614 320 l 614 353 q 557 525 614 468 q 401 580 503 580 q 244 525 300 580 q 187 353 187 468 q 244 195 187 252 q 401 139 300 139 q 551 180 495 139 m 280 934 q 319 880 289 901 q 401 857 353 857 q 482 880 448 857 q 522 934 513 901 l 622 906 q 540 793 602 836 q 401 753 479 753 q 262 793 321 753 q 180 906 199 836 l 280 934 z "},"Ġ":{"ha":929,"x_min":54,"x_max":875,"o":"m 395 432 l 395 558 l 804 558 q 854 538 833 558 q 875 488 875 517 l 875 410 q 762 111 875 223 q 465 0 651 0 q 167 111 277 0 q 54 410 54 223 l 54 581 q 168 880 54 766 q 465 990 278 990 l 749 990 l 749 850 l 465 850 q 267 781 336 850 q 194 581 194 708 l 194 410 q 266 210 194 281 q 465 140 336 140 q 663 210 593 140 q 734 432 734 281 l 395 432 m 395 1233 l 534 1233 l 534 1093 l 395 1093 l 395 1233 z "},"ġ":{"ha":822,"x_min":47,"x_max":754,"o":"m 551 180 l 551 25 q 401 -1 483 -1 q 145 96 241 -1 q 47 353 47 193 q 145 624 47 526 q 401 720 241 720 q 656 624 560 720 q 754 353 754 526 l 754 69 q 657 -187 754 -90 q 402 -284 561 -283 l 184 -284 l 184 -144 l 402 -144 q 558 -89 503 -144 q 614 60 612 -35 q 612 58 613 59 l 614 60 l 614 317 q 614 323 614 320 l 614 353 q 557 525 614 468 q 401 580 503 580 q 244 525 300 580 q 187 353 187 468 q 244 195 187 252 q 401 139 300 139 q 551 180 495 139 m 331 949 l 471 949 l 471 810 l 331 810 l 331 949 z "},"Ģ":{"ha":929,"x_min":54,"x_max":875,"o":"m 395 432 l 395 558 l 804 558 q 854 538 833 558 q 875 488 875 517 l 875 410 q 762 111 875 223 q 465 0 651 0 q 167 111 277 0 q 54 410 54 223 l 54 581 q 168 880 54 766 q 465 990 278 990 l 749 990 l 749 850 l 465 850 q 267 781 336 850 q 194 581 194 708 l 194 410 q 266 210 194 281 q 465 140 336 140 q 663 210 593 140 q 734 432 734 281 l 395 432 m 487 -343 l 422 -343 q 470 -197 463 -270 l 408 -197 l 408 -57 l 548 -57 l 548 -197 q 487 -343 534 -270 z "},"ģ":{"ha":822,"x_min":47,"x_max":754,"o":"m 551 180 l 551 25 q 401 -1 483 -1 q 145 96 241 -1 q 47 353 47 193 q 145 624 47 526 q 401 720 241 720 q 656 624 560 720 q 754 353 754 526 l 754 69 q 657 -187 754 -90 q 402 -284 561 -283 l 184 -284 l 184 -144 l 402 -144 q 558 -89 503 -144 q 614 60 612 -35 q 612 58 613 59 l 614 60 l 614 317 q 614 323 614 320 l 614 353 q 557 525 614 468 q 401 580 503 580 q 244 525 300 580 q 187 353 187 468 q 244 195 187 252 q 401 139 300 139 q 551 180 495 139 m 384 1128 l 448 1128 q 401 941 408 1034 l 463 941 l 463 801 l 323 801 l 323 941 q 384 1128 336 1034 z "},"Ĥ":{"ha":814,"x_min":68,"x_max":747,"o":"m 606 990 l 747 990 l 747 0 l 606 0 l 606 990 m 613 460 l 208 460 l 208 0 l 68 0 l 68 990 l 208 990 l 208 587 l 613 587 l 613 460 m 172 1047 l 350 1291 q 408 1321 371 1321 q 464 1293 443 1321 l 643 1047 l 496 1047 l 408 1179 l 319 1047 l 172 1047 z "},"ĥ":{"ha":815,"x_min":68,"x_max":747,"o":"m 208 660 q 408 720 292 720 q 650 625 553 720 q 747 367 747 526 l 747 0 l 608 0 l 608 367 q 551 526 608 469 q 408 581 496 581 q 264 526 320 581 q 208 367 208 469 l 208 0 l 68 0 l 68 990 l 208 990 l 208 660 m 172 1028 l 351 1272 q 408 1302 372 1302 q 465 1274 444 1302 l 644 1028 l 496 1028 l 408 1160 l 320 1028 l 172 1028 z "},"Ħ":{"ha":920,"x_min":7,"x_max":913,"o":"m 800 735 l 800 0 l 659 0 l 659 460 l 260 460 l 260 0 l 121 0 l 121 735 l 7 735 l 7 854 l 121 854 l 121 990 l 260 990 l 260 854 l 659 854 l 659 990 l 800 990 l 800 854 l 913 854 l 913 735 l 800 735 m 260 735 l 260 587 l 659 587 l 659 735 l 260 735 z "},"ħ":{"ha":883,"x_min":7,"x_max":815,"o":"m 109 914 l 109 990 l 248 990 l 248 914 l 540 914 l 540 795 l 248 795 l 248 646 q 462 707 336 707 q 718 611 621 707 q 815 353 815 513 l 815 0 l 675 0 l 675 353 q 618 512 675 455 q 462 567 564 567 q 305 512 361 567 q 248 357 250 456 l 248 0 l 109 0 l 109 795 l 7 795 l 7 914 l 109 914 z "},"Ĩ":{"ha":302,"x_min":-98,"x_max":401,"o":"m 221 0 l 81 0 l 81 990 l 221 990 l 221 0 m 12 1038 l -98 1061 l -87 1116 q -40 1198 -77 1164 q 48 1234 -1 1234 q 176 1189 96 1234 q 252 1156 233 1156 q 270 1163 262 1156 q 280 1182 277 1168 l 291 1238 l 401 1215 l 391 1160 q 343 1076 380 1108 q 252 1044 304 1043 q 121 1090 203 1044 q 48 1121 66 1121 q 36 1115 43 1121 q 23 1094 26 1106 l 12 1038 z "},"ĩ":{"ha":275,"x_min":-112,"x_max":388,"o":"m 208 0 l 68 0 l 68 707 l 208 707 l 208 0 m -1 755 l -112 778 l -100 833 q -54 915 -91 881 q 35 950 -15 950 q 162 905 82 950 q 239 873 220 873 q 256 880 249 873 q 267 899 264 885 l 277 954 l 388 932 l 377 877 q 330 793 366 825 q 238 760 291 760 q 107 806 189 760 q 35 838 52 838 q 22 831 30 838 q 9 810 12 823 l -1 755 z "},"Ī":{"ha":302,"x_min":-43,"x_max":345,"o":"m 221 0 l 81 0 l 81 990 l 221 990 l 221 0 m -43 1086 l -43 1206 l 345 1206 l 345 1086 l -43 1086 z "},"ī":{"ha":275,"x_min":-56,"x_max":332,"o":"m 208 0 l 68 0 l 68 707 l 208 707 l 208 0 m -56 803 l -56 922 l 332 922 l 332 803 l -56 803 z "},"Ĭ":{"ha":302,"x_min":-70,"x_max":372,"o":"m 221 0 l 81 0 l 81 990 l 221 990 l 221 0 m 31 1217 q 70 1164 39 1184 q 151 1141 104 1141 q 233 1164 199 1141 q 272 1217 263 1184 l 372 1190 q 290 1077 353 1119 q 151 1037 230 1037 q 12 1077 72 1037 q -70 1190 -50 1119 l 31 1217 z "},"ĭ":{"ha":275,"x_min":-83,"x_max":359,"o":"m 208 0 l 68 0 l 68 707 l 208 707 l 208 0 m 17 934 q 56 880 26 901 q 138 857 90 857 q 219 880 185 857 q 258 934 250 901 l 359 906 q 277 793 339 836 q 138 753 216 753 q -1 793 58 753 q -83 906 -64 836 l 17 934 z "},"Į":{"ha":302,"x_min":41,"x_max":282,"o":"m 221 0 l 81 0 l 81 990 l 221 990 l 221 0 m 203 6 q 147 -73 159 -28 q 156 -142 137 -113 q 235 -153 184 -184 l 282 -229 q 181 -265 237 -267 q 87 -220 124 -264 q 51 -104 41 -168 q 109 6 59 -47 l 203 6 z "},"į":{"ha":275,"x_min":30,"x_max":271,"o":"m 208 0 l 68 0 l 68 707 l 208 707 l 208 0 m 208 850 l 68 850 l 68 990 l 208 990 l 208 850 m 192 6 q 136 -73 147 -28 q 144 -142 125 -113 q 223 -153 173 -184 l 271 -229 q 170 -265 225 -267 q 75 -220 113 -264 q 39 -104 30 -168 q 97 6 47 -47 l 192 6 z "},"İ":{"ha":302,"x_min":81,"x_max":221,"o":"m 221 0 l 81 0 l 81 990 l 221 990 l 221 0 m 81 1253 l 221 1253 l 221 1114 l 81 1114 l 81 1253 z "},"Ĳ":{"ha":925,"x_min":81,"x_max":857,"o":"m 221 0 l 81 0 l 81 990 l 221 990 l 221 0 m 377 0 l 377 140 l 505 140 q 661 195 606 140 q 718 353 718 252 l 718 990 l 857 990 l 857 353 q 760 97 857 195 q 505 0 664 0 l 377 0 z "},"ĳ":{"ha":629,"x_min":68,"x_max":548,"o":"m 208 0 l 68 0 l 68 707 l 208 707 l 208 0 m 208 850 l 68 850 l 68 990 l 208 990 l 208 850 m 183 -283 l 183 -144 l 195 -144 q 351 -88 296 -144 q 408 70 408 -32 l 408 707 l 548 707 l 548 70 q 450 -186 548 -89 q 195 -283 355 -283 l 183 -283 m 548 850 l 408 850 l 408 990 l 548 990 l 548 850 z "},"Ĵ":{"ha":623,"x_min":75,"x_max":713,"o":"m 75 0 l 75 140 l 203 140 q 359 195 304 140 q 415 353 415 252 l 415 990 l 555 990 l 555 353 q 458 97 555 195 q 203 0 361 0 l 75 0 m 242 1047 l 420 1291 q 478 1321 441 1321 q 534 1293 513 1321 l 713 1047 l 566 1047 l 478 1179 l 390 1047 l 242 1047 z "},"ĵ":{"ha":354,"x_min":-167,"x_max":435,"o":"m -167 -283 l -167 -144 l -80 -144 q 76 -88 21 -144 q 133 70 133 -32 l 133 707 l 273 707 l 273 70 q 175 -186 273 -89 q -80 -283 79 -283 l -167 -283 m -37 764 l 142 1008 q 199 1038 163 1038 q 256 1009 235 1038 l 435 764 l 288 764 l 199 895 l 111 764 l -37 764 z "},"Ķ":{"ha":794,"x_min":68,"x_max":758,"o":"m 208 0 l 68 0 l 68 990 l 208 990 l 208 0 m 362 495 q 365 490 362 492 l 758 0 l 587 0 l 274 383 q 260 397 268 389 l 260 397 q 222 495 222 440 q 260 593 222 550 l 260 593 q 274 607 268 602 l 587 990 l 758 990 l 365 500 q 362 495 362 498 m 442 -343 l 378 -343 q 425 -197 418 -270 l 363 -197 l 363 -57 l 503 -57 l 503 -197 q 442 -343 490 -270 z "},"ķ":{"ha":754,"x_min":68,"x_max":686,"o":"m 208 0 l 68 0 l 68 990 l 208 990 l 208 0 m 494 0 l 267 241 q 254 256 261 247 l 253 256 q 216 353 216 298 q 253 451 216 408 l 254 451 q 267 465 261 460 l 493 707 l 684 707 l 358 359 q 355 353 355 356 q 358 348 355 351 l 686 0 l 494 0 m 420 -343 l 355 -343 q 403 -197 396 -270 l 341 -197 l 341 -57 l 481 -57 l 481 -197 q 420 -343 467 -270 z "},"ĸ":{"ha":754,"x_min":68,"x_max":753,"o":"m 208 0 l 68 0 l 68 707 l 208 707 l 208 0 m 542 0 l 267 241 q 254 256 261 247 l 253 256 q 216 353 216 298 q 253 451 216 408 l 254 451 q 267 465 261 460 l 541 707 l 752 707 q 358 359 420 411 q 355 353 355 356 q 358 348 355 351 l 753 0 l 542 0 z "},"Ĺ":{"ha":699,"x_min":68,"x_max":644,"o":"m 68 990 l 208 990 l 208 183 q 220 153 208 165 q 251 140 233 140 l 644 140 l 644 0 l 252 0 q 121 54 176 0 q 68 184 68 108 l 68 990 m 622 1269 l 406 1046 l 258 1046 l 437 1269 l 622 1269 z "},"ĺ":{"ha":302,"x_min":-31,"x_max":333,"o":"m 221 0 l 81 0 l 81 990 l 221 990 l 221 0 m 333 1302 l 117 1079 l -31 1079 l 149 1302 l 333 1302 z "},"Ļ":{"ha":699,"x_min":68,"x_max":644,"o":"m 68 990 l 208 990 l 208 183 q 220 153 208 165 q 251 140 233 140 l 644 140 l 644 0 l 252 0 q 121 54 176 0 q 68 184 68 108 l 68 990 m 389 -343 l 324 -343 q 372 -197 365 -270 l 310 -197 l 310 -57 l 450 -57 l 450 -197 q 389 -343 436 -270 z "},"ļ":{"ha":302,"x_min":81,"x_max":221,"o":"m 221 0 l 81 0 l 81 990 l 221 990 l 221 0 m 160 -343 l 96 -343 q 143 -197 136 -270 l 81 -197 l 81 -57 l 221 -57 l 221 -197 q 160 -343 208 -270 z "},"Ľ":{"ha":652,"x_min":68,"x_max":644,"o":"m 68 990 l 208 990 l 208 183 q 220 153 208 165 q 251 140 233 140 l 644 140 l 644 0 l 252 0 q 121 54 176 0 q 68 184 68 108 l 68 990 m 561 663 l 496 663 q 544 850 537 756 l 482 850 l 482 989 l 622 989 l 622 850 q 561 663 608 756 z "},"ľ":{"ha":433,"x_min":81,"x_max":421,"o":"m 221 0 l 81 0 l 81 990 l 221 990 l 221 0 m 360 663 l 296 663 q 343 850 336 756 l 281 850 l 281 989 l 421 989 l 421 850 q 360 663 408 756 z "},"Ŀ":{"ha":699,"x_min":68,"x_max":656,"o":"m 68 990 l 208 990 l 208 183 q 220 153 208 165 q 251 140 233 140 l 644 140 l 644 0 l 252 0 q 121 54 176 0 q 68 184 68 108 l 68 990 m 537 554 l 656 554 l 656 435 l 537 435 l 537 554 z "},"ŀ":{"ha":454,"x_min":81,"x_max":430,"o":"m 221 0 l 81 0 l 81 990 l 221 990 l 221 0 m 311 554 l 430 554 l 430 435 l 311 435 l 311 554 z "},"Ł":{"ha":762,"x_min":7,"x_max":755,"o":"m 131 530 l 131 990 l 271 990 l 271 612 l 469 729 l 469 596 l 271 479 l 271 183 q 283 153 271 165 q 314 140 296 140 l 755 140 l 755 0 l 315 0 q 184 54 239 0 q 131 184 131 108 l 131 397 l 7 325 l 7 458 l 131 530 z "},"ł":{"ha":476,"x_min":7,"x_max":469,"o":"m 308 501 l 308 0 l 168 0 l 168 420 l 7 325 l 7 458 l 168 553 l 168 990 l 308 990 l 308 634 l 469 729 l 469 596 l 308 501 z "},"Ń":{"ha":905,"x_min":68,"x_max":837,"o":"m 208 0 l 68 0 l 68 806 q 113 935 68 883 q 237 990 161 990 q 356 952 311 990 q 429 825 404 913 l 610 204 q 636 147 623 161 q 663 140 643 140 q 692 153 686 140 q 697 184 697 162 l 697 990 l 837 990 l 837 184 q 792 52 837 102 q 663 0 745 0 q 538 48 586 0 q 476 165 498 87 l 295 786 q 279 833 283 827 q 242 850 269 850 q 208 806 208 850 l 208 0 m 694 1269 l 479 1046 l 331 1046 l 510 1269 l 694 1269 z "},"ń":{"ha":842,"x_min":68,"x_max":774,"o":"m 774 0 l 635 0 l 635 367 q 578 526 635 469 q 421 581 523 581 q 264 526 320 581 q 208 367 208 469 l 208 0 l 68 0 l 68 367 q 165 625 68 526 q 421 720 262 720 q 677 625 581 720 q 774 367 774 526 l 774 0 m 663 985 l 448 762 l 300 762 l 479 985 l 663 985 z "},"Ņ":{"ha":905,"x_min":68,"x_max":837,"o":"m 208 0 l 68 0 l 68 806 q 113 935 68 883 q 237 990 161 990 q 356 952 311 990 q 429 825 404 913 l 610 204 q 636 147 623 161 q 663 140 643 140 q 692 153 686 140 q 697 184 697 162 l 697 990 l 837 990 l 837 184 q 792 52 837 102 q 663 0 745 0 q 538 48 586 0 q 476 165 498 87 l 295 786 q 279 833 283 827 q 242 850 269 850 q 208 806 208 850 l 208 0 m 461 -343 l 397 -343 q 444 -197 437 -270 l 382 -197 l 382 -57 l 522 -57 l 522 -197 q 461 -343 509 -270 z "},"ņ":{"ha":842,"x_min":68,"x_max":774,"o":"m 774 0 l 635 0 l 635 367 q 578 526 635 469 q 421 581 523 581 q 264 526 320 581 q 208 367 208 469 l 208 0 l 68 0 l 68 367 q 165 625 68 526 q 421 720 262 720 q 677 625 581 720 q 774 367 774 526 l 774 0 m 430 -343 l 366 -343 q 413 -197 406 -270 l 351 -197 l 351 -57 l 491 -57 l 491 -197 q 430 -343 477 -270 z "},"Ň":{"ha":905,"x_min":68,"x_max":837,"o":"m 208 0 l 68 0 l 68 806 q 113 935 68 883 q 237 990 161 990 q 356 952 311 990 q 429 825 404 913 l 610 204 q 636 147 623 161 q 663 140 643 140 q 692 153 686 140 q 697 184 697 162 l 697 990 l 837 990 l 837 184 q 792 52 837 102 q 663 0 745 0 q 538 48 586 0 q 476 165 498 87 l 295 786 q 279 833 283 827 q 242 850 269 850 q 208 806 208 850 l 208 0 m 365 1294 l 453 1162 l 541 1294 l 688 1294 l 509 1048 q 453 1020 488 1020 q 395 1050 416 1020 l 217 1294 l 365 1294 z "},"ň":{"ha":842,"x_min":68,"x_max":774,"o":"m 774 0 l 635 0 l 635 367 q 578 526 635 469 q 421 581 523 581 q 264 526 320 581 q 208 367 208 469 l 208 0 l 68 0 l 68 367 q 165 625 68 526 q 421 720 262 720 q 677 625 581 720 q 774 367 774 526 l 774 0 m 334 1010 l 422 879 l 510 1010 l 657 1010 l 478 765 q 422 736 457 736 q 364 766 385 736 l 186 1010 l 334 1010 z "},"ŉ":{"ha":901,"x_min":34,"x_max":813,"o":"m 813 0 l 673 0 l 673 367 q 616 526 673 469 q 460 581 562 581 q 303 526 359 581 q 246 367 246 469 l 246 0 l 106 0 l 106 367 q 204 625 106 526 q 460 720 300 720 q 715 625 619 720 q 813 367 813 526 l 813 0 m 113 663 l 48 663 q 96 850 89 756 l 34 850 l 34 989 l 174 989 l 174 850 q 113 663 160 756 z "},"Ŋ":{"ha":879,"x_min":96,"x_max":787,"o":"m 96 990 l 219 990 l 219 918 q 441 990 307 990 q 695 890 602 990 q 787 621 787 789 l 787 335 q 720 79 787 167 q 393 10 616 -55 l 334 27 l 368 144 l 427 127 q 623 153 570 86 q 665 335 665 208 l 665 621 q 605 806 665 742 q 441 867 549 867 q 279 806 335 867 q 219 621 219 742 l 219 -1 l 96 -1 l 96 990 z "},"ŋ":{"ha":796,"x_min":100,"x_max":696,"o":"m 100 707 l 223 707 l 223 665 q 398 707 293 707 q 618 631 541 707 q 696 415 696 555 l 696 -33 q 648 -219 696 -151 q 416 -302 575 -323 l 356 -294 l 372 -172 l 433 -180 q 548 -149 517 -193 q 574 -33 574 -113 l 574 415 q 532 543 574 503 q 398 584 491 584 q 264 543 306 584 q 223 418 224 504 l 223 -2 l 100 -2 l 100 707 z "},"Ō":{"ha":956,"x_min":68,"x_max":888,"o":"m 478 990 q 775 880 665 990 q 888 581 888 767 l 888 410 q 775 111 888 223 q 478 0 665 0 q 180 111 291 0 q 68 410 68 223 l 68 581 q 181 880 68 766 q 478 990 292 990 m 676 781 q 478 850 607 850 q 280 781 350 850 q 208 581 208 708 l 208 410 q 279 210 208 281 q 478 140 349 140 q 676 210 607 140 q 748 410 748 281 l 748 581 q 676 781 748 709 m 284 1086 l 284 1206 l 672 1206 l 672 1086 l 284 1086 z "},"ō":{"ha":802,"x_min":47,"x_max":754,"o":"m 401 581 q 244 526 300 581 q 187 353 187 469 q 244 182 187 239 q 401 126 300 126 q 557 182 503 126 q 614 353 614 239 q 557 526 614 469 q 401 581 503 581 m 145 625 q 401 720 241 720 q 656 625 560 720 q 754 353 754 526 q 656 83 754 180 q 401 -14 560 -14 q 145 83 241 -14 q 47 353 47 180 q 145 625 47 526 m 207 803 l 207 922 l 595 922 l 595 803 l 207 803 z "},"Ŏ":{"ha":956,"x_min":68,"x_max":888,"o":"m 478 990 q 775 880 665 990 q 888 581 888 767 l 888 410 q 775 111 888 223 q 478 0 665 0 q 180 111 291 0 q 68 410 68 223 l 68 581 q 181 880 68 766 q 478 990 292 990 m 676 781 q 478 850 607 850 q 280 781 350 850 q 208 581 208 708 l 208 410 q 279 210 208 281 q 478 140 349 140 q 676 210 607 140 q 748 410 748 281 l 748 581 q 676 781 748 709 m 357 1217 q 397 1164 366 1184 q 478 1141 431 1141 q 559 1164 526 1141 q 599 1217 590 1184 l 699 1190 q 617 1077 680 1119 q 478 1037 557 1037 q 339 1077 399 1037 q 257 1190 277 1119 l 357 1217 z "},"ŏ":{"ha":802,"x_min":47,"x_max":754,"o":"m 401 581 q 244 526 300 581 q 187 353 187 469 q 244 182 187 239 q 401 126 300 126 q 557 182 503 126 q 614 353 614 239 q 557 526 614 469 q 401 581 503 581 m 145 625 q 401 720 241 720 q 656 625 560 720 q 754 353 754 526 q 656 83 754 180 q 401 -14 560 -14 q 145 83 241 -14 q 47 353 47 180 q 145 625 47 526 m 280 934 q 319 880 289 901 q 401 857 353 857 q 482 880 448 857 q 522 934 513 901 l 622 906 q 540 793 602 836 q 401 753 479 753 q 262 793 321 753 q 180 906 199 836 l 280 934 z "},"Ő":{"ha":956,"x_min":68,"x_max":888,"o":"m 478 990 q 775 880 665 990 q 888 581 888 767 l 888 410 q 775 111 888 223 q 478 0 665 0 q 180 111 291 0 q 68 410 68 223 l 68 581 q 181 880 68 766 q 478 990 292 990 m 676 781 q 478 850 607 850 q 280 781 350 850 q 208 581 208 708 l 208 410 q 279 210 208 281 q 478 140 349 140 q 676 210 607 140 q 748 410 748 281 l 748 581 q 676 781 748 709 m 512 1269 l 296 1046 l 149 1046 l 328 1269 l 512 1269 m 808 1269 l 592 1046 l 444 1046 l 623 1269 l 808 1269 z "},"ő":{"ha":802,"x_min":47,"x_max":754,"o":"m 401 581 q 244 526 300 581 q 187 353 187 469 q 244 182 187 239 q 401 126 300 126 q 557 182 503 126 q 614 353 614 239 q 557 526 614 469 q 401 581 503 581 m 145 625 q 401 720 241 720 q 656 625 560 720 q 754 353 754 526 q 656 83 754 180 q 401 -14 560 -14 q 145 83 241 -14 q 47 353 47 180 q 145 625 47 526 m 435 985 l 219 762 l 71 762 l 250 985 l 435 985 m 730 985 l 515 762 l 367 762 l 546 985 l 730 985 z "},"Œ":{"ha":1459,"x_min":68,"x_max":1418,"o":"m 478 850 q 280 781 350 850 q 208 581 208 708 l 208 410 q 279 210 208 281 q 478 140 349 140 q 676 210 607 140 q 748 410 748 281 l 748 581 q 676 781 748 709 q 478 850 607 850 m 768 103 q 478 0 659 0 q 180 111 291 0 q 68 410 68 223 l 68 581 q 181 880 68 766 q 478 990 292 990 q 766 888 657 990 q 803 939 780 916 q 933 993 857 993 l 1418 993 l 1418 852 l 933 852 q 903 840 916 852 q 890 809 890 827 l 890 589 l 1398 589 l 1398 462 l 890 462 l 890 184 q 903 153 890 166 q 933 140 916 140 l 1413 140 l 1413 0 l 933 0 q 803 54 857 0 q 768 103 781 77 z "},"œ":{"ha":1358,"x_min":47,"x_max":1319,"o":"m 244 512 q 187 353 187 455 q 244 195 187 252 q 401 140 300 140 q 557 195 503 140 q 614 353 614 252 q 557 512 614 455 q 401 567 503 567 q 244 512 300 567 m 1154 473 q 1107 526 1135 505 q 968 567 1055 567 q 811 512 867 567 q 755 359 756 456 l 1154 473 m 684 128 q 656 96 671 111 q 401 0 560 0 q 145 96 241 0 q 47 353 47 194 q 145 611 47 513 q 401 707 241 707 q 656 611 560 707 q 684 579 671 596 q 712 611 697 596 q 968 707 808 707 q 1192 637 1101 707 q 1312 446 1284 568 q 1305 393 1319 418 q 1263 359 1291 368 l 789 223 q 810 197 798 208 q 962 140 864 141 l 1248 140 l 1248 0 l 961 0 q 710 98 804 3 q 684 128 696 113 z "},"Ŕ":{"ha":862,"x_min":68,"x_max":840,"o":"m 640 0 l 315 311 q 270 378 280 336 q 274 449 263 417 q 320 509 288 487 q 393 532 353 532 l 536 532 q 656 569 618 532 q 693 696 693 606 q 656 815 693 778 q 536 852 618 852 l 252 852 q 221 840 234 852 q 208 809 208 827 l 208 0 l 68 0 l 68 809 q 122 939 68 885 q 252 993 176 993 l 536 993 q 755 914 676 993 q 833 696 833 836 q 755 484 833 562 q 536 405 676 405 l 408 405 l 840 0 l 640 0 m 696 1269 l 481 1046 l 333 1046 l 512 1269 l 696 1269 z "},"ŕ":{"ha":552,"x_min":68,"x_max":545,"o":"m 489 707 l 489 567 l 467 567 q 254 505 313 567 q 208 353 208 458 l 208 0 l 68 0 l 68 353 q 153 602 68 513 q 467 707 254 707 l 489 707 m 545 985 l 329 762 l 181 762 l 360 985 l 545 985 z "},"Ŗ":{"ha":862,"x_min":68,"x_max":840,"o":"m 640 0 l 315 311 q 270 378 280 336 q 274 449 263 417 q 320 509 288 487 q 393 532 353 532 l 536 532 q 656 569 618 532 q 693 696 693 606 q 656 815 693 778 q 536 852 618 852 l 252 852 q 221 840 234 852 q 208 809 208 827 l 208 0 l 68 0 l 68 809 q 122 939 68 885 q 252 993 176 993 l 536 993 q 755 914 676 993 q 833 696 833 836 q 755 484 833 562 q 536 405 676 405 l 408 405 l 840 0 l 640 0 m 463 -343 l 399 -343 q 446 -197 439 -270 l 385 -197 l 385 -57 l 524 -57 l 524 -197 q 463 -343 511 -270 z "},"ŗ":{"ha":552,"x_min":68,"x_max":489,"o":"m 489 707 l 489 567 l 467 567 q 254 505 313 567 q 208 353 208 458 l 208 0 l 68 0 l 68 353 q 153 602 68 513 q 467 707 254 707 l 489 707 m 155 -343 l 91 -343 q 138 -197 132 -270 l 77 -197 l 77 -57 l 216 -57 l 216 -197 q 155 -343 203 -270 z "},"Ř":{"ha":862,"x_min":68,"x_max":840,"o":"m 640 0 l 315 311 q 270 378 280 336 q 274 449 263 417 q 320 509 288 487 q 393 532 353 532 l 536 532 q 656 569 618 532 q 693 696 693 606 q 656 815 693 778 q 536 852 618 852 l 252 852 q 221 840 234 852 q 208 809 208 827 l 208 0 l 68 0 l 68 809 q 122 939 68 885 q 252 993 176 993 l 536 993 q 755 914 676 993 q 833 696 833 836 q 755 484 833 562 q 536 405 676 405 l 408 405 l 840 0 l 640 0 m 366 1294 l 454 1162 l 543 1294 l 690 1294 l 511 1048 q 454 1020 490 1020 q 397 1050 418 1020 l 218 1294 l 366 1294 z "},"ř":{"ha":552,"x_min":68,"x_max":599,"o":"m 489 707 l 489 567 l 467 567 q 254 505 313 567 q 208 353 208 458 l 208 0 l 68 0 l 68 353 q 153 602 68 513 q 467 707 254 707 l 489 707 m 275 1010 l 363 879 l 452 1010 l 599 1010 l 420 765 q 363 736 399 736 q 306 766 327 736 l 127 1010 l 275 1010 z "},"Ś":{"ha":843,"x_min":41,"x_max":750,"o":"m 701 990 l 701 850 l 409 850 q 235 806 300 850 q 180 708 180 769 q 259 600 180 632 q 404 565 306 580 q 633 505 564 543 q 750 283 750 441 q 634 69 750 148 q 395 0 533 0 l 47 0 l 47 140 l 395 140 q 555 184 490 140 q 610 283 610 222 q 532 391 610 358 q 387 426 485 411 q 157 486 227 448 q 41 708 41 549 q 157 922 41 842 q 409 990 258 990 l 701 990 m 732 1269 l 517 1046 l 369 1046 l 548 1269 l 732 1269 z "},"ś":{"ha":667,"x_min":47,"x_max":620,"o":"m 595 707 l 595 567 l 334 567 q 215 541 255 567 q 187 495 187 523 q 235 442 187 458 q 342 423 264 432 q 533 378 481 407 q 620 212 620 331 q 529 50 620 109 q 334 0 454 0 l 68 0 l 68 140 l 334 140 q 452 166 412 140 q 480 212 480 184 q 432 265 480 248 q 326 284 403 275 q 134 328 186 300 q 47 495 47 376 q 138 658 47 598 q 334 707 214 707 l 595 707 m 576 985 l 360 762 l 212 762 l 391 985 l 576 985 z "},"Ŝ":{"ha":843,"x_min":41,"x_max":750,"o":"m 701 990 l 701 850 l 409 850 q 235 806 300 850 q 180 708 180 769 q 259 600 180 632 q 404 565 306 580 q 633 505 564 543 q 750 283 750 441 q 634 69 750 148 q 395 0 533 0 l 47 0 l 47 140 l 395 140 q 555 184 490 140 q 610 283 610 222 q 532 391 610 358 q 387 426 485 411 q 157 486 227 448 q 41 708 41 549 q 157 922 41 842 q 409 990 258 990 l 701 990 m 208 1047 l 386 1291 q 444 1321 407 1321 q 500 1293 479 1321 l 679 1047 l 532 1047 l 444 1179 l 355 1047 l 208 1047 z "},"ŝ":{"ha":667,"x_min":47,"x_max":620,"o":"m 595 707 l 595 567 l 334 567 q 215 541 255 567 q 187 495 187 523 q 235 442 187 458 q 342 423 264 432 q 533 378 481 407 q 620 212 620 331 q 529 50 620 109 q 334 0 454 0 l 68 0 l 68 140 l 334 140 q 452 166 412 140 q 480 212 480 184 q 432 265 480 248 q 326 284 403 275 q 134 328 186 300 q 47 495 47 376 q 138 658 47 598 q 334 707 214 707 l 595 707 m 119 764 l 297 1008 q 355 1038 318 1038 q 411 1009 390 1038 l 590 764 l 443 764 l 355 895 l 267 764 l 119 764 z "},"Ş":{"ha":843,"x_min":41,"x_max":750,"o":"m 701 990 l 701 850 l 409 850 q 235 806 300 850 q 180 708 180 769 q 259 600 180 632 q 404 565 306 580 q 633 505 564 543 q 750 283 750 441 q 634 69 750 148 q 395 0 533 0 l 47 0 l 47 140 l 395 140 q 555 184 490 140 q 610 283 610 222 q 532 391 610 358 q 387 426 485 411 q 157 486 227 448 q 41 708 41 549 q 157 922 41 842 q 409 990 258 990 l 701 990 m 509 -54 l 387 -294 l 269 -294 l 360 -54 l 509 -54 z "},"ş":{"ha":667,"x_min":47,"x_max":620,"o":"m 595 707 l 595 567 l 334 567 q 215 541 255 567 q 187 495 187 523 q 235 442 187 458 q 342 423 264 432 q 533 378 481 407 q 620 212 620 331 q 529 50 620 109 q 334 0 454 0 l 68 0 l 68 140 l 334 140 q 452 166 412 140 q 480 212 480 184 q 432 265 480 248 q 326 284 403 275 q 134 328 186 300 q 47 495 47 376 q 138 658 47 598 q 334 707 214 707 l 595 707 m 404 -54 l 282 -294 l 164 -294 l 256 -54 l 404 -54 z "},"Š":{"ha":843,"x_min":41,"x_max":750,"o":"m 701 990 l 701 850 l 409 850 q 235 806 300 850 q 180 708 180 769 q 259 600 180 632 q 404 565 306 580 q 633 505 564 543 q 750 283 750 441 q 634 69 750 148 q 395 0 533 0 l 47 0 l 47 140 l 395 140 q 555 184 490 140 q 610 283 610 222 q 532 391 610 358 q 387 426 485 411 q 157 486 227 448 q 41 708 41 549 q 157 922 41 842 q 409 990 258 990 l 701 990 m 369 1294 l 457 1162 l 545 1294 l 692 1294 l 513 1048 q 457 1020 492 1020 q 399 1050 420 1020 l 221 1294 l 369 1294 z "},"š":{"ha":667,"x_min":47,"x_max":620,"o":"m 595 707 l 595 567 l 334 567 q 215 541 255 567 q 187 495 187 523 q 235 442 187 458 q 342 423 264 432 q 533 378 481 407 q 620 212 620 331 q 529 50 620 109 q 334 0 454 0 l 68 0 l 68 140 l 334 140 q 452 166 412 140 q 480 212 480 184 q 432 265 480 248 q 326 284 403 275 q 134 328 186 300 q 47 495 47 376 q 138 658 47 598 q 334 707 214 707 l 595 707 m 267 1010 l 355 879 l 443 1010 l 590 1010 l 411 765 q 355 736 390 736 q 297 766 318 736 l 119 1010 l 267 1010 z "},"Ţ":{"ha":775,"x_min":14,"x_max":762,"o":"m 762 990 l 762 850 l 458 850 l 458 0 l 317 0 l 317 850 l 14 850 l 14 990 l 762 990 m 467 -54 l 345 -294 l 227 -294 l 318 -54 l 467 -54 z "},"ţ":{"ha":515,"x_min":83,"x_max":448,"o":"m 223 567 l 223 353 q 280 195 223 252 q 436 140 335 140 l 448 140 l 448 0 l 436 0 q 181 97 277 1 q 83 353 83 195 l 83 990 l 223 990 l 223 707 l 444 707 l 444 567 l 223 567 m 326 -54 l 203 -294 l 85 -294 l 177 -54 l 326 -54 z "},"Ť":{"ha":775,"x_min":14,"x_max":762,"o":"m 762 990 l 762 850 l 458 850 l 458 0 l 317 0 l 317 850 l 14 850 l 14 990 l 762 990 m 300 1294 l 388 1162 l 476 1294 l 623 1294 l 444 1048 q 388 1020 423 1020 q 330 1050 351 1020 l 152 1294 l 300 1294 z "},"ť":{"ha":619,"x_min":83,"x_max":600,"o":"m 223 567 l 223 353 q 280 195 223 252 q 436 140 335 140 l 448 140 l 448 0 l 436 0 q 181 97 277 1 q 83 353 83 195 l 83 990 l 223 990 l 223 707 l 444 707 l 444 567 l 223 567 m 539 663 l 475 663 q 522 850 515 756 l 460 850 l 460 989 l 600 989 l 600 850 q 539 663 587 756 z "},"Ŧ":{"ha":775,"x_min":14,"x_max":762,"o":"m 317 562 l 317 850 l 14 850 l 14 990 l 762 990 l 762 850 l 458 850 l 458 562 l 708 562 l 708 429 l 458 429 l 458 0 l 317 0 l 317 429 l 67 429 l 67 562 l 317 562 z "},"ŧ":{"ha":515,"x_min":7,"x_max":508,"o":"m 174 429 l 174 567 l 7 567 l 7 707 l 174 707 l 174 916 l 314 956 l 314 707 l 508 707 l 508 567 l 314 567 l 314 429 l 503 429 l 503 296 l 314 296 l 314 0 l 174 0 l 174 296 l 13 296 l 13 429 l 174 429 z "},"Ũ":{"ha":911,"x_min":68,"x_max":843,"o":"m 703 990 l 843 990 l 843 410 q 736 120 843 234 q 455 0 625 0 q 189 105 299 0 q 68 410 68 221 l 68 990 l 208 990 l 208 410 q 286 206 208 280 q 455 140 355 140 q 635 215 564 140 q 703 410 703 289 l 703 990 m 316 1038 l 205 1061 l 217 1116 q 264 1198 227 1164 q 352 1234 302 1234 q 479 1189 399 1234 q 556 1156 537 1156 q 574 1163 566 1156 q 584 1182 581 1168 l 595 1238 l 705 1215 l 694 1160 q 647 1076 684 1108 q 555 1044 608 1043 q 425 1090 507 1044 q 352 1121 370 1121 q 340 1115 347 1121 q 327 1094 330 1106 l 316 1038 z "},"ũ":{"ha":842,"x_min":68,"x_max":774,"o":"m 635 707 l 774 707 l 774 340 q 677 83 774 180 q 421 -14 581 -14 q 165 83 262 -14 q 68 340 68 180 l 68 707 l 208 707 l 208 340 q 264 182 208 239 q 421 126 320 126 q 578 182 523 126 q 635 340 635 239 l 635 707 m 282 755 l 172 778 l 183 833 q 230 915 193 881 q 318 950 269 950 q 446 905 366 950 q 522 873 503 873 q 540 880 532 873 q 550 899 547 885 l 561 954 l 671 932 l 661 877 q 613 793 650 825 q 522 760 574 760 q 391 806 473 760 q 318 838 336 838 q 306 831 313 838 q 293 810 296 823 l 282 755 z "},"Ū":{"ha":911,"x_min":68,"x_max":843,"o":"m 703 990 l 843 990 l 843 410 q 736 120 843 234 q 455 0 625 0 q 189 105 299 0 q 68 410 68 221 l 68 990 l 208 990 l 208 410 q 286 206 208 280 q 455 140 355 140 q 635 215 564 140 q 703 410 703 289 l 703 990 m 262 1086 l 262 1206 l 650 1206 l 650 1086 l 262 1086 z "},"ū":{"ha":842,"x_min":68,"x_max":774,"o":"m 635 707 l 774 707 l 774 340 q 677 83 774 180 q 421 -14 581 -14 q 165 83 262 -14 q 68 340 68 180 l 68 707 l 208 707 l 208 340 q 264 182 208 239 q 421 126 320 126 q 578 182 523 126 q 635 340 635 239 l 635 707 m 227 803 l 227 922 l 615 922 l 615 803 l 227 803 z "},"Ŭ":{"ha":911,"x_min":68,"x_max":843,"o":"m 703 990 l 843 990 l 843 410 q 736 120 843 234 q 455 0 625 0 q 189 105 299 0 q 68 410 68 221 l 68 990 l 208 990 l 208 410 q 286 206 208 280 q 455 140 355 140 q 635 215 564 140 q 703 410 703 289 l 703 990 m 335 1217 q 374 1164 344 1184 q 456 1141 408 1141 q 537 1164 503 1141 q 576 1217 568 1184 l 677 1190 q 595 1077 657 1119 q 456 1037 534 1037 q 317 1077 376 1037 q 235 1190 254 1119 l 335 1217 z "},"ŭ":{"ha":842,"x_min":68,"x_max":774,"o":"m 635 707 l 774 707 l 774 340 q 677 83 774 180 q 421 -14 581 -14 q 165 83 262 -14 q 68 340 68 180 l 68 707 l 208 707 l 208 340 q 264 182 208 239 q 421 126 320 126 q 578 182 523 126 q 635 340 635 239 l 635 707 m 300 934 q 340 880 309 901 q 421 857 374 857 q 503 880 469 857 q 542 934 533 901 l 642 906 q 560 793 623 836 q 421 753 500 753 q 282 793 342 753 q 200 906 220 836 l 300 934 z "},"Ů":{"ha":911,"x_min":68,"x_max":843,"o":"m 703 990 l 843 990 l 843 410 q 736 120 843 234 q 455 0 625 0 q 189 105 299 0 q 68 410 68 221 l 68 990 l 208 990 l 208 410 q 286 206 208 280 q 455 140 355 140 q 635 215 564 140 q 703 410 703 289 l 703 990 m 456 1279 q 558 1237 515 1279 q 600 1135 600 1194 q 558 1032 600 1075 q 456 990 515 990 q 353 1032 396 990 q 311 1135 311 1075 q 353 1237 311 1194 q 456 1279 396 1279 m 456 1198 q 410 1180 429 1198 q 392 1135 392 1162 q 411 1089 392 1108 q 456 1071 429 1071 q 501 1089 482 1071 q 519 1135 519 1108 q 501 1180 519 1161 q 456 1198 482 1198 z "},"ů":{"ha":842,"x_min":68,"x_max":774,"o":"m 635 707 l 774 707 l 774 340 q 677 83 774 180 q 421 -14 581 -14 q 165 83 262 -14 q 68 340 68 180 l 68 707 l 208 707 l 208 340 q 264 182 208 239 q 421 126 320 126 q 578 182 523 126 q 635 340 635 239 l 635 707 m 421 996 q 524 954 481 996 q 566 851 566 911 q 524 749 566 791 q 421 707 481 707 q 319 749 361 707 q 277 851 277 791 q 319 954 277 911 q 421 996 361 996 m 421 915 q 376 897 395 915 q 357 851 357 878 q 376 806 357 825 q 421 787 395 787 q 467 806 448 787 q 485 851 485 825 q 467 897 485 878 q 421 915 448 915 z "},"Ű":{"ha":911,"x_min":68,"x_max":843,"o":"m 703 990 l 843 990 l 843 410 q 736 120 843 234 q 455 0 625 0 q 189 105 299 0 q 68 410 68 221 l 68 990 l 208 990 l 208 410 q 286 206 208 280 q 455 140 355 140 q 635 215 564 140 q 703 410 703 289 l 703 990 m 490 1269 l 274 1046 l 126 1046 l 305 1269 l 490 1269 m 785 1269 l 570 1046 l 422 1046 l 601 1269 l 785 1269 z "},"ű":{"ha":842,"x_min":68,"x_max":774,"o":"m 635 707 l 774 707 l 774 340 q 677 83 774 180 q 421 -14 581 -14 q 165 83 262 -14 q 68 340 68 180 l 68 707 l 208 707 l 208 340 q 264 182 208 239 q 421 126 320 126 q 578 182 523 126 q 635 340 635 239 l 635 707 m 455 985 l 239 762 l 92 762 l 271 985 l 455 985 m 751 985 l 535 762 l 387 762 l 566 985 l 751 985 z "},"Ų":{"ha":911,"x_min":68,"x_max":843,"o":"m 439 0 q 189 105 293 5 q 68 410 68 221 l 68 990 l 208 990 l 208 410 q 286 206 208 280 q 455 140 355 140 q 635 215 564 140 q 703 410 703 289 l 703 990 l 843 990 l 843 410 q 736 120 843 234 q 530 6 650 27 q 514 -29 519 -11 q 523 -98 504 -69 q 602 -109 551 -140 l 649 -184 q 548 -221 604 -222 q 454 -176 491 -220 q 418 -60 408 -124 q 439 0 422 -29 z "},"ų":{"ha":842,"x_min":68,"x_max":774,"o":"m 514 9 q 421 0 471 0 q 165 96 262 0 q 68 353 68 194 l 68 707 l 208 707 l 208 353 q 264 195 208 252 q 421 140 320 140 q 578 195 523 140 q 635 353 635 252 l 635 707 l 774 707 l 774 353 q 677 96 774 194 q 647 70 663 82 q 598 -3 609 38 q 607 -72 588 -43 q 686 -83 635 -115 l 733 -159 q 632 -195 688 -197 q 538 -151 575 -194 q 502 -35 492 -98 q 514 9 505 -12 z "},"Ŵ":{"ha":1146,"x_min":7,"x_max":1139,"o":"m 1139 990 l 1021 145 q 974 43 1012 81 q 869 0 932 0 q 761 41 807 0 q 704 141 716 81 l 589 741 q 573 751 586 751 q 557 739 560 751 l 441 141 q 388 41 430 80 q 281 0 343 0 q 175 42 218 0 q 125 145 134 82 l 7 990 l 148 990 l 263 168 q 282 140 267 140 q 304 168 298 140 l 423 785 q 481 867 433 838 q 573 891 522 891 q 664 867 624 891 q 722 785 712 838 l 841 170 q 851 149 844 158 q 866 139 858 139 q 883 171 879 140 l 998 990 l 1139 990 m 338 1047 l 516 1291 q 574 1321 537 1321 q 630 1293 609 1321 l 809 1047 l 662 1047 l 574 1179 l 486 1047 l 338 1047 z "},"ŵ":{"ha":1144,"x_min":1,"x_max":1143,"o":"m 1143 707 l 1023 128 q 966 34 1010 68 q 862 1 923 1 q 760 33 802 1 q 700 123 717 66 l 600 471 q 572 500 592 500 q 545 471 553 500 l 444 123 q 392 38 429 70 q 283 0 348 0 q 179 34 222 0 q 121 128 134 68 l 1 707 l 144 707 l 256 166 q 283 140 262 140 q 311 167 303 140 l 410 510 q 468 602 427 567 q 572 641 514 641 q 665 614 625 641 q 734 510 713 581 l 833 168 q 862 140 841 140 q 888 166 882 140 l 1001 707 l 1143 707 m 336 764 l 515 1008 q 572 1038 536 1038 q 629 1009 608 1038 l 808 764 l 661 764 l 572 895 l 484 764 l 336 764 z "},"Ŷ":{"ha":831,"x_min":7,"x_max":825,"o":"m 486 360 l 486 0 l 346 0 l 346 359 q 314 382 330 368 q 244 478 271 418 l 7 990 l 154 990 l 374 522 q 415 481 392 481 q 457 522 437 481 l 677 990 l 825 990 l 587 478 q 517 382 559 418 q 486 360 501 369 m 180 1047 l 359 1291 q 416 1321 380 1321 q 473 1293 452 1321 l 652 1047 l 505 1047 l 416 1179 l 328 1047 l 180 1047 z "},"ŷ":{"ha":842,"x_min":117,"x_max":770,"o":"m 630 54 q 444 -14 554 -14 q 215 83 304 -14 q 117 340 117 180 l 117 707 l 257 707 l 257 340 q 314 182 257 239 q 444 126 363 126 q 573 182 525 126 q 630 340 630 239 l 630 707 l 770 707 l 770 70 q 673 -186 770 -89 q 418 -283 576 -283 l 199 -283 l 199 -144 l 418 -144 q 574 -88 519 -144 q 630 54 625 -37 m 186 764 l 364 1008 q 422 1038 385 1038 q 478 1009 457 1038 l 657 764 l 510 764 l 422 895 l 334 764 l 186 764 z "},"Ÿ":{"ha":831,"x_min":7,"x_max":825,"o":"m 486 360 l 486 0 l 346 0 l 346 359 q 314 382 330 368 q 244 478 271 418 l 7 990 l 154 990 l 374 522 q 415 481 392 481 q 457 522 437 481 l 677 990 l 825 990 l 587 478 q 517 382 559 418 q 486 360 501 369 m 208 1226 l 348 1226 l 348 1086 l 208 1086 l 208 1226 m 483 1226 l 623 1226 l 623 1086 l 483 1086 l 483 1226 z "},"Ź":{"ha":819,"x_min":34,"x_max":785,"o":"m 45 850 l 45 990 l 595 990 q 692 962 648 990 q 760 886 736 934 q 779 781 785 835 q 730 683 772 721 l 203 221 q 182 168 173 195 q 224 140 191 140 l 785 140 l 785 0 l 224 0 q 127 28 171 0 q 59 104 82 56 q 40 210 34 155 q 89 307 46 270 l 619 772 q 637 822 646 795 q 595 850 628 850 l 45 850 m 654 1269 l 439 1046 l 291 1046 l 470 1269 l 654 1269 z "},"ź":{"ha":777,"x_min":27,"x_max":682,"o":"m 55 568 l 55 709 l 550 709 q 620 688 588 709 q 667 631 652 667 q 675 557 682 595 q 639 492 667 519 l 192 140 l 677 140 l 677 0 l 159 0 q 89 22 121 0 q 42 79 57 43 q 35 152 27 115 q 70 218 42 190 l 517 568 l 55 568 m 621 985 l 405 762 l 257 762 l 436 985 l 621 985 z "},"Ż":{"ha":819,"x_min":34,"x_max":785,"o":"m 45 850 l 45 990 l 595 990 q 692 962 648 990 q 760 886 736 934 q 779 781 785 835 q 730 683 772 721 l 203 221 q 182 168 173 195 q 224 140 191 140 l 785 140 l 785 0 l 224 0 q 127 28 171 0 q 59 104 82 56 q 40 210 34 155 q 89 307 46 270 l 619 772 q 637 822 646 795 q 595 850 628 850 l 45 850 m 342 1233 l 482 1233 l 482 1093 l 342 1093 l 342 1233 z "},"ż":{"ha":777,"x_min":27,"x_max":682,"o":"m 55 568 l 55 709 l 550 709 q 620 688 588 709 q 667 631 652 667 q 675 557 682 595 q 639 492 667 519 l 192 140 l 677 140 l 677 0 l 159 0 q 89 22 121 0 q 42 79 57 43 q 35 152 27 115 q 70 218 42 190 l 517 568 l 55 568 m 309 949 l 448 949 l 448 810 l 309 810 l 309 949 z "},"Ž":{"ha":819,"x_min":34,"x_max":785,"o":"m 45 850 l 45 990 l 595 990 q 692 962 648 990 q 760 886 736 934 q 779 781 785 835 q 730 683 772 721 l 203 221 q 182 168 173 195 q 224 140 191 140 l 785 140 l 785 0 l 224 0 q 127 28 171 0 q 59 104 82 56 q 40 210 34 155 q 89 307 46 270 l 619 772 q 637 822 646 795 q 595 850 628 850 l 45 850 m 324 1294 l 412 1162 l 500 1294 l 648 1294 l 469 1048 q 412 1020 448 1020 q 355 1050 376 1020 l 176 1294 l 324 1294 z "},"ž":{"ha":777,"x_min":27,"x_max":682,"o":"m 55 568 l 55 709 l 550 709 q 620 688 588 709 q 667 631 652 667 q 675 557 682 595 q 639 492 667 519 l 192 140 l 677 140 l 677 0 l 159 0 q 89 22 121 0 q 42 79 57 43 q 35 152 27 115 q 70 218 42 190 l 517 568 l 55 568 m 290 1010 l 378 879 l 467 1010 l 614 1010 l 435 765 q 378 736 414 736 q 321 766 342 736 l 142 1010 l 290 1010 z "},"ſ":{"ha":562,"x_min":68,"x_max":530,"o":"m 208 0 l 68 0 l 68 637 q 164 892 68 795 q 416 990 259 989 l 530 990 l 530 850 l 418 850 q 264 795 318 850 q 208 639 208 739 l 208 0 z "},"̒":{"ha":275,"x_min":68,"x_max":208,"o":"m 129 990 l 193 990 q 146 803 153 897 l 208 803 l 208 663 l 68 663 l 68 803 q 129 990 81 897 z "},"̓":{"ha":275,"x_min":68,"x_max":208,"o":"m 146 663 l 82 663 q 130 850 123 757 l 68 850 l 68 990 l 208 990 l 208 850 q 146 663 194 757 z "},"̔":{"ha":275,"x_min":68,"x_max":208,"o":"m 129 663 q 68 850 81 757 l 68 990 l 208 990 l 208 850 l 146 850 q 193 663 153 757 l 129 663 z "},"̕":{"ha":208,"x_min":34,"x_max":174,"o":"m 113 663 l 48 663 q 96 850 89 756 l 34 850 l 34 989 l 174 989 l 174 850 q 113 663 160 756 z "},"̛":{"ha":208,"x_min":34,"x_max":174,"o":"m 113 663 l 48 663 q 96 850 89 756 l 34 850 l 34 989 l 174 989 l 174 850 q 113 663 160 756 z "},"̦":{"ha":208,"x_min":34,"x_max":174,"o":"m 113 -343 l 48 -343 q 96 -197 89 -270 l 34 -197 l 34 -57 l 174 -57 l 174 -197 q 113 -343 160 -270 z "},"̥":{"ha":0,"x_min":-407,"x_max":-118,"o":"m -262 -165 q -160 -207 -203 -165 q -118 -309 -118 -250 q -160 -412 -118 -369 q -262 -454 -203 -454 q -365 -412 -322 -454 q -407 -309 -407 -369 q -365 -207 -407 -250 q -262 -165 -322 -165 m -262 -245 q -308 -264 -289 -245 q -326 -309 -326 -282 q -307 -355 -326 -336 q -262 -373 -289 -373 q -217 -355 -236 -373 q -199 -309 -199 -336 q -217 -264 -199 -283 q -262 -245 -236 -245 z "},"̧":{"ha":0,"x_min":-407,"x_max":-167,"o":"m -167 -54 l -289 -294 l -407 -294 l -315 -54 l -167 -54 z "},"̨":{"ha":0,"x_min":-217,"x_max":24,"o":"m -55 6 q -111 -73 -100 -28 q -102 -142 -121 -113 q -24 -153 -74 -184 l 24 -229 q -77 -265 -22 -267 q -172 -220 -134 -264 q -208 -104 -217 -168 q -150 6 -199 -47 l -55 6 z "},"ª":{"ha":738,"x_min":47,"x_max":656,"o":"m 352 991 q 573 908 490 991 q 656 686 656 824 l 656 382 l 536 382 l 536 439 q 385 380 470 391 q 225 401 300 370 q 99 502 145 432 q 47 686 47 578 q 132 908 47 824 q 352 991 214 991 m 487 823 q 352 870 439 870 q 217 823 265 870 q 168 686 168 774 q 217 550 168 600 q 352 503 265 503 q 487 550 439 503 q 536 686 536 600 q 487 823 536 774 z "},"º":{"ha":718,"x_min":47,"x_max":656,"o":"m 352 870 q 217 823 265 870 q 168 686 168 774 q 217 550 168 600 q 352 503 265 503 q 487 550 439 503 q 536 686 536 600 q 487 823 536 774 q 352 870 439 870 m 132 908 q 352 991 214 991 q 572 908 490 991 q 656 686 656 824 q 572 465 656 549 q 352 382 490 382 q 132 465 214 382 q 47 686 47 549 q 132 908 47 824 z "},"‰":{"ha":1457,"x_min":68,"x_max":1423,"o":"m 677 990 l 182 0 l 337 0 q 591 508 399 123 q 833 990 758 839 l 677 990 m 260 722 q 202 746 226 722 q 178 805 178 770 q 202 863 178 839 q 260 888 226 888 q 318 863 294 888 q 342 805 342 839 q 318 746 342 770 q 260 722 294 722 m 260 612 q 396 669 340 612 q 452 805 452 725 q 396 941 452 884 q 260 997 340 997 q 124 941 180 997 q 68 805 68 884 q 124 669 68 725 q 260 612 180 612 m 752 109 q 693 133 718 109 q 669 191 669 157 q 693 250 669 225 q 752 274 718 274 q 810 250 786 274 q 834 191 834 225 q 810 133 834 157 q 752 109 786 109 m 752 -1 q 888 55 831 -1 q 944 191 944 111 q 888 327 944 271 q 752 383 831 383 q 616 327 672 383 q 559 191 559 271 q 616 55 559 111 q 752 -1 672 -1 m 1231 109 q 1172 133 1196 109 q 1148 191 1148 157 q 1172 250 1148 225 q 1231 274 1196 274 q 1289 250 1265 274 q 1313 191 1313 225 q 1289 133 1313 157 q 1231 109 1265 109 m 1231 -1 q 1367 55 1310 -1 q 1423 191 1423 111 q 1367 327 1423 271 q 1231 383 1310 383 q 1095 327 1151 383 q 1038 191 1038 271 q 1095 55 1038 111 q 1231 -1 1151 -1 z "}}}
